<?xml version="1.0" encoding="UTF-8" standalone="no"?>
<svg width="35px" height="35px" viewBox="0 0 35 35" version="1.1" xmlns="http://www.w3.org/2000/svg" xmlns:xlink="http://www.w3.org/1999/xlink">
    <!-- Generator: Sketch 41.2 (35397) - http://www.bohemiancoding.com/sketch -->
    <title>Group</title>
    <desc>Created with Sketch.</desc>
    <defs></defs>
    <g id="Page-1" stroke="none" stroke-width="1" fill="none" fill-rule="evenodd">
        <g id="Group" transform="translate(-5.000000, -5.000000)">
            <rect id="Rectangle" fill-opacity="0" fill="#25000A" x="0" y="0" width="45" height="45"></rect>
            <path d="M5.85550579,39.0921604 L5.00039006,38.2370483 L12.8756834,30.3616313 L20.7509767,22.4862101 L12.8754881,14.6106011 L5,6.73498801 L5.84293229,5.8932157 L6.68586457,5.05144747 L14.5354305,12.9008876 C18.852692,17.2180804 22.4079158,20.7503276 22.435928,20.7503276 C22.4639407,20.7503276 26.0307396,17.2065051 30.3621484,12.8751638 L38.2374368,5 L39.0925525,5.85511614 L39.9476682,6.71023228 L32.0725032,14.5855186 C27.7411627,18.9169294 24.1973382,22.4837268 24.1973382,22.5117419 C24.1973382,22.5397529 27.7355923,26.1009833 32.0601249,30.4255812 L39.9229113,38.2884917 L39.079979,39.130264 L38.2370467,39.9720323 L30.3492514,32.0843619 L22.4614557,24.1966916 L14.5860386,32.0719861 L6.71062112,39.9472765 L5.85550579,39.0921604 L5.85550579,39.0921604 Z" id="Shape" fill="#A4A4A4"></path>
        </g>
    </g>
</svg>