<?xml version="1.0" encoding="UTF-8" standalone="no"?>
<svg width="176px" height="40px" viewBox="0 0 176 40" version="1.1" xmlns="http://www.w3.org/2000/svg" xmlns:xlink="http://www.w3.org/1999/xlink">
    <!-- Generator: Sketch 41.2 (35397) - http://www.bohemiancoding.com/sketch -->
    <title>Group 10</title>
    <desc>Created with Sketch.</desc>
    <defs>
        <polygon id="path-1" points="17.126449 0.0361497326 0.015110349 0.0361497326 0.015110349 14.2849733 17.126449 14.2849733 17.126449 0.0361497326"></polygon>
        <polygon id="path-3" points="0 49.9638503 175.957751 49.9638503 175.957751 10.1069519 0 10.1069519"></polygon>
    </defs>
    <g id="Page-1" stroke="none" stroke-width="1" fill="none" fill-rule="evenodd">
        <g id="Large-Device-Desktops-2" transform="translate(-68.000000, -36.000000)">
            <g id="Group-10" transform="translate(59.000000, 30.000000)">
                <rect id="Rectangle-16" fill-opacity="0" fill="#FFFFFF" x="0" y="0" width="192" height="53"></rect>
                <g id="logo" transform="translate(9.000000, 6.000000)">
                    <g id="Group-3" transform="translate(1.616656, 0.070802)">
                        <mask id="mask-2" fill="white">
                            <use xlink:href="#path-1"></use>
                        </mask>
                        <g id="Clip-2"></g>
                        <path d="M17.126449,14.2849733 L11.1425568,9.30262032 L11.1430957,9.30197861 L0.015110349,0.0360962567 L0.015110349,2.4984492 L7.74876375,8.93802139 C7.25870129,9.50475936 6.96188316,10.2447594 6.96188316,11.054492 C6.96188316,11.534385 7.06750472,11.9892513 7.25449798,12.3986631 L0.015110349,12.3986631 L0.015110349,12.5419786 L0.015110349,14.2849733 L10.2729034,14.2849733 L17.126449,14.2849733 Z" id="Fill-1" fill="#FFFFFF" mask="url(#mask-2)"></path>
                    </g>
                    <polygon id="Fill-4" fill="#FFFFFF" points="28.9834062 36.1904492 28.9781252 28.6095936 35.1947081 28.6316257 35.1947081 26.7452086 28.7883297 26.7230695 28.7937186 20.5555829 24.9908037 20.5555829 24.9855226 26.7230695 17.9281705 26.7452086 20.1938606 28.6316257 24.7957271 28.6095936 24.8010082 36.1904492 15.7550609 36.2124813 18.0208588 38.0990053 37.4862648 38.0990053 37.4862648 36.2124813"></polygon>
                    <path d="M7.38630937,20.2325882 L7.37876497,20.2325882 L7.37876497,24.3208235 L7.34168965,24.3208235 L5.16114342,24.3208235 L5.16114342,18.3897005 L7.34168965,18.3897005 L7.38630937,18.3897005 L7.38630937,20.2325882 Z M11.1892242,20.2325882 L11.1892242,18.3897005 L11.2320118,18.3897005 L13.414498,18.3897005 L13.414498,24.3208235 L11.2320118,24.3208235 L11.1892242,24.3208235 L11.1892242,20.2325882 Z M17.1131924,29.450984 L11.1892242,29.450984 L11.1892242,26.1836043 L11.2471006,26.1836043 L16.9443057,26.1836043 L16.9429046,16.5031765 L1.63176681,16.5031765 C1.63176681,16.5031765 1.62971904,25.5629626 1.62971904,26.1415722 L1.62971904,26.1836043 L7.33727079,26.1836043 L7.37876497,26.1836043 L7.37876497,29.450984 L2.15554192e-05,29.450984 L2.15554192e-05,31.337508 L7.37876497,31.337508 L7.38630937,39.9638182 L11.1892242,39.9638182 L11.1892242,31.337508 L19.3789903,31.337508 L17.1131924,29.450984 Z" id="Fill-6" fill="#FFFFFF"></path>
                    <path d="M24.8010513,10.3144706 L24.8010513,16.5057005 L17.9290758,16.5165027 L20.1959515,18.4039893 L35.1947513,18.4030267 L35.1947513,16.5031337 L28.9834494,16.5057005 L28.9834494,10.3144706 L35.8562871,10.3144706 L35.8562871,8.42794652 L28.7937617,8.42794652 L28.7937617,1.6864492 L24.9908468,1.6864492 L24.9908468,8.42794652 C23.5093428,8.42794652 17.2322969,8.43874866 16.749671,8.43874866 L19.0147145,10.3252727 C20.7975633,10.3252727 23.4317433,10.3144706 24.8010513,10.3144706" id="Fill-8" fill="#FFFFFF"></path>
                    <path d="M56.2245957,19.1160642 L54.5337886,20.1103957 C54.2175706,19.5659037 53.9164414,19.2108235 53.6300776,19.0450481 C53.3317506,18.8556364 52.947202,18.760984 52.4761083,18.760984 C51.8975608,18.760984 51.4173061,18.9239786 51.0356674,19.2496471 C50.6539209,19.5695401 50.4630476,19.9722139 50.4630476,20.4578824 C50.4630476,21.1271872 50.9641034,21.6661176 51.966107,22.0747807 L53.3438217,22.6344599 C54.4651346,23.0847273 55.2852105,23.6340321 55.8041573,24.2825882 C56.3229962,24.9311444 56.5824157,25.7263316 56.5824157,26.6678289 C56.5824157,27.9295401 56.1589595,28.972 55.312047,29.7953155 C54.4590991,30.6245134 53.4004047,31.0389519 52.1360715,31.0389519 C50.9372669,31.0389519 49.9471187,30.685262 49.1659503,29.9777754 C48.3965296,29.2707166 47.9163826,28.2779893 47.7255094,26.9995936 L49.8368627,26.5379893 C49.9322454,27.3429091 50.0992999,27.8992727 50.3378107,28.2069733 C50.7671946,28.7988449 51.3934873,29.0947807 52.216581,29.0947807 C52.8665847,29.0947807 53.4065479,28.8788449 53.8359319,28.4471872 C54.2653159,28.0155294 54.4800078,27.4684706 54.4800078,26.8059037 C54.4800078,26.5399144 54.442717,26.2958503 54.3680274,26.074139 C54.2935535,25.8522139 54.177262,25.6481497 54.0192607,25.4619465 C53.8611517,25.2756364 53.6570219,25.1010909 53.4065479,24.9385241 C53.1559662,24.7759572 52.857747,24.6206631 52.5118903,24.4727487 L51.1789031,23.9226952 C49.2881695,23.1301818 48.3428566,21.9709305 48.3428566,20.4451551 C48.3428566,19.4161711 48.7394763,18.5555294 49.532608,17.8635508 C50.3259552,17.1657968 51.3130856,16.8167059 52.4939993,16.8167059 C54.0864059,16.8167059 55.329938,17.5832299 56.2245957,19.1160642" id="Fill-10" fill="#FFFFFF"></path>
                    <polygon id="Fill-12" fill="#FFFFFF" points="65.2117722 22.445262 71.1700135 22.445262 71.1700135 17.083016 73.2545303 17.083016 73.2545303 30.7903957 71.1700135 30.7903957 71.1700135 24.3895401 65.2117722 24.3895401 65.2117722 30.7903957 63.1272554 30.7903957 63.1272554 17.083016 65.2117722 17.083016"></polygon>
                    <path d="M82.0088975,23.8968342 C82.0088975,25.410738 82.5219165,26.6554439 83.5477389,27.6311658 C84.5675258,28.6068877 85.7455295,29.0948021 87.0815344,29.0948021 C88.5309208,29.0948021 89.7534364,28.5980107 90.7496201,27.6045348 C91.7454805,26.5994011 92.2435184,25.3752299 92.2435184,23.9323422 C92.2435184,22.4718075 91.751516,21.2476364 90.7675111,20.2600428 C89.7892184,19.2665668 88.5784505,18.7697754 87.1352073,18.7697754 C85.6977842,18.7697754 84.4841063,19.2665668 83.4940659,20.2600428 C82.5040255,21.241754 82.0088975,22.4540535 82.0088975,23.8968342 M79.9065974,23.8745882 C79.9065974,21.9451765 80.6191118,20.2879572 82.0447873,18.9030374 C83.4642116,17.5180107 85.1699998,16.8256043 87.1620438,16.8256043 C89.1301614,16.8256043 90.8180585,17.524 92.2257352,18.9207914 C93.6391241,20.3175829 94.346034,21.9955508 94.346034,23.9544813 C94.346034,25.9253904 93.6362141,27.5974759 92.2167897,28.9704171 C90.791222,30.3495615 89.0705607,31.0389733 87.0546979,31.0389733 C85.2713102,31.0389733 83.6699581,30.4264599 82.2505337,29.2013262 C80.6877658,27.8460321 79.9065974,26.0704171 79.9065974,23.8745882" id="Fill-14" fill="#FFFFFF"></path>
                    <polygon id="Fill-16" fill="#FFFFFF" points="108.620475 19.0272941 103.082672 19.0272941 103.082672 22.320984 108.459456 22.320984 108.459456 24.265262 103.082672 24.265262 103.082672 28.8462246 108.620475 28.8462246 108.620475 30.7903957 100.998047 30.7903957 100.998047 17.083016 108.620475 17.083016"></polygon>
                    <polygon id="Fill-18" fill="#FFFFFF" points="117.473242 17.0830481 117.473242 28.8461497 121.53493 28.8461497 121.53493 30.7904278 115.388833 30.7904278 115.388833 17.0830481"></polygon>
                    <mask id="mask-4" fill="white">
                        <use xlink:href="#path-3"></use>
                    </mask>
                    <g id="Clip-21"></g>
                    <polygon id="Fill-20" fill="#FFFFFF" mask="url(#mask-4)" points="127.542986 30.7904813 129.627395 30.7904813 129.627395 17.0831016 127.542986 17.0831016"></polygon>
                    <polygon id="Fill-22" fill="#FFFFFF" mask="url(#mask-4)" points="137.675348 17.0830481 141.495292 26.5822995 145.369232 17.0830481 147.650549 17.0830481 141.450672 31.8202674 135.39403 17.0830481"></polygon>
                    <polygon id="Fill-23" fill="#FFFFFF" mask="url(#mask-4)" points="161.021301 19.0272941 155.48339 19.0272941 155.48339 22.320984 160.860282 22.320984 160.860282 24.265262 155.48339 24.265262 155.48339 28.8462246 161.021301 28.8462246 161.021301 30.7903957 153.398981 30.7903957 153.398981 17.083016 161.021301 17.083016"></polygon>
                    <path d="M175.599834,19.1160642 L173.909027,20.1103957 C173.592917,19.5659037 173.29168,19.2108235 173.005532,19.0450481 C172.707097,18.8556364 172.322548,18.760984 171.851455,18.760984 C171.2728,18.760984 170.792545,18.9239786 170.411014,19.2496471 C170.029267,19.5695401 169.838502,19.9722139 169.838502,20.4578824 C169.838502,21.1271872 170.33945,21.6661176 171.341454,22.0747807 L172.719168,22.6344599 C173.840481,23.0847273 174.660557,23.6340321 175.179504,24.2825882 C175.698343,24.9311444 175.957762,25.7263316 175.957762,26.6678289 C175.957762,27.9295401 175.534306,28.972 174.687286,29.7953155 C173.834338,30.6245134 172.775751,31.0389519 171.511418,31.0389519 C170.312613,31.0389519 169.322573,30.685262 168.541297,29.9777754 C167.771876,29.2707166 167.291729,28.2779893 167.100856,26.9995936 L169.212101,26.5379893 C169.307484,27.3429091 169.474646,27.8992727 169.713157,28.2069733 C170.142541,28.7988449 170.768942,29.0947807 171.59182,29.0947807 C172.242039,29.0947807 172.781894,28.8788449 173.211278,28.4471872 C173.640662,28.0155294 173.855354,27.4684706 173.855354,26.8059037 C173.855354,26.5399144 173.817956,26.2958503 173.743482,26.074139 C173.6689,25.8522139 173.552608,25.6481497 173.394715,25.4619465 C173.236498,25.2756364 173.032368,25.1010909 172.781894,24.9385241 C172.531313,24.7759572 172.233093,24.6206631 171.887237,24.4727487 L170.554142,23.9226952 C168.663516,23.1301818 167.718203,21.9709305 167.718203,20.4451551 C167.718203,19.4161711 168.114823,18.5555294 168.908062,17.8635508 C169.701194,17.1657968 170.688432,16.8167059 171.869346,16.8167059 C173.461752,16.8167059 174.705177,17.5832299 175.599834,19.1160642" id="Fill-24" fill="#FFFFFF" mask="url(#mask-4)"></path>
                </g>
            </g>
        </g>
    </g>
</svg>