<?xml version="1.0" encoding="UTF-8" standalone="no"?>
<svg width="23px" height="23px" viewBox="0 0 23 23" version="1.1" xmlns="http://www.w3.org/2000/svg" xmlns:xlink="http://www.w3.org/1999/xlink">
    <!-- Generator: Sketch 41.2 (35397) - http://www.bohemiancoding.com/sketch -->
    <title>Group 11</title>
    <desc>Created with Sketch.</desc>
    <defs></defs>
    <g id="完稿" stroke="none" stroke-width="1" fill="none" fill-rule="evenodd">
        <g id="Large-Device-Desktops-2" transform="translate(-281.000000, -4328.000000)" stroke="#F5334A" stroke-width="0.799999952" fill="#F5334A">
            <g id="Group-9" transform="translate(252.000000, 4321.000000)">
                <g id="Group-11" transform="translate(30.000000, 8.000000)">
                    <path d="M8.31497585,0.693333333 L0.692914654,0.693333333 L0.692914654,8.32 L0,8.32 L0,0.693333333 L0,0 L0.692914654,0 L8.31497585,0 L8.31497585,0.693333333 Z M20.094525,0 L12.4724638,0 L12.4724638,0.693333333 L20.094525,0.693333333 L20.094525,8.32 L20.7874396,8.32 L20.7874396,0.693333333 L20.7874396,0 L20.094525,0 Z M0.692914654,20.1066667 L0.692914654,12.48 L0,12.48 L0,20.1066667 L0,20.8 L0.692914654,20.8 L8.31497585,20.8 L8.31497585,20.1066667 L0.692914654,20.1066667 Z M19.8635534,12.48 L19.8635534,20.1066667 L12.2414922,20.1066667 L12.2414922,20.8 L19.8635534,20.8 L20.5564681,20.8 L20.5564681,20.1066667 L20.5564681,12.48 L19.8635534,12.48 Z M13.1120773,10.2222222 L10.9800322,10.2222222 L10.9800322,8.08888889 L10.4470209,8.08888889 L10.4470209,10.2222222 L8.31497585,10.2222222 L8.31497585,10.7555556 L10.4470209,10.7555556 L10.4470209,12.8888889 L10.9800322,12.8888889 L10.9800322,10.7555556 L13.1120773,10.7555556 L13.1120773,10.2222222 Z" id="Shape"></path>
                </g>
            </g>
        </g>
    </g>
</svg>