<svg xmlns="http://www.w3.org/2000/svg" width="144" height="95" viewBox="0 0 144 95">
  <path fill="#EAE8E8" fill-rule="evenodd" d="M254.025146,36.994 C232.519341,36.994 213.943293,49.7802927 205.408634,68.168 C209.810244,65.468439 214.979171,63.9093902 220.507341,63.9093902 C236.523341,63.9093902 249.574707,76.9816829 249.574707,93.0569756 C249.574707,109.132268 236.523341,122.204561 220.507341,122.204561 C204.487854,122.204561 191.460902,109.132268 191.460902,93.0569756 C191.460902,92.4849756 191.481829,91.9199512 191.51322,91.3549268 C191.492293,91.1770488 191.460902,91.0061463 191.460902,90.8247805 C191.460902,56.2013415 219.52378,28.0408049 254.025146,28.0408049 C256.515439,28.0408049 258.5,30.0323415 258.5,32.5051951 C258.5,35.0059512 256.515439,36.994 254.025146,36.994 L254.025146,36.994 Z M178.060756,36.994 C156.547976,36.994 137.957976,49.7907561 129.416341,68.185439 C133.824927,65.4754146 139.004317,63.9093902 144.542951,63.9093902 C160.558951,63.9093902 173.58939,76.9816829 173.58939,93.0569756 C173.58939,109.132268 160.558951,122.204561 144.542951,122.204561 C128.526951,122.204561 115.5,109.132268 115.5,93.0569756 C115.5,92.4884634 115.520927,91.9199512 115.552317,91.3584146 C115.53139,91.1805366 115.5,91.0061463 115.5,90.8247805 C115.5,56.2013415 143.55939,28.0408049 178.060756,28.0408049 C180.526634,28.0408049 182.539098,30.0323415 182.539098,32.5051951 C182.539098,35.0059512 180.526634,36.994 178.060756,36.994 L178.060756,36.994 Z" transform="translate(-115 -28.002)"/>
</svg>
