<?xml version="1.0" encoding="UTF-8"?>
<svg width="17px" height="18px" viewBox="0 0 17 18" version="1.1" xmlns="http://www.w3.org/2000/svg" xmlns:xlink="http://www.w3.org/1999/xlink">
    <!-- Generator: Sketch 43.1 (39012) - http://www.bohemiancoding.com/sketch -->
    <title>验证码</title>
    <desc>Created with Sketch.</desc>
    <defs></defs>
    <g id="Page-1" stroke="none" stroke-width="1" fill="none" fill-rule="evenodd">
        <g id="输入手机号码-copy" transform="translate(-35.000000, -609.000000)" fill-rule="nonzero" fill="#9B9B9B">
            <g id="输入手机号-copy" transform="translate(15.000000, 594.000000)">
                <g id="验证码" transform="translate(20.000000, 15.000000)">
                    <path d="M8.4949277,18 C5.52794755,18 0.0031433536,13.9663127 0.0031433536,10.1523252 L0.0031433536,2.86927864 C0.0031433536,2.69351886 0.165848726,2.55071401 0.366837697,2.54632003 L0.847775604,2.53972904 C0.866917412,2.53972904 2.75238544,2.50457708 4.69527891,1.80373489 C6.69081235,1.08531673 7.97809891,0.257048701 7.99006252,0.248260711 L8.27479692,0.0637129336 C8.33940052,0.0219699844 8.41836049,4.4408921e-17 8.4949277,4.4408921e-17 C8.57149494,4.4408921e-17 8.64806217,0.0197729824 8.71266577,0.0615159316 L9.00218561,0.246063709 C9.01414924,0.254851699 10.3014358,1.08092273 12.2969692,1.79934091 C14.2422554,2.50018309 16.1277235,2.53533505 16.1468653,2.53533505 L16.6230177,2.54192604 C16.8240067,2.54632003 16.9867121,2.68912487 16.986712,2.86488466 L16.9914975,10.1523252 C16.9914975,13.9663127 11.4666933,18 8.4949277,18 Z M15.6802837,3.71731966 C14.9505023,3.66678872 13.4143722,3.49542292 11.818424,2.9198096 C10.1889777,2.33321129 8.99022197,1.67191506 8.4949277,1.38191138 C8.00202616,1.67191504 6.80327047,2.33321128 5.17382411,2.92200659 C3.58026863,3.49542292 2.04892402,3.66678872 1.30957172,3.71731966 L1.30957172,10.1523252 C1.30957172,13.1446357 6.12134357,16.8004394 8.4949277,16.8004394 C9.41373445,16.8004394 11.2082789,16.1193702 12.9717179,14.6254119 C14.6705533,13.1841816 15.6850691,11.5122666 15.6850691,10.1523252 L15.6802837,3.71731966 L15.6802837,3.71731966 Z M7.81539354,11.3738557 C7.68857907,11.4924936 7.52108825,11.5496155 7.35359744,11.5496155 C7.18610662,11.5496155 7.01861581,11.4902966 6.89180132,11.3738557 L4.93215879,9.57451482 C4.67852984,9.33943609 4.67852984,8.95935554 4.93215879,8.72647381 C5.18818047,8.49139508 5.60212205,8.49139508 5.855751,8.72647381 L7.35359744,10.1017942 L11.1388899,6.62614427 C11.3949115,6.39106553 11.8088531,6.39106553 12.0624821,6.62614427 C12.3185038,6.859026 12.3185038,7.23910655 12.0624821,7.47418528 L7.81539354,11.3738557 Z" id="Shape"></path>
                </g>
            </g>
        </g>
    </g>
</svg>