<?xml version="1.0" encoding="UTF-8"?>
<svg width="13px" height="18px" viewBox="0 0 13 18" version="1.1" xmlns="http://www.w3.org/2000/svg" xmlns:xlink="http://www.w3.org/1999/xlink">
    <!-- Generator: Sketch 43.1 (39012) - http://www.bohemiancoding.com/sketch -->
    <title>手机</title>
    <desc>Created with Sketch.</desc>
    <defs></defs>
    <g id="Page-1" stroke="none" stroke-width="1" fill="none" fill-rule="evenodd">
        <g id="输入手机号码-copy" transform="translate(-37.000000, -543.000000)" fill-rule="nonzero" fill="#9B9B9B">
            <g id="输入手机号" transform="translate(15.000000, 528.000000)">
                <g id="手机" transform="translate(22.000000, 15.000000)">
                    <path d="M10.7634409,18 L2.23655914,18 C0.978494614,18 0,16.9615385 0,15.7846154 L0,2.28461539 C0,1.03846154 0.978494614,0 2.23655914,0 L10.7634409,0 C12.0215054,0 13,1.03846154 13,2.21538461 L13,15.7153846 C13,16.9615385 12.0215054,18 10.7634409,18 L10.7634409,18 L10.7634409,18 Z M11.8817204,2.28461539 C11.8817204,1.66153846 11.3924731,1.17692307 10.7634408,1.17692307 L2.23655914,1.17692307 C1.60752688,1.17692307 1.11827956,1.66153846 1.11827956,2.28461539 L1.11827956,2.83846154 L11.8817204,2.83846154 L11.8817204,2.28461539 L11.8817204,2.28461539 L11.8817204,2.28461539 Z M11.8817204,3.94615385 L1.11827958,3.94615385 L1.11827958,12.9461539 L11.8817204,12.9461539 L11.8817204,3.94615385 L11.8817204,3.94615385 L11.8817204,3.94615385 Z M11.8817204,14.0538461 L1.11827958,14.0538461 L1.11827958,15.7153846 C1.11827958,16.3384615 1.60752689,16.8230769 2.23655915,16.8230769 L10.7634409,16.8230769 C11.3924731,16.8230769 11.8817205,16.3384615 11.8817205,15.7153846 L11.8817204,14.0538461 L11.8817204,14.0538461 L11.8817204,14.0538461 Z M6.5,16.3384615 C6.01075268,16.3384615 5.66129033,15.9923077 5.66129033,15.5076923 C5.66129033,15.0230769 6.0107527,14.6769231 6.5,14.6769231 C6.98924732,14.6769231 7.33870967,15.0230769 7.33870967,15.5076923 C7.33870967,15.9923077 6.98924732,16.3384615 6.5,16.3384615 L6.5,16.3384615 L6.5,16.3384615 Z"></path>
                </g>
            </g>
        </g>
    </g>
</svg>