<?xml version="1.0" encoding="UTF-8"?>
<svg width="85px" height="85px" viewBox="0 0 85 85" version="1.1" xmlns="http://www.w3.org/2000/svg" xmlns:xlink="http://www.w3.org/1999/xlink">
    <!-- Generator: Sketch 43.2 (39069) - http://www.bohemiancoding.com/sketch -->
    <title>icon-选颜色</title>
    <desc>Created with Sketch.</desc>
    <defs>
        <circle id="path-1" cx="42.5" cy="42.5" r="37.5"></circle>
        <filter x="-10.0%" y="-10.0%" width="120.0%" height="120.0%" filterUnits="objectBoundingBox" id="filter-2">
            <feOffset dx="0" dy="0" in="SourceAlpha" result="shadowOffsetOuter1"></feOffset>
            <feGaussianBlur stdDeviation="2.5" in="shadowOffsetOuter1" result="shadowBlurOuter1"></feGaussianBlur>
            <feColorMatrix values="0 0 0 0 0.960784314   0 0 0 0 0.2   0 0 0 0 0.290196078  0 0 0 0.5 0" type="matrix" in="shadowBlurOuter1"></feColorMatrix>
        </filter>
    </defs>
    <g id="H5v1.0个性设计" stroke="none" stroke-width="1" fill="none" fill-rule="evenodd">
        <g id="1.0个性设计首页-部位展示" transform="translate(-223.000000, -479.000000)">
            <g id="选颜色" transform="translate(223.000000, 479.000000)">
                <g id="icon-选颜色">
                    <g id="Oval-2">
                        <use fill="black" fill-opacity="1" filter="url(#filter-2)" xlink:href="#path-1"></use>
                        <use fill="#FFFFFF" fill-rule="evenodd" xlink:href="#path-1"></use>
                    </g>
                    <g id="颜色" transform="translate(25.000000, 25.000000)" fill-rule="nonzero" fill="#F5334A">
                        <path d="M28.2029101,17.0299965 C26.6477837,17.0299965 25.2862302,15.7046728 25.2862302,14.196737 C25.2862302,12.6860274 26.6478234,11.3635931 28.2029101,11.3635931 C29.758433,11.3635931 31.119471,12.686066 31.119471,14.196737 C31.11959,15.7046728 29.7583141,17.0299965 28.2029101,17.0299965 Z M22.3698676,9.47352062 C20.8143446,9.47352062 19.4531877,8.15081661 19.4531877,6.64014555 C19.4531877,5.12947449 20.8143446,3.80688606 22.3698676,3.80688606 C23.924994,3.80688606 25.2862302,5.12959006 25.2862302,6.64014555 C25.2862302,8.15085514 23.924994,9.47352062 22.3698676,9.47352062 Z M12.6484341,9.47352062 C11.0904127,9.47352062 9.73187322,8.15081661 9.73187322,6.64014555 C9.73187322,5.12947449 11.0904127,3.80688606 12.6484341,3.80688606 C14.2035605,3.80688606 15.565114,5.12959006 15.565114,6.64014555 C15.565114,8.15085514 14.2035208,9.47352062 12.6484341,9.47352062 Z M6.81507436,17.0299965 C5.2573702,17.0299965 3.89871174,15.7046728 3.89871174,14.196737 C3.89871174,12.6860274 5.25725122,11.3635931 6.81507436,11.3635931 C8.3705973,11.3635931 9.73163527,12.686066 9.73163527,14.196737 C9.73175424,15.7046728 8.37067662,17.0299965 6.81507436,17.0299965 L6.81507436,17.0299965 Z M17.5077033,0.0300542986 C7.78646816,0.0300542986 0.00762400906,7.58629904 0.00762400906,17.0301121 C0.00762400906,26.4739251 7.78646816,34.0300543 17.5077033,34.0300543 C19.0657248,34.0300543 20.4242642,32.7047305 20.4242642,31.1966792 C20.4242642,30.4384928 20.2307311,29.8713555 19.649616,29.3071846 C19.2562042,28.7398547 18.8691379,28.1724862 18.8691379,27.419963 C18.8691379,25.9064411 20.2307311,24.5867036 21.7858178,24.5867036 L25.2860716,24.5867036 C30.7322857,24.5867036 35.007624,20.430663 35.007624,15.1403863 C35.007624,6.82834376 27.2316749,0.0300928244 17.5076637,0.0300928244 L17.5077033,0.0300542986 Z" id="Shape"></path>
                    </g>
                </g>
            </g>
        </g>
    </g>
</svg>