<?xml version="1.0" encoding="UTF-8"?>
<svg width="24px" height="20px" viewBox="0 0 24 20" version="1.1" xmlns="http://www.w3.org/2000/svg" xmlns:xlink="http://www.w3.org/1999/xlink">
    <!-- Generator: Sketch 43.2 (39069) - http://www.bohemiancoding.com/sketch -->
    <title>Rectangle 8</title>
    <desc>Created with Sketch.</desc>
    <defs></defs>
    <g id="首页" stroke="none" stroke-width="1" fill="none" fill-rule="evenodd">
        <g id="1.9设计详情" transform="translate(-18.000000, -652.000000)">
            <g id="部位材料及价格" transform="translate(15.000000, 605.000000)">
                <g id="鞋款" transform="translate(0.000000, 42.000000)">
                    <g id="鞋款icon">
                        <path d="M19.2758813,25 C17.3522912,25 15.3566763,24.7577634 13.8037506,23.0001821 C13.067692,22.171478 12.5459511,21.1715691 12.0417773,20.204444 C11.5903046,19.3393134 11.1230215,18.4468628 10.5029053,17.6618705 C10.4414206,17.5835534 10.379936,17.503415 10.314938,17.4178126 C9.95657054,16.9497314 9.51212462,16.3669065 8.8480908,15.9826063 L8.6320163,15.858756 L8.6320163,24.3315727 C8.6320163,24.6484837 8.44580575,24.9708588 8.0909517,24.9708588 L5.68953836,24.9672161 C5.35576475,24.9672161 5.07820563,24.6794463 5.07293552,24.3242874 C5.03428805,21.9201348 4.89023839,18.7601311 4.13309929,15.6602313 C4.01364347,15.1575449 3.84675666,14.6530371 3.68689666,14.1649212 C3.44095821,13.4181769 3.18623624,12.6477552 3.08786086,11.8773336 C2.79976153,9.66442036 3.2213703,7.82305801 4.33512016,6.40424369 C4.69348762,5.94891176 5.4400865,5 6.15330802,5 C6.24289988,5 6.33249175,5.01457062 6.4150568,5.04371187 C7.4427282,5.41526273 8.29999938,6.59184045 8.98862706,7.53528823 C9.09051584,7.67553046 9.18713452,7.80848739 9.2819965,7.934159 C10.3553422,9.36754394 11.4673353,10.9867043 12.6864874,12.8808852 C12.8393206,13.1213004 13.0009373,13.379929 13.1695808,13.6549495 C14.3887328,15.6292687 15.9065244,18.0862399 18.0848365,18.0862399 L18.0848365,18.0862399 C18.6627918,18.0862399 19.2618276,17.9059284 19.8643768,17.5489482 C19.9100511,17.5179856 19.9539687,17.497951 20.0031564,17.4779164 C20.0751812,17.4469538 20.1384225,17.4305619 20.1981505,17.4269192 L20.2051773,17.4269192 L20.2122041,17.4269192 C20.2947691,17.4123486 20.3826043,17.4050633 20.4686828,17.4050633 C21.2591992,17.4050633 22.0989034,17.936891 22.8384754,18.4067936 C23.0211726,18.5215372 23.1950862,18.6308169 23.3602163,18.7291686 C24.1981637,19.2227484 25.0782721,19.7618614 25.8301411,20.4503233 C26.5767399,21.1278572 27.3532028,22.1496221 26.8279485,23.1422457 C25.9460835,24.8124032 22.9561745,24.9016483 21.1660939,24.9526455 C20.9974504,24.9562881 20.8411038,24.9617521 20.6935408,24.9690374 C20.2631485,24.9817867 19.7624881,25 19.2758813,25 L19.2758813,25 Z" id="Shape" fill="#333333" fill-rule="nonzero"></path>
                        <rect id="Rectangle-8" fill-opacity="0" fill="#D8D8D8" x="0" y="0" width="30" height="30"></rect>
                    </g>
                </g>
            </g>
        </g>
    </g>
</svg>