<?xml version="1.0" encoding="UTF-8"?>
<svg width="17px" height="17px" viewBox="0 0 17 17" version="1.1" xmlns="http://www.w3.org/2000/svg" xmlns:xlink="http://www.w3.org/1999/xlink">
    <!-- Generator: Sketch 43.2 (39069) - http://www.bohemiancoding.com/sketch -->
    <title>提示 (2)</title>
    <desc>Created with Sketch.</desc>
    <defs></defs>
    <g id="我的" stroke="none" stroke-width="1" fill="none" fill-rule="evenodd">
        <g id="1.5设计详情-款式或用料下架" transform="translate(-17.000000, -116.000000)">
            <g id="提示" transform="translate(0.000000, 104.000000)">
                <g id="提示-(2)" transform="translate(17.000000, 12.000000)">
                    <path d="M15.9947411,8.49934996 C15.9947411,12.6343617 12.634349,15.9984865 8.50400218,15.9984865 C4.37365531,15.9984865 1.01328049,12.6343617 1.01328049,8.49934996 C1.01328049,4.36437267 4.37367251,1.00021338 8.50400219,1.00021338 C12.6343319,1.00021338 15.9947411,4.36437267 15.9947411,8.49934996 Z" id="Shape" stroke="#F5334A" fill-rule="nonzero"></path>
                    <path d="M9.30125615,12.6516262 C9.30125615,13.169348 8.88200429,13.5890699 8.36491379,13.5890699 C7.84782331,13.5890699 7.42857143,13.169348 7.42857143,12.6516262 C7.42857143,12.1339904 7.84782329,11.7142857 8.36491379,11.7142857 C8.88200427,11.7142857 9.30125615,12.1340076 9.30125615,12.6516262 Z" id="Path" fill="#F5334A" transform="translate(8.364914, 12.651678) scale(1, -1) translate(-8.364914, -12.651678) "></path>
                    <path d="M9.30125615,5.15167779 L9.30125615,9.03523096 C9.30125615,9.55290114 8.88200429,9.97262303 8.36491379,9.97262303 C7.84782331,9.97262303 7.42857143,9.55290115 7.42857143,9.03523096 L7.42857143,5.15167779 C7.42857143,4.63400761 7.84782329,4.21428571 8.36491379,4.21428571 C8.88200427,4.21428571 9.30125615,4.63400761 9.30125615,5.15167779 Z" id="Path" fill="#F5334A" transform="translate(8.364914, 7.093454) scale(1, -1) translate(-8.364914, -7.093454) "></path>
                </g>
            </g>
        </g>
    </g>
</svg>