<?xml version="1.0" encoding="UTF-8"?>
<svg width="12px" height="16px" viewBox="0 0 12 16" version="1.1" xmlns="http://www.w3.org/2000/svg" xmlns:xlink="http://www.w3.org/1999/xlink">
    <!-- Generator: Sketch 43.2 (39069) - http://www.bohemiancoding.com/sketch -->
    <title>删除设计-默认</title>
    <desc>Created with Sketch.</desc>
    <defs></defs>
    <g id="我的" stroke="none" stroke-width="1" fill="none" fill-rule="evenodd">
        <g id="1.2设计详情页" transform="translate(-244.000000, -513.000000)" fill-rule="nonzero">
            <g id="删除设计" transform="translate(205.000000, 501.000000)">
                <g id="Group-3" transform="translate(39.000000, 10.000000)">
                    <g id="删除设计-默认" transform="translate(0.000000, 2.000000)">
                        <path d="M4.35576136,1.57824513 L0.886039773,1.57824513 C0.403482955,1.57824513 0.00480681818,2.00219931 0.00480681818,2.52486598 C0.00480681818,3.05132646 0.399289773,3.47148683 0.886039773,3.47148683 L11.1075511,3.47148683 C11.590108,3.47148683 11.9887841,3.04753265 11.9887841,2.52486598 C11.9887841,1.99838717 11.5943011,1.57824513 11.1075511,1.57824513 L7.63782955,1.57824513 C7.56223295,0.693626575 6.85627841,0.000403207331 5.99674432,0.000403207331 C5.13721023,0.000403207331 4.43135795,0.693681558 4.35565909,1.57824513 L4.35576136,1.57824513 Z" id="Shape" fill="#333333"></path>
                        <path d="M0.583585227,4.06064605 L0.583585227,14.1866117 C0.583585227,14.1866117 0.733414773,15.6313219 2.08165909,15.9927606 L10.1706648,15.9927606 C10.1706648,15.9927606 11.5189261,15.4503368 11.6687386,14.1847973 L11.6687386,4.06029782 L0.583568182,4.06029782 L0.583585227,4.06064605 Z" id="Shape" fill="#333333"></path>
                        <path d="M3.67522159,12.5406094 C3.67522159,12.7775853 3.50364205,12.9699702 3.29197159,12.9699702 C3.08030114,12.9699702 2.90872159,12.7778236 2.90872159,12.5406094 L2.90872159,5.59048797 C2.90872159,5.35332875 3.08030114,5.16112715 3.29197159,5.16112715 C3.50364205,5.16112715 3.67522159,5.35327377 3.67522159,5.59048797 L3.67522159,12.5406094 Z" id="Shape" fill="#FFFFFF"></path>
                        <path d="M7.2526875,10.9596151 C7.2526875,11.1965911 7.08110795,11.3889759 6.8694375,11.3889759 C6.65776705,11.3889759 6.4861875,11.1968293 6.4861875,10.9596151 L6.4861875,5.59061627 C6.4861875,5.35345704 6.65776705,5.16125544 6.8694375,5.16125544 C7.08110795,5.16125544 7.2526875,5.35340206 7.2526875,5.59061627 L7.2526875,10.9596151 Z" id="Shape" fill="#FFFFFF"></path>
                    </g>
                </g>
            </g>
        </g>
    </g>
</svg>