<?xml version="1.0" encoding="UTF-8"?>
<svg width="16px" height="12px" viewBox="0 0 16 12" version="1.1" xmlns="http://www.w3.org/2000/svg" xmlns:xlink="http://www.w3.org/1999/xlink">
    <!-- Generator: Sketch 43.2 (39069) - http://www.bohemiancoding.com/sketch -->
    <title>icon_viewAll</title>
    <desc>Created with Sketch.</desc>
    <defs></defs>
    <g id="v1.0" stroke="none" stroke-width="1" fill="none" fill-rule="evenodd">
        <g id="1.18设计师主页-动态最多显示20条" transform="translate(-212.000000, -241.000000)">
            <g id="Group" transform="translate(0.000000, 55.000000)">
                <g id="文章01-copy" transform="translate(0.000000, 100.000000)">
                    <g id="Group-4" transform="translate(146.000000, 83.000000)">
                        <g id="icon_viewAll" transform="translate(66.000000, 1.000000)">
                            <g transform="translate(0.000000, 2.400000)" id="Shape" fill="#9B9B9B">
                                <path d="M8,0.188747731 C4.607546,0.188747731 1.65331073,2.13233748 0.181818182,4.99591652 C0.181818182,4.99591652 0.0592075091,5.25021822 0.0284090909,5.32622505 C0.0101824545,5.37120646 0,5.42182407 0,5.47368421 C0,5.52493016 0.0105890909,5.57659117 0.0284090909,5.62114338 C0.0590003091,5.69762584 0.181818182,5.93965517 0.181818182,5.93965517 C1.65240618,8.80582439 4.60582855,10.7586207 8,10.7586207 C11.3941715,10.7586207 14.3475938,8.80582722 15.8181818,5.93965517 C15.8181818,5.93965517 15.9409996,5.69762396 15.9715909,5.62114338 C15.9894109,5.57659891 16,5.52492922 16,5.47368421 C16,5.42181633 15.9898175,5.37120363 15.9715909,5.32622505 C15.9407925,5.25021633 15.8181818,4.99591652 15.8181818,4.99591652 C14.3466893,2.13233786 11.392454,0.188747731 8,0.188747731 L8,0.188747731 Z M8,0.943738657 C11.1668971,0.943738657 13.88955,2.78973677 15.2159091,5.46778584 C13.8902671,8.14811688 11.1683778,10.0036298 8,10.0036298 C4.83162218,10.0036298 2.10973291,8.14811688 0.784090909,5.46778584 C2.11045,2.78973111 4.83310291,0.943738657 8,0.943738657 L8,0.943738657 Z M8,2.45372051 C6.39766182,2.45372051 5.09090909,3.81026744 5.09090909,5.47368421 C5.09090909,7.13708022 6.39765836,8.49364791 8,8.49364791 C9.60234164,8.49364791 10.9090909,7.13708022 10.9090909,5.47368421 C10.9090909,3.81026367 9.60233818,2.45372051 8,2.45372051 L8,2.45372051 Z M8,3.20871143 C9.209292,3.20871143 10.1818182,4.21829096 10.1818182,5.47368421 C10.1818182,6.72904537 9.20928855,7.73865699 8,7.73865699 C6.79071145,7.73865699 5.81818182,6.72904537 5.81818182,5.47368421 C5.81818182,4.21829474 6.790708,3.20871143 8,3.20871143 L8,3.20871143 Z"></path>
                            </g>
                            <rect id="Rectangle-2" fill="#FFFFFF" opacity="0" x="0" y="0" width="16" height="16"></rect>
                        </g>
                    </g>
                </g>
            </g>
        </g>
    </g>
</svg>