<?xml version="1.0" encoding="UTF-8"?>
<svg width="14px" height="16px" viewBox="0 0 14 16" version="1.1" xmlns="http://www.w3.org/2000/svg" xmlns:xlink="http://www.w3.org/1999/xlink">
    <!-- Generator: Sketch 44.1 (41455) - http://www.bohemiancoding.com/sketch -->
    <title>推荐 (9) copy 2</title>
    <desc>Created with Sketch.</desc>
    <defs></defs>
    <g id="----" stroke="none" stroke-width="1" fill="none" fill-rule="evenodd">
        <g id="1.3选部位材质" transform="translate(-75.000000, -590.000000)" fill-rule="nonzero">
            <g id="颜色" transform="translate(0.000000, 584.000000)">
                <g id="推荐-(9)-copy-2" transform="translate(75.000000, 6.000000)">
                    <g id="Group">
                        <polygon id="Shape" fill="#22BCB8" points="0.00394465409 0.0115895372 0.00394465409 16 7.00063396 13.2968048 13.9973233 16 13.9973233 0.0115895372 0.00394465409 0.0115895372"></polygon>
                        <path d="M5.43178868,4.354833 C5.43178868,4.48669618 5.42277233,4.68449095 5.39572327,4.9647002 L6.09899874,4.9647002 C6.07194969,4.70921529 6.06293333,4.50317907 6.06293333,4.354833 L8.10964528,4.354833 C8.10964528,4.50317907 8.10062893,4.70921529 8.07357987,4.9647002 L8.77685535,4.9647002 C8.74980629,4.66800805 8.74078994,4.46197183 8.74078994,4.354833 L9.83176855,4.354833 C10.1383245,4.354833 10.5260277,4.36307445 10.994878,4.38779879 L10.994878,3.81089738 C10.4989786,3.83562173 10.1112755,3.84386318 9.83176855,3.84386318 L8.74078994,3.84386318 C8.74078994,3.62958551 8.74980629,3.38234205 8.77685535,3.1021328 L8.07357987,3.1021328 C8.10062893,3.38234205 8.10964528,3.62958551 8.10964528,3.84386318 L6.07194969,3.84386318 C6.07194969,3.62958551 6.08096604,3.38234205 6.10801509,3.1021328 L5.40473962,3.1021328 C5.43178868,3.38234205 5.44080503,3.62958551 5.44080503,3.84386318 L4.38589182,3.84386318 C4.10638491,3.84386318 3.75474717,3.83562173 3.33097862,3.81089738 L3.33097862,4.38779879 C3.77277987,4.36307445 4.13343396,4.354833 4.38589182,4.354833 L5.43178868,4.354833 L5.43178868,4.354833 Z M8.88505157,8.05524346 L8.88505157,8.05524346 L8.88505157,8.07172636 L9.75963774,8.07172636 C10.1834063,8.07172636 10.6071748,8.06348491 11.0309434,8.03876056 L11.0309434,8.61566197 C10.6252075,8.59093763 10.201439,8.58269618 9.75963774,8.58269618 L8.87603522,8.58269618 L8.87603522,9.80243058 C8.87603522,10.0743984 8.76783899,10.2639517 8.54243019,10.3463662 C8.31702138,10.4287807 7.92030189,10.4947123 7.36128805,10.5359195 C7.36128805,10.3628491 7.25309182,10.14033 7.04571572,9.86012072 C7.46948428,9.88484507 7.7670239,9.89308652 7.92931824,9.89308652 C8.11866164,9.89308652 8.20882516,9.77770624 8.20882516,9.53870423 L8.20882516,8.57445473 L6.87440503,8.57445473 C6.56784906,8.57445473 6.24326038,8.58269618 5.89162264,8.60742052 L5.89162264,8.03051911 C6.24326038,8.05524346 6.58588176,8.06348491 6.91047044,8.06348491 L8.1817761,8.06348491 C8.1817761,7.93162173 8.17275975,7.7915171 8.14571069,7.64317103 C8.47931572,7.51130785 8.7858717,7.34647887 9.06537862,7.15692555 L7.40636981,7.15692555 C7.05473208,7.15692555 6.67604528,7.165167 6.27932579,7.18989135 L6.27932579,6.61298994 C6.67604528,6.63771429 7.08178113,6.64595573 7.47850063,6.64595573 L10.4719296,6.64595573 L10.4719296,7.15692555 C10.2104553,7.1981328 9.95799748,7.28054728 9.71455597,7.39592757 C9.46209811,7.5195493 9.19160755,7.65965392 8.88505157,7.83272435 L8.88505157,8.05524346 Z M5.46785409,7.05802817 L5.46785409,7.05802817 L5.45883774,7.05802817 L5.45883774,9.34090946 C5.45883774,9.75298189 5.46785409,10.14033 5.49490314,10.5029537 L4.75556226,10.5029537 C4.78261132,10.1320885 4.79162767,9.74474044 4.79162767,9.34090946 L4.79162767,7.66789537 C4.34982642,8.0964507 3.89900881,8.4673159 3.45720755,8.76400805 C3.31294591,8.57445473 3.13261887,8.37665996 2.92524277,8.18710664 C3.41212579,7.95634608 3.88999245,7.64317103 4.34982642,7.25582294 C4.80966038,6.86847485 5.22441258,6.45640241 5.60309937,6.00312274 L4.51212075,6.00312274 C4.20556478,6.00312274 3.81786164,6.01136419 3.34901132,6.03608853 L3.34901132,5.45918712 C3.77277987,5.48391147 4.12441761,5.49215292 4.40392453,5.49215292 L5.95473711,5.49215292 C6.11703145,5.22842656 6.26129308,4.9647002 6.37850566,4.68449095 C6.63997987,4.80811268 6.91948679,4.90701006 7.22604277,4.97294165 C7.00965031,5.12128773 6.84735597,5.29435815 6.7301434,5.48391147 L9.51619623,5.48391147 C9.89488302,5.48391147 10.3186516,5.47567002 10.7875019,5.45094567 L10.7875019,6.02784708 C10.3096352,6.00312274 9.89488302,5.99488129 9.51619623,5.99488129 L6.41457107,5.99488129 C6.13506415,6.31629779 5.81949182,6.67068008 5.46785409,7.05802817 Z" id="Combined-Shape" fill="#FFFFFF"></path>
                    </g>
                </g>
            </g>
        </g>
    </g>
</svg>