<?xml version="1.0" encoding="UTF-8"?>
<svg width="40px" height="25px" viewBox="0 0 40 25" version="1.1" xmlns="http://www.w3.org/2000/svg" xmlns:xlink="http://www.w3.org/1999/xlink">
    <!-- Generator: Sketch 44.1 (41455) - http://www.bohemiancoding.com/sketch -->
    <title>重置-不可点击</title>
    <desc>Created with Sketch.</desc>
    <defs></defs>
    <g id="H5v1.0个性设计02" stroke="none" stroke-width="1" fill="none" fill-rule="evenodd">
        <g id="Artboard" transform="translate(-119.000000, -33.000000)" fill="#616161">
            <path d="M122.87773,47.9999672 C121.577709,48.0059533 120.383509,47.1926629 119.295129,45.5600958 C117.53485,40.7599687 123.648869,37.6951704 137.637186,36.3657012 L137.637186,33 L147,38.5821401 L137.433087,43.8166802 L137.433087,40.9667894 C130.308261,41.0559827 125.553053,41.7868891 123.167462,43.1595085 C120.781871,44.5321278 120.685294,46.1456141 122.87773,47.9999672 Z M155.12227,43.0000328 C156.422291,42.9940467 157.616491,43.8073371 158.704871,45.4399042 C160.46515,50.2400313 154.351131,53.3048296 140.362814,54.6342988 L140.362814,58 L131,52.4178599 L140.566913,47.1833198 L140.566913,50.0332106 C147.691739,49.9440173 152.446947,49.2131109 154.832538,47.8404915 C157.218129,46.4678722 157.314706,44.8543859 155.12227,43.0000328 Z" id="重置-不可点击"></path>
        </g>
    </g>
</svg>