<?xml version="1.0" encoding="UTF-8"?>
<svg width="30px" height="30px" viewBox="0 0 30 30" version="1.1" xmlns="http://www.w3.org/2000/svg" xmlns:xlink="http://www.w3.org/1999/xlink">
    <!-- Generator: Sketch 44.1 (41455) - http://www.bohemiancoding.com/sketch -->
    <title>归0</title>
    <desc>Created with Sketch.</desc>
    <defs></defs>
    <g id="购买流程" stroke="none" stroke-width="1" fill="none" fill-rule="evenodd">
        <g id="1.1设计详情页" transform="translate(-327.000000, -124.000000)">
            <g id="归0" transform="translate(327.000000, 124.000000)">
                <path d="M8.67396076,14.5921872 C4.12048966,15.4998325 1,17.3567534 1,19.5 C1,21.9790371 5.17488482,24.0750006 10.9132237,24.7619711 C11.3799645,24.8178474 14.9863896,25.0778208 15.4724121,25.114502 M19.2015343,24.7480194 C24.8806917,24.0469883 29,21.9624812 29,19.5 C29,17.4025907 26.0115582,15.5793911 21.6162103,14.6517185" id="Oval" stroke="#333333" stroke-width="1.5" stroke-linecap="round"></path>
                <polyline id="Path-3" stroke="#333333" stroke-width="1.5" stroke-linecap="round" stroke-linejoin="round" points="11.2333984 20.6933594 15.6252447 25.0852056 11.2333984 29.0019951"></polyline>
                <path d="M14.9910901,17.828125 C17.1942151,17.828125 18.9821615,16.0334821 18.9821615,13.8370536 L18.9821615,7.99107143 C18.9821615,5.78794643 17.1875187,4 14.9910901,4 C12.7946615,4 11.0000187,5.79464286 11.0000187,7.99107143 L11.0000187,13.8370536 C10.9933223,16.0334821 12.7879651,17.828125 14.9910901,17.828125 Z M13.1361794,7.99107143 C13.1361794,6.97321429 13.9665365,6.14285714 14.9843937,6.14285714 C16.0022508,6.14285714 16.832608,6.97321429 16.832608,7.99107143 L16.832608,13.8370536 C16.832608,14.8549107 16.0022508,15.6852679 14.9843937,15.6852679 C13.9665365,15.6852679 13.1361794,14.8549107 13.1361794,13.8370536 L13.1361794,7.99107143 Z" id="Shape" fill="#333333" fill-rule="nonzero"></path>
                <path d="M19.1428571,4.28571429 C20.3214286,4.28571429 21.2857143,3.32142857 21.2857143,2.14285714 C21.2857143,0.964285714 20.3214286,0 19.1428571,0 C17.9642857,0 17,0.964285714 17,2.14285714 C17,3.32142857 17.9642857,4.28571429 19.1428571,4.28571429 Z M19.1428571,1.07142857 C19.7321429,1.07142857 20.2142857,1.55357143 20.2142857,2.14285714 C20.2142857,2.73214286 19.7321429,3.21428571 19.1428571,3.21428571 C18.5535714,3.21428571 18.0714286,2.73214286 18.0714286,2.14285714 C18.0714286,1.55357143 18.5535714,1.07142857 19.1428571,1.07142857 Z" id="Shape" fill="#333333" fill-rule="nonzero"></path>
            </g>
        </g>
    </g>
</svg>