<?xml version="1.0" encoding="UTF-8"?>
<svg width="60px" height="60px" viewBox="0 0 60 60" version="1.1" xmlns="http://www.w3.org/2000/svg" xmlns:xlink="http://www.w3.org/1999/xlink">
    <!-- Generator: Sketch 44.1 (41455) - http://www.bohemiancoding.com/sketch -->
    <title>shoelives_icon_60</title>
    <desc>Created with Sketch.</desc>
    <defs>
        <linearGradient x1="100%" y1="52.7943611%" x2="0%" y2="52.7943611%" id="linearGradient-1">
            <stop stop-color="#FF634E" offset="0%"></stop>
            <stop stop-color="#F10145" offset="100%"></stop>
        </linearGradient>
        <linearGradient x1="86.3708496%" y1="76.3641357%" x2="19.2626953%" y2="14.7964478%" id="linearGradient-2">
            <stop stop-color="#F53C33" offset="0%"></stop>
            <stop stop-color="#C52D93" offset="100%"></stop>
        </linearGradient>
    </defs>
    <g id="Page-1" stroke="none" stroke-width="1" fill="none" fill-rule="evenodd">
        <g id="ios_shoelives_icon" transform="translate(-160.000000, -10.000000)" fill-rule="nonzero">
            <g id="shoelives_icon_60" transform="translate(160.000000, 10.000000)">
                <g id="bg" fill="url(#linearGradient-2)">
                    <g id="Mask">
                        <rect id="path-2" x="0" y="0" width="60" height="60"></rect>
                    </g>
                </g>
                <g id="logo" transform="translate(9.230769, 7.846154)" fill="#FFFFFF">
                    <g id="Group" transform="translate(1.797705, 0.000000)">
                        <g id="Page-1" transform="translate(0.013924, 0.030453)">
                            <path d="M18.9446363,15.7565866 L12.3213088,10.2470684 L12.3219166,10.2463905 L0.00486885217,0 L0.00486885217,2.72290133 L8.56489682,9.84391266 C8.02249307,10.4705249 7.69393617,11.2888112 7.69393617,12.1842943 C7.69393617,12.7150318 7.81084922,13.2179033 8.01785912,13.6706909 L0.00486885217,13.6706909 L0.00486885217,13.8291514 L0.00486885217,15.7565866 L11.3586561,15.7565866 L18.9446363,15.7565866 Z" id="Fill-3"></path>
                            <path d="M25.6499548,11.2876514 L25.6499548,18.1339927 L18.0437675,18.1460429 L20.5528787,20.2331436 L37.1542326,20.2321646 L37.1542326,18.131206 L30.2793786,18.1339927 L30.2793786,11.2876514 L37.8867056,11.2876514 L37.8867056,9.20152969 L30.0693301,9.20152969 L30.0693301,1.7466515 L25.8600033,1.7466515 L25.8600033,9.20152969 C24.2202575,9.20152969 17.2723994,9.21350461 16.7382001,9.21350461 L19.2452602,11.2996263 C21.2185768,11.2996263 24.1343389,11.2876514 25.6499548,11.2876514" id="Fill-7"></path>
                        </g>
                    </g>
                    <path d="M8.17945307,22.2899646 L8.17102072,22.2899646 L8.17102072,26.8108363 L8.13007459,26.8108363 L5.71645377,26.8108363 L5.71645377,20.2520438 L8.13007459,20.2520438 L8.17945307,20.2520438 L8.17945307,22.2899646 Z M12.3887799,22.2899646 L12.3887799,20.2520438 L12.4360312,20.2520438 L14.8518551,20.2520438 L14.8518551,26.8108363 L12.4360312,26.8108363 L12.3887799,26.8108363 L12.3887799,22.2899646 Z M18.9457881,32.4839366 L12.3887799,32.4839366 L12.3887799,28.8706734 L12.4528199,28.8706734 L18.7587577,28.8706734 L18.7571623,18.1659221 L1.81000707,18.1659221 C1.81000707,18.1659221 1.80772806,28.1843372 1.80772806,28.8242801 L1.80772806,28.8706734 L8.12506078,28.8706734 L8.17102072,28.8706734 L8.17102072,32.4839366 L0.00374172287,32.4839366 L0.00374172287,34.5700583 L8.17102072,34.5700583 L8.17945307,44.1091753 L12.3887799,44.1091753 L12.3887799,34.5700583 L21.453684,34.5700583 L18.9457881,32.4839366 Z" id="Fill-1"></path>
                    <polygon id="Fill-5" points="32.0909845 39.9322399 32.085135 31.5491923 38.9658384 31.573594 38.9658384 29.4874723 31.8750865 29.4630706 31.880936 22.6429386 27.6716092 22.6429386 27.6656838 29.4630706 19.8542338 29.4874723 22.3621296 31.573594 27.4557113 31.5491923 27.4615607 39.9322399 17.4488933 39.9566416 19.9567891 42.0427633 41.5022977 42.0427633 41.5022977 39.9566416"></polygon>
                </g>
            </g>
        </g>
    </g>
</svg>