<?xml version="1.0" encoding="UTF-8"?>
<svg width="85px" height="85px" viewBox="0 0 85 85" version="1.1" xmlns="http://www.w3.org/2000/svg" xmlns:xlink="http://www.w3.org/1999/xlink">
    <!-- Generator: Sketch 43.2 (39069) - http://www.bohemiancoding.com/sketch -->
    <title>icon-换款式</title>
    <desc>Created with Sketch.</desc>
    <defs>
        <circle id="path-1" cx="42.5" cy="42.5" r="37.5"></circle>
        <filter x="-10.0%" y="-10.0%" width="120.0%" height="120.0%" filterUnits="objectBoundingBox" id="filter-2">
            <feOffset dx="0" dy="0" in="SourceAlpha" result="shadowOffsetOuter1"></feOffset>
            <feGaussianBlur stdDeviation="2.5" in="shadowOffsetOuter1" result="shadowBlurOuter1"></feGaussianBlur>
            <feColorMatrix values="0 0 0 0 0.960784314   0 0 0 0 0.2   0 0 0 0 0.290196078  0 0 0 0.5 0" type="matrix" in="shadowBlurOuter1"></feColorMatrix>
        </filter>
    </defs>
    <g id="H5v1.0个性设计" stroke="none" stroke-width="1" fill="none" fill-rule="evenodd">
        <g id="1.0个性设计首页-部位展示" transform="translate(-68.000000, -479.000000)">
            <g id="换款式" transform="translate(68.000000, 479.000000)">
                <g id="icon-换款式">
                    <g id="Oval-2">
                        <use fill="black" fill-opacity="1" filter="url(#filter-2)" xlink:href="#path-1"></use>
                        <use fill="#FFFFFF" fill-rule="evenodd" xlink:href="#path-1"></use>
                    </g>
                    <path d="M58.4256921,52.5866437 C57.0599577,52.0836234 56.0985288,51.7271138 55.236973,51.4334818 C55.3518872,50.4939815 55.4884606,49.5880566 55.6484982,48.8426831 C56.2946651,45.8117415 58.2301575,40.7137772 58.7120752,40.1429957 C58.7896874,40.0337231 58.7704348,39.987328 58.7427591,39.9708455 C58.7427591,39.9708455 59.7174242,36.2049083 57.6718308,32.829056 C55.6286439,29.4525932 55.8452362,29.868928 55.3055605,28.8952418 C55.3055605,28.8952418 55.1641739,28.6205342 54.8663596,28.5539938 C54.9150928,28.5484997 54.9602162,28.543616 55.0089495,28.5405637 C54.9548014,28.5423951 54.9066698,28.5454474 54.8531234,28.5509415 C54.7917556,28.5381218 54.7261763,28.5320172 54.6533772,28.5405637 C54.5541058,28.5539938 54.4271586,28.6083249 54.2707309,28.7053883 C54.0782045,28.8006203 53.9223784,28.9550671 53.7575276,29.0905895 C53.7256404,29.1198917 53.6931516,29.1504148 53.6600611,29.1803274 C53.5553749,29.2706757 53.4470787,29.36896 53.3285546,29.4818954 C53.1282068,29.670528 52.9284606,29.8597711 52.7323243,30.0532874 C52.0711163,30.7186905 51.4345758,31.4097329 50.8148813,32.1135951 L47.0768602,36.3215065 L46.1617579,37.3916455 C45.8639436,37.7597538 45.5865852,38.13824 45.3086251,38.5148948 L45.1708484,38.7047483 C44.3333584,39.7584049 43.6498895,40.7504049 43.023577,41.6660972 C42.6824442,42.1367631 42.3425147,42.606208 41.9935605,43.0713797 C41.6440047,43.5365514 41.3088884,44.0194265 40.93647,44.4650634 C40.6988202,44.7300037 40.4479342,44.9778511 40.1880235,45.217152 C40.0851422,45.0596529 39.970228,44.8795668 39.8462891,44.6842191 C40.0009119,44.5316037 40.1519248,44.3765465 40.2975229,44.2141637 C40.6549001,43.7874511 40.9803901,43.3235003 41.3137015,42.8754215 C40.7090482,42.5775163 39.5015464,42.082432 38.2591492,42.0787692 C37.3259976,40.5275865 36.347121,38.8836135 35.7490858,37.9373982 C34.5157133,35.9869735 29.3259224,28.2060308 28.4547403,28.0112935 C28.4547403,28.0112935 28.0859318,27.8501317 27.2177579,28.7719286 C26.3501857,29.6906732 25.0361927,31.7668529 24.0037697,33.4437908 C23.25051,34.6653243 22.7511445,36.1530191 23.2372738,37.5778363 C23.1747027,37.9758572 23.2529166,38.8140209 24.3082021,40.2376172 C25.874886,42.3589711 27.783906,46.03456 27.9583831,48.8225378 C28.1075911,51.2131052 28.192423,55.0535188 28.2152855,56.2933662 L28.1954313,57.3280985 C28.1954313,57.3280985 28.2580024,57.5405391 28.5702562,57.5606843 C28.8085076,57.5771668 29.3457767,57.5832714 29.3457767,57.5832714 C29.3457767,57.5832714 29.5052127,57.589376 29.5990693,57.565568 L29.5990693,57.5680098 C29.5990693,57.5680098 29.6020776,57.565568 29.6068907,57.5631262 C29.6321598,57.5570215 29.6496075,57.5478646 29.6592338,57.5344345 C29.7085687,57.5008591 29.7927991,57.4392025 29.9365922,57.3128369 C30.0497015,57.2115003 30.0394736,57.1492332 30.0394736,57.1492332 C30.0394736,57.1492332 30.0497015,56.1999655 30.0340588,56.1883668 C30.0172127,54.0126818 29.9678778,47.8671655 30.0202209,46.7762708 C30.0515065,46.1108677 30.2410247,45.5455803 30.4227215,45.1451175 C30.6724042,45.5065108 30.9040376,45.8819446 31.1380776,46.2518843 C31.5754736,46.9636825 31.9948202,47.685248 32.4039389,48.4123077 C33.2438355,49.8560492 33.9748343,51.3535114 34.7575746,52.8369329 C35.2208414,53.7013465 35.7015558,54.5682018 36.2508578,55.3886622 C36.535436,55.9038917 36.9740353,56.5918818 37.7008226,57.216384 C38.2362867,57.7566425 38.8571845,58.2358548 39.5948014,58.4934695 C39.9822609,58.6332652 40.3931845,58.763904 40.8119295,58.8298338 C41.2288696,58.9000369 41.6470129,58.9262868 42.0621481,58.9476529 C42.8954266,58.9726818 43.7190787,58.9775655 44.5499506,58.9513157 C45.3796193,58.9201822 46.2038731,58.8689034 47.0311351,58.8139618 C48.6796428,58.6961428 50.3275488,58.5697772 51.9730482,58.4110572 C53.6191492,58.2535582 55.2634454,58.0881231 56.9059365,57.9092578 L58.2873137,57.7389391 C59.3606486,57.6461489 60.0260682,57.5863237 60.0260682,57.5863237 C60.0260682,57.5863237 60.9844888,57.4624 61.8021246,57.2096689 C61.8075394,57.208448 61.8105476,57.2072271 61.8147591,57.2072271 C61.8117509,57.2072271 61.8093443,57.2072271 61.8063361,57.208448 C62.3935417,57.0271409 62.9115582,56.7768517 62.9470552,56.4514757 C63.0108296,55.8526129 63.371215,54.4107028 58.4256921,52.5866437 Z M43.394792,48.2657969 C43.8357979,47.6400738 44.3020729,47.0283914 44.8026416,46.4521157 C45.0872197,46.1316234 45.3790176,45.8141834 45.6864583,45.5162782 C45.9138801,45.3026166 46.1419036,45.0999434 46.3681222,44.9119212 C46.6900024,44.6518646 47.0299318,44.415616 47.3897156,44.2178265 C47.7488978,44.0249206 48.2464583,43.8063754 48.7079201,43.6989342 C49.0159624,43.6488763 49.3576968,43.6189637 49.7078543,43.6287311 L49.7313184,43.6287311 C50.1392338,43.6427717 50.5585805,43.7178585 50.952658,43.8814622 C50.0110834,44.7080271 48.0659647,46.5845858 46.3019412,49.328 C45.2243948,49.1350942 44.2689824,48.7816369 43.394792,48.2657969 Z M34.6276193,36.6230745 C36.3892362,39.2846868 37.1870176,40.7882535 37.903577,42.0860948 L37.903577,42.0860948 C37.9101951,42.098304 37.9168132,42.1099028 37.9228296,42.1208911 C37.9715629,42.2081871 38.0184912,42.2936517 38.0660212,42.3772849 C38.0786557,42.4023138 38.0924935,42.4261218 38.1045264,42.4499298 C38.1622844,42.5524874 38.2212456,42.6562658 38.2790035,42.7588234 C38.2838167,42.7673698 38.2886298,42.7753058 38.2928414,42.7814105 C38.3481927,42.8778634 38.4035441,42.9743163 38.4594971,43.0701588 C38.4679201,43.0878622 38.4787497,43.1049551 38.488376,43.1214375 C38.6123149,43.3314363 38.7398637,43.5420455 38.8758355,43.7618117 C38.8854618,43.7746314 38.8944865,43.7905034 38.9035112,43.804544 C39.0412879,44.0212578 39.1862844,44.2471286 39.3451187,44.4815458 C39.3583549,44.5004702 39.3727944,44.5200049 39.3854289,44.5401502 C39.4576263,44.6451495 39.5316287,44.7525908 39.6092409,44.8630843 C39.6164606,44.8728517 39.6224771,44.8820086 39.6296968,44.891776 L39.6296968,44.891776 C39.8168085,45.1567163 40.0207662,45.4381391 40.2475864,45.7397071 C40.2548061,45.7494745 40.2626275,45.7586314 40.2692456,45.7683988 C40.360094,45.8898806 40.4557556,46.0138043 40.555027,46.1413908 C40.6518919,46.2677563 40.7505617,46.3892382 40.8498331,46.5064468 C40.880517,46.5436849 40.9130059,46.5790917 40.9442914,46.6163298 C41.0134806,46.6950794 41.0826698,46.772608 41.151859,46.8489157 C41.1879577,46.8873748 41.2234548,46.9264443 41.2583502,46.9636825 C41.3287427,47.0363274 41.3997368,47.1089723 41.4701293,47.1785649 C41.5014148,47.2096985 41.5327004,47.240832 41.5639859,47.2713551 C41.6644606,47.3690289 41.765537,47.46304 41.8660118,47.5527778 C41.8708249,47.5564406 41.8750364,47.5613243 41.8804512,47.5649871 C41.9779177,47.6510622 42.0753843,47.7316431 42.1734524,47.8116135 C42.204738,47.8366425 42.2360235,47.8616714 42.2685123,47.8854794 C42.3407098,47.9428628 42.4129072,47.9978043 42.4857062,48.0521354 C42.52,48.0759434 42.5536921,48.1009723 42.5873843,48.1247803 C42.6625899,48.1797218 42.7371939,48.2322215 42.8148061,48.2835003 C42.8406769,48.2999828 42.8665476,48.3195175 42.8936216,48.336 C44.2232573,49.2065182 45.5083713,49.5257895 46.4469377,49.6747422 C46.4469377,49.6747422 46.4499459,49.6759631 46.4511492,49.6759631 L46.4511492,49.6759631 C46.9571328,49.7559335 47.36204,49.788288 47.6207474,49.8322412 C48.8517133,50.0251471 49.5448085,50.2040123 49.9088038,50.3627323 L49.9076005,50.3627323 L49.9088038,50.3627323 C50.1187779,50.4555225 50.218651,50.5415975 50.2469283,50.6179052 C50.2469283,50.6563643 50.2385053,50.6917711 50.2138378,50.7229046 C50.1326157,50.8352295 50.0170999,50.9139791 49.8991774,50.9854031 C49.828785,51.0189785 49.7614007,51.0464492 49.7204888,51.0653735 C49.4966769,51.1801403 49.2824912,51.2833083 49.0731187,51.3803717 C48.9551962,51.4292086 48.8372738,51.4768246 48.7181481,51.5219988 C48.0009871,51.7820554 47.2796146,52.0396702 46.5377861,52.1965588 C45.7989659,52.3589415 45.0306651,52.4254818 44.2840235,52.3113255 C43.5373819,52.1971692 42.8304489,51.8785083 42.213161,51.4383655 C41.5952714,50.9957809 41.0471727,50.4561329 40.5231398,49.9012234 C40.212691,49.5673009 39.9034454,49.2345994 39.6068343,48.8927409 C38.9191539,48.0271065 38.2531328,47.0485366 37.6388531,46.026624 C37.3025335,45.4302031 36.9848649,44.8221834 36.6852456,44.2062277 C35.306275,41.4591508 34.3502609,38.4916972 32.7769589,35.8306954 C32.363027,35.0859323 31.9346557,34.3478843 31.5014712,33.6141095 C30.2271868,31.3712738 29.0828578,29.575296 28.6851704,29.1052406 C28.6478684,29.0612874 28.6171845,29.0228283 28.5846957,28.9837588 C28.575671,28.9691077 28.5666463,28.9544566 28.55702,28.9410265 C28.4463173,28.7823065 28.314557,28.6394585 28.2477744,28.4575409 C28.2231069,28.3934425 28.2068625,28.3207975 28.2158872,28.2518154 C28.250181,28.1748972 28.3536639,28.186496 28.3536639,28.186496 C28.6785523,28.1681822 31.1609401,31.384704 34.6276193,36.6230745 Z M28.2168398,28.2682978 C28.2091598,28.3195766 28.2206798,28.3708554 28.2475598,28.4196923 C28.2014798,28.3519311 28.1950798,28.3030942 28.2168398,28.2682978 Z M43.6354501,52.2502794 C43.6482501,52.2580719 43.6636101,52.263267 43.6802501,52.2658645 C43.6725701,52.2658645 43.6700101,52.2658645 43.6661701,52.263267 C43.6546501,52.2606694 43.6431301,52.2580719 43.6354501,52.2502794 Z M50.0183032,50.9267988 C50.0953137,50.8694154 50.1669095,50.8065378 50.2234642,50.7265674 C50.2427168,50.7027594 50.2523431,50.6752886 50.2565546,50.6478178 C50.2740024,50.7577009 50.154275,50.851712 50.0183032,50.9267988 Z M48.255483,49.6655852 C47.7693537,49.5831729 47.2176451,49.5306732 46.6135934,49.4317785 C48.4040893,46.6682191 50.3913231,44.7892185 51.2619036,44.0328566 C51.4736827,44.1518966 51.6758355,44.3008492 51.8587356,44.4919237 C52.0031304,44.6420972 52.1366957,44.7910498 52.2612362,44.9387815 C52.565067,45.3453489 52.7305194,45.6127311 52.5488226,45.3093317 C53.3201316,46.3929009 53.5445452,47.5863532 53.3676616,49.9604382 C53.346604,50.2443028 53.3261481,50.5385452 53.3062938,50.8388923 C52.1114266,50.5110745 50.6789095,50.1887508 48.255483,49.6655852 Z" id="Shape" fill="#F5334A" fill-rule="nonzero"></path>
                </g>
            </g>
        </g>
    </g>
</svg>