<?xml version="1.0" encoding="UTF-8" standalone="no"?>
<svg width="16px" height="12px" viewBox="0 0 16 12" version="1.1" xmlns="http://www.w3.org/2000/svg" xmlns:xlink="http://www.w3.org/1999/xlink">
    <!-- Generator: Sketch 41.2 (35397) - http://www.bohemiancoding.com/sketch -->
    <title>arrow</title>
    <desc>Created with Sketch.</desc>
    <defs></defs>
    <g id="社交分享" stroke="none" stroke-width="1" fill="none" fill-rule="evenodd">
        <g id="10-4分享主编（展开）" transform="translate(-294.000000, -988.000000)" fill="#F5334A">
            <g id="底部bar-copy" transform="translate(0.000000, 955.000000)">
                <g id="arrow" transform="translate(294.000000, 32.000000)">
                    <rect id="Rectangle-4" x="0" y="6" width="14" height="2" rx="1"></rect>
                    <path d="M11.9666748,9.51843262 L5.96421945,9.51843262 C5.4129862,9.51843262 4.9666748,9.96614787 4.9666748,10.5184326 C4.9666748,11.0745678 5.41329076,11.5184326 5.96421945,11.5184326 L12.9691302,11.5184326 C13.2443383,11.5184326 13.4933937,11.4068353 13.6738121,11.2263435 C13.8550773,11.0451521 13.9666748,10.7960964 13.9666748,10.520888 L13.9666748,3.51597726 C13.9666748,2.96504857 13.52281,2.51843262 12.9666748,2.51843262 C12.4143901,2.51843262 11.9666748,2.96474402 11.9666748,3.51597726 L11.9666748,9.51843262 Z" id="Combined-Shape" transform="translate(9.466675, 7.018433) rotate(-45.000000) translate(-9.466675, -7.018433) "></path>
                </g>
            </g>
        </g>
    </g>
</svg>