<?xml version="1.0" encoding="UTF-8" standalone="no"?>
<svg width="13px" height="13px" viewBox="0 0 13 13" version="1.1" xmlns="http://www.w3.org/2000/svg" xmlns:xlink="http://www.w3.org/1999/xlink">
    <!-- Generator: Sketch 41.2 (35397) - http://www.bohemiancoding.com/sketch -->
    <title>Combined Shape@2x</title>
    <desc>Created with Sketch.</desc>
    <defs></defs>
    <g id="社交分享" stroke="none" stroke-width="1" fill="none" fill-rule="evenodd">
        <g id="10-1分享首页文章" transform="translate(-351.000000, -90.000000)" fill="#9B9B9B">
            <g id="顶端bar" transform="translate(0.000000, 64.000000)">
                <path d="M358.313708,31.3137085 L358.313708,25.3145802 C358.313708,24.7583394 357.865993,24.3137085 357.313708,24.3137085 C356.757573,24.3137085 356.313708,24.761814 356.313708,25.3145802 L356.313708,31.3137085 L350.31458,31.3137085 C349.758339,31.3137085 349.313708,31.7614237 349.313708,32.3137085 C349.313708,32.8698437 349.761814,33.3137085 350.31458,33.3137085 L356.313708,33.3137085 L356.313708,39.3128368 C356.313708,39.8690776 356.761424,40.3137085 357.313708,40.3137085 C357.869844,40.3137085 358.313708,39.865603 358.313708,39.3128368 L358.313708,33.3137085 L364.312837,33.3137085 C364.869078,33.3137085 365.313708,32.8659932 365.313708,32.3137085 C365.313708,31.7575733 364.865603,31.3137085 364.312837,31.3137085 L358.313708,31.3137085 Z" id="Combined-Shape" transform="translate(357.313708, 32.313708) rotate(-315.000000) translate(-357.313708, -32.313708) "></path>
            </g>
        </g>
    </g>
</svg>