<?xml version="1.0" encoding="UTF-8" standalone="no"?>
<svg width="66px" height="66px" viewBox="0 0 66 66" version="1.1" xmlns="http://www.w3.org/2000/svg" xmlns:xlink="http://www.w3.org/1999/xlink">
    <!-- Generator: Sketch 41.2 (35397) - http://www.bohemiancoding.com/sketch -->
    <title>icon_charming</title>
    <desc>Created with Sketch.</desc>
    <defs></defs>
    <g id="2_廣場" stroke="none" stroke-width="1" fill="none" fill-rule="evenodd">
        <g id="2-5_提交申請" transform="translate(-198.000000, -694.000000)">
            <g id="icon_charming" transform="translate(198.000000, 694.000000)">
                <circle id="Oval-2-Copy-6" fill="#F7F7F7" cx="33" cy="33" r="33"></circle>
                <g id="creativity_learning_icons_ageeva-(cs2)-10" transform="translate(13.000000, 16.000000)">
                    <g id="Layer_1">
                        <g id="Group">
                            <path d="M12.0525,11.3130259 L12.0525,6.58841403 C12.0525,3.97923174 9.90571429,1.86380219 7.25714286,1.86380219 C4.61,1.86380219 2.46285714,3.97923174 2.46285714,6.58841403 L2.46285714,11.3130259 L7.25714286,11.3130259 L12.0525,11.3130259 Z" id="Shape" fill="#66CDCC"></path>
                            <path d="M37.5375,11.3130259 L37.5375,6.58841403 C37.5375,3.97923174 35.3903571,1.86380219 32.7417857,1.86380219 C30.0946429,1.86380219 27.9475,3.97923174 27.9475,6.58841403 L27.9475,11.3130259 L32.7417857,11.3130259 L37.5375,11.3130259 Z" id="Shape" fill="#66CDCC"></path>
                            <path d="M7.25714286,12.7738723 C3.29,12.7738723 0.0739285714,15.9429695 0.0739285714,19.851816 L0.0739285714,30.3455572 L14.4407143,30.3455572 L14.4407143,19.851816 C14.4410714,15.9429695 11.225,12.7738723 7.25714286,12.7738723 Z" id="Shape" fill="#66CDCC"></path>
                            <path d="M32.7425,12.7738723 C28.7753571,12.7738723 25.5592857,15.9429695 25.5592857,19.851816 L25.5592857,30.3455572 L39.9264286,30.3455572 L39.9264286,19.851816 C39.9260714,15.9429695 36.7096429,12.7738723 32.7425,12.7738723 Z" id="Shape" fill="#66CDCC"></path>
                            <ellipse id="Oval" fill="#F4534E" cx="20.0853571" cy="5.59281426" rx="5.03455299" ry="4.96101783"></ellipse>
                            <g transform="translate(11.428571, 11.965497)" id="Shape">
                                <path d="M8.65678571,0.604609546 C4.18142857,0.604609546 0.553928571,4.17947786 0.553928571,8.58911558 L0.553928571,20.4258079 L16.7589286,20.4258079 L16.7589286,8.58841173 C16.7589286,4.17947786 13.1310714,0.604609546 8.65678571,0.604609546 Z" fill="#F4534E"></path>
                                <path d="M17.1917857,20.8519908 L0.121071429,20.8519908 L0.121071429,8.58876366 C0.121071429,3.95107763 3.95,0.178074756 8.65642857,0.178074756 C13.3625,0.178074756 17.1914286,3.95107763 17.1914286,8.58841173 L17.1914286,20.8519908 L17.1917857,20.8519908 Z M0.986785714,19.9989212 L16.3260714,19.9989212 L16.3260714,8.58841173 C16.3260714,4.42125129 12.8857143,1.03079241 8.65678571,1.03079241 C4.4275,1.03079241 0.986785714,4.42125129 0.986785714,8.58876366 L0.986785714,19.9989212 L0.986785714,19.9989212 Z" fill="#FFFFFF"></path>
                            </g>
                            <g transform="translate(21.785714, 20.763657)">
                                <g>
                                    <ellipse id="Oval" fill="#F4534E" cx="6.08142857" cy="5.99401035" rx="5.34357143" ry="5.26552271"></ellipse>
                                    <path d="M6.08142857,11.6860679 C2.89607143,11.6860679 0.305,9.13248994 0.305,5.99401035 C0.305,2.85553076 2.89607143,0.301952846 6.08142857,0.301952846 C9.26642857,0.301952846 11.8578571,2.85553076 11.8578571,5.99401035 C11.8578571,9.13248994 9.26642857,11.6860679 6.08142857,11.6860679 Z M6.08142857,1.1546705 C3.37357143,1.1546705 1.17035714,3.32570443 1.17035714,5.99401035 C1.17035714,8.66231627 3.37357143,10.8333502 6.08142857,10.8333502 C8.78928571,10.8333502 10.9921429,8.66231627 10.9921429,5.99401035 C10.9921429,3.32570443 8.78928571,1.1546705 6.08142857,1.1546705 Z" id="Shape" fill="#FFFFFF"></path>
                                </g>
                                <polygon id="Shape" fill="#FFFFFF" points="8.91142857 5.56747556 6.51392857 5.56747556 6.51392857 3.20499367 5.64857143 3.20499367 5.64857143 5.56747556 3.25142857 5.56747556 3.25142857 6.42019321 5.64857143 6.42019321 5.64857143 8.7826751 6.51392857 8.7826751 6.51392857 6.42019321 8.91142857 6.42019321"></polygon>
                            </g>
                        </g>
                    </g>
                </g>
            </g>
        </g>
    </g>
</svg>