<?xml version="1.0" encoding="UTF-8" standalone="no"?>
<svg width="66px" height="66px" viewBox="0 0 66 66" version="1.1" xmlns="http://www.w3.org/2000/svg" xmlns:xlink="http://www.w3.org/1999/xlink">
    <!-- Generator: Sketch 41.2 (35397) - http://www.bohemiancoding.com/sketch -->
    <title>icon_surprise</title>
    <desc>Created with Sketch.</desc>
    <defs></defs>
    <g id="2_廣場" stroke="none" stroke-width="1" fill="none" fill-rule="evenodd">
        <g id="2-5_提交申請" transform="translate(-285.000000, -694.000000)">
            <g id="icon_surprise" transform="translate(285.000000, 694.000000)">
                <circle id="Oval-2-Copy-5" fill="#F7F7F7" cx="33" cy="33" r="33"></circle>
                <g id="creativity_learning_icons_ageeva-(cs2)-07" transform="translate(14.465753, 15.369863)">
                    <g id="Layer_1">
                        <path d="M18.0214356,34.7172146 L3.40162192,34.7172146 C2.73728219,34.7172146 2.19590137,34.1753806 2.19590137,33.509316 L2.19590137,18.4183708 L18.0214356,18.4183708 L18.0214356,34.7172146 Z" id="Shape" fill="#F4534E"></path>
                        <path d="M18.0214356,17.4600201 L1.27696438,17.4600201 C0.611539726,17.4600201 0.0701589041,16.9181861 0.0701589041,16.2524837 L0.0701589041,10.2042982 C0.0701589041,9.538958 0.611539726,8.99712403 1.27696438,8.99712403 L18.0214356,8.99712403 L18.0214356,17.4600201 Z" id="Shape" fill="#F4534E"></path>
                        <path d="M35.0863233,33.5096782 C35.0863233,34.1757428 34.5453041,34.7175767 33.8798795,34.7175767 L18.9787068,34.7175767 L18.9787068,18.4183708 L35.0866849,18.4183708 L35.0866849,33.5096782 L35.0863233,33.5096782 Z" id="Shape" fill="#F4534E"></path>
                        <path d="M36.9307068,16.2524837 C36.9307068,16.9181861 36.389326,17.4600201 35.724263,17.4600201 L18.9787068,17.4600201 L18.9787068,8.99712403 L35.724263,8.99712403 C36.389326,8.99712403 36.9307068,9.538958 36.9307068,10.2042982 L36.9307068,16.2524837 Z" id="Shape" fill="#F4534E"></path>
                        <path d="M18.432263,8.27274707 L17.4937973,8.18038901 C16.8627288,8.11809259 11.2883507,7.54257509 9.85587945,6.51794389 C9.08232329,5.96451989 8.57023562,5.14235204 8.41400548,4.20319731 C8.25777534,3.26404258 8.47584658,2.3201794 9.02843836,1.54509606 C9.69530959,0.610649777 10.7787945,0.0525173296 11.927737,0.0525173296 C12.672,0.0525173296 13.3862466,0.282144826 13.9934466,0.716408813 C15.4255562,1.74140221 17.7769644,6.83594537 18.0402411,7.413636 L18.432263,8.27274707 Z M11.927737,1.13944496 C11.1288658,1.13944496 10.3752,1.52734882 9.9115726,2.17711495 C9.52750685,2.71568922 9.37561644,3.37197475 9.48410959,4.02500058 C9.59260274,4.67802641 9.94882192,5.24919764 10.4865863,5.63384181 C11.2709918,6.19523395 14.3590685,6.71968287 16.6442959,6.99385955 C15.643989,4.91815737 14.1475068,2.16226523 13.3627397,1.60087308 C12.941063,1.29880789 12.444526,1.13944496 11.927737,1.13944496 Z" id="Shape" fill="#66CDCC"></path>
                        <path d="M18.3910356,8.27274707 L18.7826959,7.41399818 C19.0459726,6.83630756 21.3970192,1.7417644 22.8291288,0.716771002 C23.4366904,0.282507014 24.150937,0.0528795181 24.8952,0.0528795181 C26.0437808,0.0528795181 27.1272658,0.611011966 27.794137,1.54545824 C28.3467288,2.32054159 28.5648,3.26440477 28.4085699,4.2035595 C28.2523397,5.14271423 27.7402521,5.96451989 26.9666959,6.51830607 C25.5342247,7.54293728 19.9598466,8.11845478 19.3287781,8.1807512 L18.3910356,8.27274707 Z M24.8952,1.13944496 C24.378411,1.13944496 23.881874,1.29880789 23.4598356,1.60087308 C22.6754301,2.16226523 21.1785863,4.91779518 20.1786411,6.99385955 C22.4638685,6.71968287 25.5515836,6.19523395 26.3363507,5.63384181 C26.8741151,5.24919764 27.2303342,4.67766422 27.3388274,4.02500058 C27.4473205,3.37233694 27.2957918,2.71605141 26.9113644,2.17711495 C26.447737,1.52734882 25.6940712,1.13944496 24.8952,1.13944496 Z" id="Shape" fill="#66CDCC"></path>
                    </g>
                </g>
            </g>
        </g>
    </g>
</svg>