<?xml version="1.0" encoding="UTF-8" standalone="no"?>
<svg width="67px" height="66px" viewBox="0 0 67 66" version="1.1" xmlns="http://www.w3.org/2000/svg" xmlns:xlink="http://www.w3.org/1999/xlink">
    <!-- Generator: Sketch 41.2 (35397) - http://www.bohemiancoding.com/sketch -->
    <title>icon_cash</title>
    <desc>Created with Sketch.</desc>
    <defs></defs>
    <g id="2_廣場" stroke="none" stroke-width="1" fill="none" fill-rule="evenodd">
        <g id="2-5_提交申請" transform="translate(-197.000000, -567.000000)">
            <g id="icon_cash" transform="translate(197.666667, 567.000000)">
                <circle id="Oval-2-Copy-2" fill="#F7F7F7" cx="33" cy="33" r="33"></circle>
                <g id="creativity_learning_icons_ageeva-(cs2)-04" transform="translate(18.082192, 11.753425)">
                    <g id="Layer_1">
                        <g id="Group">
                            <g id="Shape" fill="#66CDCC">
                                <g transform="translate(0.000000, 7.968147)">
                                    <path d="M11.8470904,0.319450239 C6.21774247,5.53749967 0.329457534,10.7620685 0.329457534,17.5954785 C0.329457534,25.8135352 6.98298082,32.4763544 15.1890411,32.4763544 C23.3961863,32.4763544 30.0486247,25.8135352 30.0486247,17.5954785 C30.0486247,10.6476169 24.557063,5.95763831 18.5237589,0.332851213 L11.8470904,0.319450239 Z"></path>
                                </g>
                                <path d="M21.3384329,1.86309754 C21.3384329,1.86309754 16.5480986,-1.20500107 13.9200329,0.801160918 C11.2919671,2.80732291 9.03964932,1.86309754 9.03964932,1.86309754 L12.1157918,7.1966851 L18.2630137,7.1966851 L21.3384329,1.86309754 Z"></path>
                            </g>
                            <path d="M15.0838027,15.8370535 L15.9586192,15.8370535 L15.9586192,17.4136599 C17.270663,17.5364418 18.3201534,18.272771 18.9497753,19.4462617 L17.5679342,20.234746 C17.2001425,19.5335491 16.7104767,19.1659278 15.9582575,18.9381112 L15.9582575,23.0551077 C17.7252493,23.826207 19.3696438,24.9297953 19.3696438,27.0848167 C19.3696438,28.9772515 17.8478466,30.9214793 15.9582575,31.1844281 L15.9582575,32.8490464 L15.0834411,32.8490464 L15.0834411,31.1844281 C13.0191781,31.1492958 11.3223452,29.5198099 11.0077151,27.5049554 L12.5819507,27.1724663 C12.8795836,28.6617854 13.5439233,29.4502697 15.0834411,29.642954 L15.0834411,24.3872369 L14.4538192,24.0714086 C13.0719781,23.3705739 11.9346082,22.5820895 11.9346082,20.864954 C11.9346082,19.1307955 13.3341699,17.5534647 15.0834411,17.4132977 L15.0834411,15.8370535 L15.0838027,15.8370535 Z M15.0838027,18.9381112 C14.1742685,19.077916 13.4567671,19.813883 13.4567671,20.7425342 C13.4567671,21.775858 14.2093479,22.2840084 15.0838027,22.6346069 L15.0838027,18.9381112 Z M15.9586192,29.5375571 C17.0258301,29.2919933 17.7954082,28.2760546 17.7954082,27.1547191 C17.7954082,25.963119 16.9209534,25.2974166 15.9586192,24.7896283 L15.9586192,29.5375571 Z" id="Shape" fill="#FFFFFF"></path>
                        </g>
                    </g>
                </g>
            </g>
        </g>
    </g>
</svg>