<?xml version="1.0" encoding="UTF-8" standalone="no"?>
<svg width="66px" height="66px" viewBox="0 0 66 66" version="1.1" xmlns="http://www.w3.org/2000/svg" xmlns:xlink="http://www.w3.org/1999/xlink">
    <!-- Generator: Sketch 41.2 (35397) - http://www.bohemiancoding.com/sketch -->
    <title>icon_interview</title>
    <desc>Created with Sketch.</desc>
    <defs></defs>
    <g id="2_廣場" stroke="none" stroke-width="1" fill="none" fill-rule="evenodd" opacity="0.899999976">
        <g id="2-5_提交申請" transform="translate(-285.000000, -567.000000)">
            <g id="icon_interview" transform="translate(285.000000, 567.000000)">
                <circle id="Oval-2-Copy-3" fill="#F7F7F7" cx="33" cy="33" r="33"></circle>
                <g id="creativity_learning_icons_ageeva-(cs2)-05" transform="translate(21.698630, 11.753425)">
                    <g id="Layer_1">
                        <g id="Group">
                            <path d="M7.07953973,1.59218056 L7.07953973,3.99167924 L8.57349041,3.99167924 L8.57349041,0.816010645 C9.27507945,0.542196154 10.0312767,0.350598449 10.8149589,0.286853276 L10.8149589,4.73090593 L12.3092712,4.73090593 L12.3092712,0.286853276 C13.0929534,0.360015349 13.8397479,0.542558343 14.5503781,0.816010645 L14.5503781,3.98262453 L16.0446904,3.98262453 L16.0446904,1.59181837 C18.2857973,3.06085484 19.7801096,5.59762296 19.7801096,8.47195073 L19.7801096,16.693267 L3.3528,16.693267 L3.3528,8.47231292 C3.3528,5.59798515 4.83807123,3.06121703 7.07953973,1.59218056 Z" id="Shape" fill="#F4534E"></path>
                            <path d="M3.3528,18.1905542 L19.7804712,18.1905542 L19.7804712,26.4118705 C19.7804712,30.9468325 16.0996603,34.633549 11.5711562,34.633549 C7.0430137,34.633549 3.3618411,30.9468325 3.3618411,26.4118705 L3.3618411,18.1905542 L3.3528,18.1905542 Z" id="Shape" fill="#F4534E"></path>
                            <g transform="translate(0.000000, 19.920366)" id="Shape" fill="#66CDCC">
                                <path d="M22.4002192,0.254618501 C22.0566575,0.254618501 21.7781918,0.533865819 21.7781918,0.877582687 L21.7781918,6.32272429 C21.7781918,11.9587392 17.2001425,16.5440454 11.5726027,16.5440454 C5.94506301,16.5440454 1.3670137,11.9587392 1.3670137,6.32272429 L1.3670137,0.760595808 C1.3670137,0.41687894 1.08854795,0.137631622 0.744986301,0.137631622 C0.401424658,0.137631622 0.122958904,0.41687894 0.122958904,0.760595808 L0.122958904,6.32272429 C0.122958904,12.6454486 5.2593863,17.7896116 11.5726027,17.7896116 C17.8861808,17.7896116 23.0222466,12.6454486 23.0222466,6.32272429 L23.0222466,0.877582687 C23.0222466,0.533865819 22.7441425,0.254618501 22.4002192,0.254618501 Z"></path>
                                <path d="M10.9505753,21.8504688 L4.46774795,21.8504688 C4.1241863,21.8504688 3.84572055,22.1293539 3.84572055,22.473433 C3.84572055,22.8171499 4.1241863,23.0963972 4.46774795,23.0963972 L10.9505753,23.0963972 L12.1946301,23.0963972 L18.6658849,23.0963972 C19.0094466,23.0963972 19.2879123,22.8171499 19.2879123,22.473433 C19.2879123,22.1293539 19.0094466,21.8504688 18.6658849,21.8504688 L12.1946301,21.8504688 L12.1946301,17.7896116 L11.5726027,17.7896116 L10.9505753,17.7896116 L10.9505753,21.8504688 Z"></path>
                            </g>
                        </g>
                    </g>
                </g>
            </g>
        </g>
    </g>
</svg>