<?xml version="1.0" encoding="UTF-8" standalone="no"?>
<svg width="66px" height="66px" viewBox="0 0 66 66" version="1.1" xmlns="http://www.w3.org/2000/svg" xmlns:xlink="http://www.w3.org/1999/xlink">
    <!-- Generator: Sketch 41.2 (35397) - http://www.bohemiancoding.com/sketch -->
    <title>icon_promoteCode</title>
    <desc>Created with Sketch.</desc>
    <defs>
        <polygon id="path-1" points="40.6743719 28.740276 40.6743719 0.31460241 0.000101652893 0.31460241 0.000101652893 28.740276 40.6743719 28.740276"></polygon>
    </defs>
    <g id="2_廣場" stroke="none" stroke-width="1" fill="none" fill-rule="evenodd">
        <g id="2-5_提交申請" transform="translate(-110.000000, -694.000000)">
            <g id="icon_promoteCode" transform="translate(110.000000, 694.000000)">
                <circle id="Oval-2-Copy-5" fill="#F7F7F7" cx="33" cy="33" r="33"></circle>
                <g id="Page-1" transform="translate(13.000000, 18.000000)">
                    <g id="Group-3" transform="translate(0.000000, 0.035926)">
                        <mask id="mask-2" fill="white">
                            <use xlink:href="#path-1"></use>
                        </mask>
                        <g id="Clip-2"></g>
                        <path d="M31.1834818,23.3433866 C31.716143,23.3433866 32.1478289,22.8968587 32.1478289,22.3458839 C32.1478289,21.7949091 31.716143,21.3483812 31.1834818,21.3483812 C30.6511595,21.3483812 30.2191347,21.7949091 30.2191347,22.3458839 C30.2191347,22.8968587 30.6511595,23.3433866 31.1834818,23.3433866 L31.1834818,23.3433866 Z M31.1834818,19.3537262 C31.716143,19.3537262 32.1478289,18.9068478 32.1478289,18.3562234 C32.1478289,17.8052486 31.716143,17.3590712 31.1834818,17.3590712 C30.6511595,17.3590712 30.2191347,17.8052486 30.2191347,18.3562234 C30.2191347,18.9068478 30.6511595,19.3537262 31.1834818,19.3537262 L31.1834818,19.3537262 Z M31.1834818,15.3637152 C31.716143,15.3637152 32.1478289,14.9175378 32.1478289,14.3669135 C32.1478289,13.8159387 31.716143,13.3694107 31.1834818,13.3694107 C30.6511595,13.3694107 30.2191347,13.8159387 30.2191347,14.3669135 C30.2191347,14.9175378 30.6511595,15.3637152 31.1834818,15.3637152 L31.1834818,15.3637152 Z M31.1834818,11.3747558 C31.716143,11.3747558 32.1478289,10.9278773 32.1478289,10.377253 C32.1478289,9.8262782 31.716143,9.37975027 31.1834818,9.37975027 C30.6511595,9.37975027 30.2191347,9.8262782 30.2191347,10.377253 C30.2191347,10.9278773 30.6511595,11.3747558 31.1834818,11.3747558 L31.1834818,11.3747558 Z M31.1834818,7.38544578 C31.716143,7.38544578 32.1478289,6.93856736 32.1478289,6.38759255 C32.1478289,5.83696824 31.716143,5.39008981 31.1834818,5.39008981 C30.6511595,5.39008981 30.2191347,5.83696824 30.2191347,6.38759255 C30.2191347,6.93856736 30.6511595,7.38544578 31.1834818,7.38544578 L31.1834818,7.38544578 Z M0.000101652893,19.5436933 C0.000101652893,19.0820942 0.36198595,18.7074173 0.808242149,18.7074173 C3.04020083,18.7074173 4.84962231,16.8364863 4.84962231,14.5274392 C4.84962231,12.2187426 3.04020083,10.3471106 0.808242149,10.3471106 C0.36198595,10.3471106 0.000101652893,9.97313472 0.000101652893,9.5111851 L0.000101652893,1.15087842 C0.000101652893,0.688928806 0.36198595,0.31460241 0.808242149,0.31460241 L39.8663331,0.31460241 C40.3125893,0.31460241 40.6744736,0.688928806 40.6744736,1.15087842 L40.6744736,9.5111851 C40.6744736,9.97313472 40.3125893,10.3471106 39.8663331,10.3471106 C37.6343744,10.3471106 35.8249529,12.2187426 35.8249529,14.5274392 C35.8249529,16.8364863 37.6343744,18.7074173 39.8663331,18.7074173 C40.3125893,18.7074173 40.6744736,19.0820942 40.6744736,19.5436933 L40.6744736,27.9043505 C40.6744736,28.3659496 40.3125893,28.740276 39.8663331,28.740276 L0.808242149,28.740276 C0.36198595,28.740276 0.000101652893,28.3659496 0.000101652893,27.9043505 L0.000101652893,19.5436933 Z" id="Fill-1" fill="#66CDCC" mask="url(#mask-2)"></path>
                    </g>
                    <path d="M19.5572711,19.2161577 C19.5572711,20.2897174 20.4626595,21.1677021 21.5191719,21.1677021 C22.5756843,21.1677021 23.4814116,20.2897174 23.4814116,19.2161577 C23.4814116,18.1236714 22.5756843,17.2460372 21.5191719,17.2460372 C20.4626595,17.2460372 19.5572711,18.1236714 19.5572711,19.2161577 L19.5572711,19.2161577 Z M24.6883702,19.2161577 C24.6883702,21.0113823 23.2360893,22.4168587 21.5191719,22.4168587 C19.8025934,22.4168587 18.3499736,21.0313604 18.3499736,19.2161577 C18.3499736,17.4009551 19.7836182,15.9968806 21.5191719,15.9968806 C23.2547256,15.9968806 24.6883702,17.4009551 24.6883702,19.2161577 L24.6883702,19.2161577 Z M22.2551388,7.66391238 L14.0293868,22.4168587 L13.2185355,21.910046 L21.5005355,7.19600438 L22.2551388,7.66391238 Z M12.0485107,10.415632 C12.0485107,11.4884907 12.9545769,12.3664754 14.0104116,12.3664754 C15.0672628,12.3664754 15.9729901,11.4884907 15.9729901,10.415632 C15.9729901,9.32279518 15.0672628,8.44481051 14.0104116,8.44481051 C12.9545769,8.44481051 12.0485107,9.32279518 12.0485107,10.415632 L12.0485107,10.415632 Z M17.1799488,10.415632 C17.1799488,12.211207 15.7276678,13.615632 14.0104116,13.615632 C12.2938331,13.615632 10.8412132,12.2301336 10.8412132,10.415632 C10.8412132,8.60113034 12.2751967,7.19600438 14.0104116,7.19600438 C15.7463041,7.19600438 17.1799488,8.60113034 17.1799488,10.415632 L17.1799488,10.415632 Z" id="Fill-4" fill="#FFFFFF"></path>
                </g>
            </g>
        </g>
    </g>
</svg>