<?xml version="1.0" encoding="UTF-8" standalone="no"?>
<svg width="66px" height="66px" viewBox="0 0 66 66" version="1.1" xmlns="http://www.w3.org/2000/svg" xmlns:xlink="http://www.w3.org/1999/xlink">
    <!-- Generator: Sketch 41.2 (35397) - http://www.bohemiancoding.com/sketch -->
    <title>icon_vip</title>
    <desc>Created with Sketch.</desc>
    <defs></defs>
    <g id="2_廣場" stroke="none" stroke-width="1" fill="none" fill-rule="evenodd">
        <g id="2-5_提交申請" transform="translate(-23.000000, -567.000000)">
            <g id="icon_vip" transform="translate(23.000000, 567.000000)">
                <circle id="Oval-2" fill="#F7F7F7" cx="33" cy="33" r="33"></circle>
                <g id="creativity_learning_icons_ageeva-(cs2)-03" transform="translate(14.465753, 18.986301)" fill="#F4534E">
                    <g id="Layer_1">
                        <g id="Group">
                            <polygon id="Shape" points="18.5006137 33.4289101 10.3549479 10.6077762 0.279912329 10.6077762 18.5006137 33.5553139"></polygon>
                            <polygon id="Shape" points="37.9769425 9.58386937 29.5343671 0.00144875392 25.2734795 0.00144875392 27.7001096 9.58386937"></polygon>
                            <polygon id="Shape" points="12.7689205 0.00144875392 8.52394521 0.00144875392 0.969928767 9.58386937 10.3426521 9.58386937"></polygon>
                            <polygon id="Shape" points="27.6870904 10.6077762 19.5378082 33.440138 38.765326 10.6077762"></polygon>
                            <polygon id="Shape" points="15.0823562 9.58386937 22.9596822 9.58386937 26.6451945 9.58386937 24.4174685 0.784138059 24.2192877 0.00144875392 13.8231123 0.00144875392 13.6252932 0.783413682 11.3968438 9.58386937"></polygon>
                            <polygon id="Shape" points="22.7907945 10.6077762 15.2519671 10.6077762 11.4409644 10.6077762 18.5516055 30.5306779 19.0213808 31.847233 19.4911562 30.5310401 26.6017973 10.6077762"></polygon>
                        </g>
                    </g>
                </g>
            </g>
        </g>
    </g>
</svg>