<?xml version="1.0" encoding="UTF-8" standalone="no"?>
<svg width="66px" height="66px" viewBox="0 0 66 66" version="1.1" xmlns="http://www.w3.org/2000/svg" xmlns:xlink="http://www.w3.org/1999/xlink">
    <!-- Generator: Sketch 41.2 (35397) - http://www.bohemiancoding.com/sketch -->
    <title>icon_activity</title>
    <desc>Created with Sketch.</desc>
    <defs></defs>
    <g id="2_廣場" stroke="none" stroke-width="1" fill="none" fill-rule="evenodd">
        <g id="2-5_提交申請" transform="translate(-23.000000, -694.000000)">
            <g id="icon_activity" transform="translate(23.000000, 694.000000)">
                <circle id="Oval-2-Copy-4" fill="#F7F7F7" cx="33" cy="33" r="33"></circle>
                <g id="creativity_learning_icons_ageeva-(cs2)-06" transform="translate(17.178082, 9.041096)">
                    <g id="Layer_1">
                        <g id="Group">
                            <path d="M10.8171288,38.4799907 L4.97838904,47.4539346 C4.83264658,47.6777671 4.89593425,47.9776592 5.11943014,48.1236211 C5.2008,48.1765007 5.29229589,48.202216 5.38270685,48.202216 C5.54074521,48.202216 5.69516712,48.1247077 5.78810959,47.9827298 L11.970411,38.4799907 L10.8171288,38.4799907 Z" id="Shape" fill="#F4534E"></path>
                            <path d="M31.4926685,33.4557121 C31.4926685,33.1525603 31.400811,32.8707777 31.2431342,32.6368039 C31.0854575,32.4031924 30.8623233,32.2177519 30.5997699,32.1061978 C30.4250959,32.0323114 30.2327014,31.9917462 30.0305425,31.9917462 L1.79411507,31.9917462 C1.49141918,31.9917462 1.21006027,32.0837421 0.976438356,32.2412941 C0.898684932,32.2941736 0.826356164,32.3539347 0.760175342,32.4202152 C0.627813699,32.552414 0.520767123,32.7103282 0.446991781,32.8856274 C0.372854795,33.0605644 0.331989041,33.2536109 0.331989041,33.4553499 L0.331989041,33.753431 C0.331989041,34.4021106 0.496175342,35.0123982 0.784767123,35.5448152 C1.42017534,36.716495 2.65989041,37.5118609 4.08476712,37.5118609 L27.7391671,37.5118609 C28.7756384,37.5118609 29.7137425,37.09136 30.3929096,36.4111701 C31.0720767,35.7306179 31.4923068,34.791101 31.4923068,33.753431 L31.4923068,33.4557121 L31.4926685,33.4557121 Z" id="Shape" fill="#F4534E"></path>
                            <path d="M21.0075288,38.4799907 L19.8542466,38.4799907 L22.5748932,42.6618189 L16.3951233,42.6618189 L16.3951233,38.4799907 L15.4291726,38.4799907 L15.4291726,42.6618189 L11.5700712,42.6618189 C11.3031781,42.6618189 11.0872767,42.8787698 11.0872767,43.1457027 C11.0872767,43.4126356 11.3035397,43.6295865 11.5700712,43.6295865 L15.4295342,43.6295865 L15.4295342,47.7183322 C15.4295342,47.9852651 15.6457973,48.202216 15.9123288,48.202216 C16.1788603,48.202216 16.3951233,47.9852651 16.3951233,47.7183322 L16.3951233,43.6295865 L23.2045151,43.6295865 L26.0365479,47.9827298 C26.1291288,48.1250699 26.2839123,48.202216 26.4419507,48.202216 C26.5323616,48.202216 26.6234959,48.1768628 26.7052274,48.1236211 C26.9287233,47.9780214 26.992011,47.6781293 26.8462685,47.4539346 L21.0075288,38.4799907 Z" id="Shape" fill="#F4534E"></path>
                            <path d="M29.0146849,4.36835526 L22.5539178,4.36835526 L22.5539178,6.94568848 C22.5539178,7.21298358 22.3376548,7.42957229 22.0711233,7.42957229 L9.75353425,7.42957229 C9.4866411,7.42957229 9.27073973,7.21298358 9.27073973,6.94568848 L9.27073973,4.36835526 L2.8099726,4.36835526 C2.54307945,4.36835526 2.32717808,4.58494397 2.32717808,4.85187688 L2.32717808,31.0243408 L29.4978411,31.0243408 L29.4978411,4.85187688 C29.4974795,4.58458178 29.2815781,4.36835526 29.0146849,4.36835526 Z" id="Shape" fill="#66CDCC"></path>
                            <path d="M17.8648438,2.11047227 C17.7715397,1.11372958 16.9318027,0.331040271 15.9123288,0.331040271 C14.8928548,0.331040271 14.0534795,1.11372958 13.9598137,2.11047227 L10.2366904,2.11047227 L10.2366904,6.46216686 L21.5883288,6.46216686 L21.5883288,2.11047227 L17.8648438,2.11047227 Z M15.9123288,1.2984457 C16.4616658,1.2984457 16.9082959,1.74574847 16.9082959,2.29591277 C16.9082959,2.84607708 16.4616658,3.29337985 15.9123288,3.29337985 C15.3629918,3.29337985 14.9163616,2.84607708 14.9163616,2.29591277 C14.9163616,1.74574847 15.3629918,1.2984457 15.9123288,1.2984457 Z" id="Shape" fill="#F4534E"></path>
                        </g>
                    </g>
                </g>
            </g>
        </g>
    </g>
</svg>