<?xml version="1.0" encoding="UTF-8" standalone="no"?>
<svg width="67px" height="66px" viewBox="0 0 67 66" version="1.1" xmlns="http://www.w3.org/2000/svg" xmlns:xlink="http://www.w3.org/1999/xlink">
    <!-- Generator: Sketch 41.2 (35397) - http://www.bohemiancoding.com/sketch -->
    <title>icon_copywriter</title>
    <desc>Created with Sketch.</desc>
    <defs></defs>
    <g id="2_廣場" stroke="none" stroke-width="1" fill="none" fill-rule="evenodd">
        <g id="2-5_提交申請" transform="translate(-110.000000, -567.000000)">
            <g id="icon_copywriter" transform="translate(110.333333, 567.000000)">
                <circle id="Oval-2-Copy" fill="#F7F7F7" cx="33" cy="33" r="33"></circle>
                <g id="creativity_learning_icons_ageeva-(cs2)-02" transform="translate(14.465753, 13.561644)">
                    <g id="Layer_1">
                        <g id="Group">
                            <path d="M31.0270685,6.37281908 L37.1385863,0.301442607 C34.9082137,0.70782428 32.7296219,1.33677279 30.6231781,2.17319887 L31.0270685,6.37281908 Z" id="Shape" fill="#66CDCC"></path>
                            <path d="M26.5711562,12.0950846 L34.1850082,11.3725139 C35.9241534,8.08888144 37.1278849,4.58714029 37.7164603,1.02298441 L26.5711562,12.0950846 Z" id="Shape" fill="#66CDCC"></path>
                            <path d="M25.5472767,13.1118961 L23.7698137,14.8776845 L32.6215726,14.0374861 C32.9805863,13.4798687 33.3268274,12.9157355 33.6530466,12.3426859 L25.5472767,13.1118961 Z" id="Shape" fill="#66CDCC"></path>
                            <path d="M22.7459342,15.8951819 L14.0899068,24.4943552 C13.9998082,24.5838621 13.8817479,24.628787 13.7640329,24.628787 C13.6463178,24.628787 13.5279123,24.5838621 13.4381589,24.4943552 C13.2583068,24.3156845 13.2583068,24.0255588 13.4381589,23.8465451 L16.9958466,20.3118819 L16.2488219,12.5422759 C11.9838082,17.5303108 9.1351726,23.5108087 8.13096986,29.6737496 L0.391117808,37.3631082 C0.211265753,37.5417789 0.211265753,37.8319046 0.391117808,38.0109183 C0.481216438,38.1004251 0.599276712,38.14535 0.716991781,38.14535 C0.834706849,38.14535 0.953112329,38.1004251 1.04286575,38.0109183 L8.79134795,30.3129863 C15.7714027,29.0262825 22.2522904,25.5752962 27.5411836,20.3207983 C29.191611,18.6812111 30.6718521,16.9006764 31.9694795,15.0196608 L22.7459342,15.8951819 Z" id="Shape" fill="#66CDCC"></path>
                            <path d="M31.6867562,34.7056807 C17.2937589,39.0291016 14.9491233,38.699538 14.5742301,38.4426774 C14.614274,38.2917846 14.9263397,37.6710666 17.3013534,36.0534275 C18.2233973,35.4255078 19.0329041,34.7526632 18.7160055,34.0856486 C18.4919671,33.6141086 18.1160384,32.825008 9.15346849,34.9618555 C7.18752329,35.4303089 5.22951781,35.9406009 3.68506849,36.3558989 L2.37328767,37.6590638 C9.27877808,35.7338092 16.3989863,34.1466915 17.7767014,34.482085 C17.6600219,34.6220038 17.3914521,34.8819509 16.7800932,35.2979348 C14.2348932,37.0308011 13.3504767,38.0558432 13.7274411,38.8360274 C13.8596548,39.110035 14.0377808,39.4793793 15.345074,39.4793793 C17.272011,39.4793793 21.6523233,38.6765612 31.9536,35.5822305 C32.1973151,35.5088418 32.3350521,35.2533529 32.2615233,35.0112385 C32.1876493,34.7691242 31.9294356,34.6322919 31.6867562,34.7056807 Z" id="Shape" fill="#F4534E"></path>
                            <path d="M17.8409096,19.4723694 L30.1958137,7.19861408 C30.1885644,7.17255078 30.1757918,7.14888805 30.1733753,7.12111006 L29.7328932,2.54151441 C25.562811,4.33302315 21.6972,6.95135569 18.3183288,10.3076911 C17.8944164,10.7288191 17.4860384,11.1619499 17.0845644,11.6005678 L17.8409096,19.4723694 Z" id="Shape" fill="#66CDCC"></path>
                        </g>
                    </g>
                </g>
            </g>
        </g>
    </g>
</svg>