<?xml version="1.0" encoding="UTF-8"?>
<svg width="46px" height="46px" viewBox="0 0 46 46" version="1.1" xmlns="http://www.w3.org/2000/svg" xmlns:xlink="http://www.w3.org/1999/xlink">
    <!-- Generator: Sketch 42 (36781) - http://www.bohemiancoding.com/sketch -->
    <title>logo</title>
    <desc>Created with Sketch.</desc>
    <defs>
        <rect id="path-1" x="0" y="0" width="46" height="46" rx="10"></rect>
        <linearGradient x1="100%" y1="52.7943611%" x2="0%" y2="52.7943611%" id="linearGradient-3">
            <stop stop-color="#FF634E" offset="0%"></stop>
            <stop stop-color="#F10145" offset="100%"></stop>
        </linearGradient>
        <rect id="path-4" x="0" y="0" width="46" height="46"></rect>
        <linearGradient x1="87.9982187%" y1="9.50404845%" x2="50%" y2="50%" id="linearGradient-6">
            <stop stop-color="#FF6D58" offset="0%"></stop>
            <stop stop-color="#FF0044" offset="100%"></stop>
        </linearGradient>
    </defs>
    <g id="H5" stroke="none" stroke-width="1" fill="none" fill-rule="evenodd">
        <g id="1.1主编主页" transform="translate(-16.000000, -73.000000)">
            <g id="顶端bar" transform="translate(0.000000, 64.000000)">
                <g id="logo" transform="translate(16.000000, 9.000000)">
                    <mask id="mask-2" fill="white">
                        <use xlink:href="#path-1"></use>
                    </mask>
                    <use id="Mask" fill="#F5334A" xlink:href="#path-1"></use>
                    <g id="shoelives_icon" mask="url(#mask-2)">
                        <g id="bg">
                            <g id="Mask" fill-rule="nonzero" fill="url(#linearGradient-3)">
                                <rect id="path-2" x="0" y="0" width="46" height="46"></rect>
                            </g>
                            <g id="Rectangle-5-Clipped">
                                <mask id="mask-5" fill="white">
                                    <use xlink:href="#path-4"></use>
                                </mask>
                                <g id="path-2"></g>
                                <polygon id="Rectangle-5" fill="url(#linearGradient-6)" fill-rule="nonzero" mask="url(#mask-5)" points="1.28901099 0 46.0635324 0 46.0635324 37.4199219"></polygon>
                            </g>
                        </g>
                        <g id="logo" transform="translate(7.076923, 6.015385)" fill-rule="nonzero" fill="#FFFFFF">
                            <g id="Group" transform="translate(1.378241, 0.000000)">
                                <g id="Page-1" transform="translate(0.010675, 0.023347)">
                                    <path d="M14.5242212,12.0800497 L9.44633679,7.85608573 L9.44680271,7.85556607 L0.00373278667,0 L0.00373278667,2.08755769 L6.5664209,7.5469997 C6.15057801,8.02740243 5.89868438,8.65475524 5.89868438,9.34129233 C5.89868438,9.74819109 5.98831774,10.1337258 6.1470253,10.480863 L0.00373278667,10.480863 L0.00373278667,10.6023495 L0.00373278667,12.0800497 L8.708303,12.0800497 L14.5242212,12.0800497 Z" id="Fill-3"></path>
                                    <path d="M19.6649654,8.65386606 L19.6649654,13.9027277 L13.8335551,13.9119662 L15.757207,15.5120768 L28.4849116,15.5113262 L28.4849116,13.9005913 L23.2141903,13.9027277 L23.2141903,8.65386606 L29.0464743,8.65386606 L29.0464743,7.05450607 L23.0531531,7.05450607 L23.0531531,1.33909949 L19.8260026,1.33909949 L19.8260026,7.05450607 C18.5688641,7.05450607 13.2421729,7.06368686 12.83262,7.06368686 L14.7546995,8.66304681 C16.2675755,8.66304681 18.5029932,8.65386606 19.6649654,8.65386606" id="Fill-7"></path>
                                </g>
                            </g>
                            <path d="M6.27091403,17.0889728 L6.26444923,17.0889728 L6.26444923,20.5549745 L6.23305719,20.5549745 L4.38261456,20.5549745 L4.38261456,15.5265669 L6.23305719,15.5265669 L6.27091403,15.5265669 L6.27091403,17.0889728 Z M9.49806457,17.0889728 L9.49806457,15.5265669 L9.53429065,15.5265669 L11.3864223,15.5265669 L11.3864223,20.5549745 L9.53429065,20.5549745 L9.49806457,20.5549745 L9.49806457,17.0889728 Z M14.5251043,24.9043514 L9.49806457,24.9043514 L9.49806457,22.134183 L9.54716197,22.134183 L14.3817142,22.134183 L14.3804911,13.9272069 L1.38767209,13.9272069 C1.38767209,13.9272069 1.38592485,21.6079919 1.38592485,22.0986147 L1.38592485,22.134183 L6.22921325,22.134183 L6.26444923,22.134183 L6.26444923,24.9043514 L0.0028686542,24.9043514 L0.0028686542,26.5037113 L6.26444923,26.5037113 L6.27091403,33.8170344 L9.49806457,33.8170344 L9.49806457,26.5037113 L16.4478244,26.5037113 L14.5251043,24.9043514 Z" id="Fill-1"></path>
                            <polygon id="Fill-5" points="24.6030881 30.6147173 24.5986035 24.1877141 29.8738094 24.2064221 29.8738094 22.6070621 24.4375663 22.5883541 24.4420509 17.3595863 21.2149004 17.3595863 21.2103576 22.5883541 15.2215792 22.6070621 17.1442993 24.2064221 21.0493786 24.1877141 21.0538632 30.6147173 13.3774849 30.6334252 15.300205 32.2327852 31.8184283 32.2327852 31.8184283 30.6334252"></polygon>
                        </g>
                    </g>
                </g>
            </g>
        </g>
    </g>
</svg>