<?xml version="1.0" encoding="UTF-8" standalone="no"?>
<svg width="46px" height="46px" viewBox="0 0 46 46" version="1.1" xmlns="http://www.w3.org/2000/svg" xmlns:xlink="http://www.w3.org/1999/xlink">
    <!-- Generator: Sketch 41.2 (35397) - http://www.bohemiancoding.com/sketch -->
    <title>logo</title>
    <desc>Created with Sketch.</desc>
    <defs>
        <rect id="path-1" x="0" y="0" width="46" height="46" rx="8"></rect>
    </defs>
    <g id="10-2分享鞋款(完整資料)" stroke="none" stroke-width="1" fill="none" fill-rule="evenodd">
        <g transform="translate(-16.000000, -73.000000)" id="顶端bar">
            <g transform="translate(0.000000, 64.000000)">
                <g id="logo" transform="translate(16.000000, 9.000000)">
                    <mask id="mask-2" fill="white">
                        <use xlink:href="#path-1"></use>
                    </mask>
                    <use id="Mask" fill="#F5334A" xlink:href="#path-1"></use>
                    <g mask="url(#mask-2)" id="Shape" fill="#FFFFFF">
                        <g transform="translate(8.000000, 6.000000)">
                            <path d="M13.6964595,24.2891102 L8.95859459,24.2891102 L8.95859459,21.5847754 L9.00483784,21.5847754 L13.5613514,21.5847754 L13.5601892,13.5728528 L1.3147027,13.5728528 C1.3147027,13.5728528 1.31310811,21.0710967 1.31310811,21.5500547 L1.31310811,21.5847754 L5.87775676,21.5847754 L5.911,21.5847754 L5.911,24.2891102 L0.00954054054,24.2891102 L0.00954054054,25.8504348 L5.911,25.8504348 L5.91705405,32.9900084 L8.95862162,32.9900084 L8.95862162,25.8504626 L15.5086216,25.8504626 L13.6964595,24.2891102 Z M8.95859459,16.6594769 L8.95859459,15.134233 L8.99275676,15.134233 L10.7383243,15.134233 L10.7383243,20.0431009 L8.99275676,20.0431009 L8.95859459,20.0431009 L8.95859459,16.6594769 Z M5.91702703,16.6594769 L5.91097297,16.6594769 L5.91097297,20.0431009 L5.88135135,20.0431009 L4.1372973,20.0431009 L4.1372973,15.134233 L5.88135135,15.134233 L5.91702703,15.134233 L5.91702703,16.6594769 Z"></path>
                            <path d="M15,11.7955433 L10.2141622,7.67198654 L10.2145946,7.67143146 L1.3147027,0.00255340622 L1.3147027,2.04053238 L7.49994595,7.37024054 C7.108,7.83926241 6.87062162,8.45166358 6.87062162,9.12190496 C6.87062162,9.51912616 6.95505405,9.89553154 7.10464865,10.2343852 L1.3147027,10.2343852 L1.3147027,10.3529798 L1.3147027,11.7955433 L9.51862162,11.7955433 L15,11.7955433 L15,11.7955433 Z"></path>
                            <path d="M23.1900541,29.8669428 L23.1858378,23.5926964 L28.1576757,23.610931 L28.1576757,22.0496341 L23.0341351,22.031344 L23.0384054,16.9268629 L19.9968108,16.9268629 L19.9925135,22.031344 L14.3482703,22.0496341 L16.1603243,23.610931 L19.8408378,23.5926964 L19.845027,29.8669428 L12.6101892,29.885233 L14.4223784,31.4465299 L29.9904054,31.4465299 L29.9904054,29.885233 L23.1900541,29.8669428 Z"></path>
                            <path d="M19.845027,8.45074769 L19.845027,13.5749066 L14.349,13.5838991 L16.1620541,15.1459731 L28.1576486,15.1452792 L28.1576486,13.5728528 L23.1900541,13.5749344 L23.1900541,8.45074769 L28.6869189,8.45074769 L28.6869189,6.88942304 L23.0383784,6.88942304 L23.0383784,1.30984188 L19.9968108,1.30984188 L19.9968108,6.88942304 C18.8119459,6.88942304 13.7917027,6.89841548 13.4057027,6.89841548 L15.2172703,8.45976787 C16.6430811,8.45976787 18.7499189,8.45074769 19.845027,8.45074769 Z"></path>
                        </g>
                    </g>
                </g>
            </g>
        </g>
    </g>
</svg>