<?xml version="1.0" encoding="UTF-8"?>
<svg width="101px" height="93px" viewBox="0 0 101 93" version="1.1" xmlns="http://www.w3.org/2000/svg" xmlns:xlink="http://www.w3.org/1999/xlink">
    <!-- Generator: Sketch 41.2 (35397) - http://www.bohemiancoding.com/sketch -->
    <title>img</title>
    <desc>Created with Sketch.</desc>
    <defs></defs>
    <g id="2_廣場" stroke="none" stroke-width="1" fill="none" fill-rule="evenodd">
        <g id="2-5_提交申請-copy-2" transform="translate(-137.000000, -174.000000)">
            <g id="img" transform="translate(137.000000, 174.000000)">
                <g id="Page-1">
                    <g id="Group-3">
                        <path d="M96.3857886,82 L39.521477,82 C39.4561549,82.0000106 39.3943481,82.0299397 39.3535284,82.0813222 C39.3126562,82.1327047 39.2972832,82.1999976 39.3116068,82.2642151 C39.3116068,82.3011985 40.5288536,86.4016477 37.8162822,89.1335227 C34.4688536,92.5047727 29.7048016,92.7002841 30.0143548,92.7055629 L85.5932172,92.7055629 C88.4599907,92.7471593 91.2367824,91.6979713 93.3689055,89.7675978 C95.4553294,87.8244473 96.6291855,85.0838007 96.6009055,82.2219318 C96.6023222,82.1635638 96.5802858,82.1070927 96.5397809,82.0653114 C96.4992759,82.0235353 96.4437653,81.9999842 96.3857886,82 Z" id="Fill-1" fill="#CFCFCF"></path>
                        <path d="M77.4788052,0.264204545 L11.0496623,0.264204545 C10.8817295,0.285446591 10.7557602,0.429279545 10.7557602,0.599744318 C10.7557602,0.770209091 10.8817295,0.914042045 11.0496623,0.935284091 C17.2513247,0.935284091 20.137039,6.52056818 20.137039,10.2775568 L20.137039,82.5427894 C20.137039,87.9642614 24.5390649,92.6618182 29.9222338,92.7357955 C35.4837922,92.8097727 40.0327273,88.8414205 40.0222338,83.2561364 C40.0308384,82.577379 40.5812229,82.0325523 41.2552208,82.0355008 L87.4266494,82.0355114 L87.4266494,10.2775568 C87.4122208,4.75129602 82.9660171,0.275829545 77.4788052,0.264204545 Z" id="Fill-3" fill="#F1E8E0"></path>
                        <polyline id="Fill-4" fill="#FFFFFF" points="71.3873247 45.3163636 68.213039 36.4760795 76.9908571 39.6782386"></polyline>
                        <polygon id="Fill-5" fill="#F5334A" points="71.3869049 45.3185301 76.9853481 39.6802994 100.785093 63.6494114 95.1866499 69.287642"></polygon>
                        <polygon id="Fill-6" fill="#9B9B9B" points="69.1731948 39.1498295 70.8626494 37.4483523 68.213039 36.4760795"></polygon>
                        <polygon id="Fill-7" fill="#F5334A" points="71.3872722 45.3155182 74.1067169 42.576721 97.9101345 66.5495847 95.1907423 69.2883765"></polygon>
                        <path d="M19.8064935,7.81517045 C19.0902382,3.46805455 15.3568742,0.280638068 10.9814545,0.280638068 C6.6060401,0.280638068 2.87267086,3.46805455 2.15641558,7.81517045 C2.14411195,7.8884608 2.16436442,7.96354773 2.21183179,8.02051023 C2.25929392,8.07747273 2.32918592,8.11055114 2.40301299,8.11107955 L19.5598961,8.11107955 C19.6333506,8.11107955 19.858961,8.11107955 19.8484675,8.06352273 C19.8389866,7.98003409 19.8249726,7.8971267 19.8064935,7.81517045 Z" id="Fill-28" fill="#CFCFCF"></path>
                        <rect id="Rectangle-15" fill="#CFCFCF" x="32.7922078" y="16.9090909" width="45.6467532" height="3.17045455"></rect>
                        <rect id="Rectangle-15-Copy" fill="#CFCFCF" x="32.7922078" y="24.3068182" width="45.6467532" height="3.17045455"></rect>
                        <rect id="Rectangle-15-Copy" fill="#CFCFCF" x="32.7922078" y="32.7613636" width="29.9064935" height="3.17045455"></rect>
                        <g id="Group" transform="translate(0.000000, 45.118812)">
                            <ellipse id="Oval" fill="#22BCB8" cx="18.8227273" cy="18.8762376" rx="18.8227273" ry="18.8762376"></ellipse>
                            <path d="M12.5367386,19.1791382 L12.5367386,12.3131207 L10.5264408,12.3131207 L10.5264408,19.1791382 L10.4922556,19.1791382 L10.4922556,21.189436 L10.5264408,21.189436 L10.5264408,21.193411 L12.5367386,21.193411 L12.5367386,21.189436 L27.8491867,21.189436 L27.8491867,19.1791382 L12.5367386,19.1791382 Z" id="Combined-Shape" stroke="#FFFFFF" stroke-width="1.94499993" fill="#FFFFFF" transform="translate(19.170721, 16.753266) rotate(-45.000000) translate(-19.170721, -16.753266) "></path>
                        </g>
                    </g>
                </g>
            </g>
        </g>
    </g>
</svg>