<?xml version="1.0" encoding="UTF-8"?>
<svg width="41px" height="23px" viewBox="0 0 41 23" version="1.1" xmlns="http://www.w3.org/2000/svg" xmlns:xlink="http://www.w3.org/1999/xlink">
    <!-- Generator: Sketch 43.1 (39012) - http://www.bohemiancoding.com/sketch -->
    <title>01</title>
    <desc>Created with Sketch.</desc>
    <defs></defs>
    <g id="Page-1" stroke="none" stroke-width="1" fill="none" fill-rule="evenodd">
        <g id="婚礼专题-copy" transform="translate(-277.000000, -1158.000000)" fill="#EA528C">
            <g id="鞋款1" transform="translate(15.000000, 1123.000000)">
                <g id="数字" transform="translate(199.000000, 0.000000)">
                    <path d="M85.32,41.16 C85.32,42.3333392 85.0800024,43.553327 84.6,44.82 C84.1199976,46.086673 83.4733374,47.3266606 82.66,48.54 C81.8466626,49.7533394 80.8933388,50.8999946 79.8,51.98 C78.7066612,53.0600054 77.5533394,54.0066626 76.34,54.82 C75.1266606,55.6333374 73.886673,56.2799976 72.62,56.76 C71.353327,57.2400024 70.120006,57.48 68.92,57.48 C67.186658,57.48 65.8600046,56.946672 64.94,55.88 C64.0199954,54.813328 63.56,53.4400084 63.56,51.76 C63.56,50.5066604 63.7999976,49.2266732 64.28,47.92 C64.7600024,46.6133268 65.4066626,45.3533394 66.22,44.14 C67.0333374,42.9266606 67.9866612,41.786672 69.08,40.72 C70.1733388,39.653328 71.3266606,38.7266706 72.54,37.94 C73.7533394,37.1533294 74.9999936,36.5333356 76.28,36.08 C77.5600064,35.6266644 78.7866608,35.4 79.96,35.4 C81.693342,35.4 83.0199954,35.9399946 83.94,37.02 C84.8600046,38.1000054 85.32,39.4799916 85.32,41.16 Z M81.48,41.24 C81.48,40.6533304 81.4400004,40.0533364 81.36,39.44 C81.2799996,38.8266636 81.1200012,38.2733358 80.88,37.78 C80.6399988,37.2866642 80.320002,36.8866682 79.92,36.58 C79.519998,36.2733318 79.0000032,36.12 78.36,36.12 C77.3733284,36.1466668 76.4200046,36.4133308 75.5,36.92 C74.5799954,37.4266692 73.7133374,38.0866626 72.9,38.9 C72.0866626,39.7133374 71.3400034,40.6399948 70.66,41.68 C69.9799966,42.7200052 69.4000024,43.7999944 68.92,44.92 C68.4399976,46.0400056 68.066668,47.1599944 67.8,48.28 C67.533332,49.4000056 67.4,50.4399952 67.4,51.4 C67.4,51.9866696 67.4599994,52.5866636 67.58,53.2 C67.7000006,53.8133364 67.8999986,54.3666642 68.18,54.86 C68.4600014,55.3533358 68.8399976,55.7533318 69.32,56.06 C69.8000024,56.3666682 70.3866632,56.52 71.08,56.52 C72.0400048,56.52 72.9666622,56.2600026 73.86,55.74 C74.7533378,55.2199974 75.5866628,54.5400042 76.36,53.7 C77.1333372,52.8599958 77.8333302,51.9000054 78.46,50.82 C79.0866698,49.7399946 79.6266644,48.633339 80.08,47.5 C80.5333356,46.366661 80.8799988,45.2533388 81.12,44.16 C81.3600012,43.0666612 81.48,42.0933376 81.48,41.24 Z M86.8,43.16 C89.866682,42.4666632 92.7866528,41.4466734 95.56,40.1 C98.3333472,38.7533266 100.959988,37.1866756 103.44,35.4 L103.72,35.64 C102.653328,37.3466752 101.553339,39.0866578 100.42,40.86 C99.286661,42.6333422 98.1666722,44.3999912 97.06,46.16 C95.9533278,47.9200088 94.866672,49.666658 93.8,51.4 C92.733328,53.133342 91.733338,54.8133252 90.8,56.44 L94.6,56.24 L94.44,56.52 C91.6933196,56.7600012 88.9333472,56.9199996 86.16,57 L97.32,39.76 L97.24,39.68 C95.639992,40.5066708 93.973342,41.2399968 92.24,41.88 C90.506658,42.5200032 88.7333424,43.0666644 86.92,43.52 L86.8,43.16 Z" id="01"></path>
                </g>
            </g>
        </g>
    </g>
</svg>