<?xml version="1.0" encoding="UTF-8"?>
<svg width="43px" height="23px" viewBox="0 0 43 23" version="1.1" xmlns="http://www.w3.org/2000/svg" xmlns:xlink="http://www.w3.org/1999/xlink">
    <!-- Generator: Sketch 43.1 (39012) - http://www.bohemiancoding.com/sketch -->
    <title>02</title>
    <desc>Created with Sketch.</desc>
    <defs></defs>
    <g id="Page-1" stroke="none" stroke-width="1" fill="none" fill-rule="evenodd">
        <g id="婚礼专题-copy" transform="translate(-51.000000, -1595.000000)" fill="#EA528C">
            <g id="鞋款1-copy" transform="translate(-2.000000, 1560.000000)">
                <g id="数字">
                    <path d="M75.6,41.16 C75.6,42.3333392 75.3600024,43.553327 74.88,44.82 C74.3999976,46.086673 73.7533374,47.3266606 72.94,48.54 C72.1266626,49.7533394 71.1733388,50.8999946 70.08,51.98 C68.9866612,53.0600054 67.8333394,54.0066626 66.62,54.82 C65.4066606,55.6333374 64.166673,56.2799976 62.9,56.76 C61.633327,57.2400024 60.400006,57.48 59.2,57.48 C57.466658,57.48 56.1400046,56.946672 55.22,55.88 C54.2999954,54.813328 53.84,53.4400084 53.84,51.76 C53.84,50.5066604 54.0799976,49.2266732 54.56,47.92 C55.0400024,46.6133268 55.6866626,45.3533394 56.5,44.14 C57.3133374,42.9266606 58.2666612,41.786672 59.36,40.72 C60.4533388,39.653328 61.6066606,38.7266706 62.82,37.94 C64.0333394,37.1533294 65.2799936,36.5333356 66.56,36.08 C67.8400064,35.6266644 69.0666608,35.4 70.24,35.4 C71.973342,35.4 73.2999954,35.9399946 74.22,37.02 C75.1400046,38.1000054 75.6,39.4799916 75.6,41.16 Z M71.76,41.24 C71.76,40.6533304 71.7200004,40.0533364 71.64,39.44 C71.5599996,38.8266636 71.4000012,38.2733358 71.16,37.78 C70.9199988,37.2866642 70.600002,36.8866682 70.2,36.58 C69.799998,36.2733318 69.2800032,36.12 68.64,36.12 C67.6533284,36.1466668 66.7000046,36.4133308 65.78,36.92 C64.8599954,37.4266692 63.9933374,38.0866626 63.18,38.9 C62.3666626,39.7133374 61.6200034,40.6399948 60.94,41.68 C60.2599966,42.7200052 59.6800024,43.7999944 59.2,44.92 C58.7199976,46.0400056 58.346668,47.1599944 58.08,48.28 C57.813332,49.4000056 57.68,50.4399952 57.68,51.4 C57.68,51.9866696 57.7399994,52.5866636 57.86,53.2 C57.9800006,53.8133364 58.1799986,54.3666642 58.46,54.86 C58.7400014,55.3533358 59.1199976,55.7533318 59.6,56.06 C60.0800024,56.3666682 60.6666632,56.52 61.36,56.52 C62.3200048,56.52 63.2466622,56.2600026 64.14,55.74 C65.0333378,55.2199974 65.8666628,54.5400042 66.64,53.7 C67.4133372,52.8599958 68.1133302,51.9000054 68.74,50.82 C69.3666698,49.7399946 69.9066644,48.633339 70.36,47.5 C70.8133356,46.366661 71.1599988,45.2533388 71.4,44.16 C71.6400012,43.0666612 71.76,42.0933376 71.76,41.24 Z M94.16,49.88 C93.6533308,50.7866712 93.1133362,51.6933288 92.54,52.6 C91.9666638,53.5066712 91.313337,54.3199964 90.58,55.04 C89.846663,55.7600036 89.0200046,56.3466644 88.1,56.8 C87.1799954,57.2533356 86.1333392,57.48 84.96,57.48 C84.159996,57.48 83.3800038,57.3400014 82.62,57.06 C81.8599962,56.7799986 81.1200036,56.4666684 80.4,56.12 C79.6533296,55.7999984 78.9400034,55.5000014 78.26,55.22 C77.5799966,54.9399986 76.8933368,54.8 76.2,54.8 C75.6133304,54.8 75.153335,54.9399986 74.82,55.22 C74.486665,55.5000014 74.2133344,55.7999984 74,56.12 C73.7599988,56.4666684 73.540001,56.7799986 73.34,57.06 C73.139999,57.3400014 72.8533352,57.48 72.48,57.48 C72.346666,57.48 72.246667,57.4333338 72.18,57.34 C72.113333,57.2466662 72.08,57.133334 72.08,57 C72.08,56.7066652 72.3933302,56.326669 73.02,55.86 C73.6466698,55.393331 74.4399952,54.8800028 75.4,54.32 C76.3600048,53.7599972 77.4199942,53.1866696 78.58,52.6 C79.7400058,52.0133304 80.8599946,51.4666692 81.94,50.96 C83.0200054,50.4533308 83.9733292,50.000002 84.8,49.6 C85.6266708,49.199998 86.1999984,48.9200008 86.52,48.76 C87.2400036,48.3866648 87.9266634,47.9400026 88.58,47.42 C89.2333366,46.8999974 89.8133308,46.3200032 90.32,45.68 C90.8266692,45.0399968 91.2266652,44.3333372 91.52,43.56 C91.8133348,42.7866628 91.96,41.9466712 91.96,41.04 C91.96,40.3199964 91.8400012,39.6533364 91.6,39.04 C91.3599988,38.4266636 91.0333354,37.9066688 90.62,37.48 C90.2066646,37.0533312 89.733336,36.7200012 89.2,36.48 C88.666664,36.2399988 88.0933364,36.12 87.48,36.12 C86.8666636,36.12 86.3000026,36.2399988 85.78,36.48 C85.2599974,36.7200012 84.8200018,37.039998 84.46,37.44 C84.0999982,37.840002 83.820001,38.2933308 83.62,38.8 C83.419999,39.3066692 83.32,39.826664 83.32,40.36 C83.32,41.2133376 83.5266646,41.939997 83.94,42.54 C84.3533354,43.140003 84.9999956,43.44 85.88,43.44 C86.4666696,43.44 86.9999976,43.2666684 87.48,42.92 C86.8933304,44.8133428 85.6800092,45.76 83.84,45.76 C82.906662,45.76 82.1200032,45.460003 81.48,44.86 C80.8399968,44.259997 80.52,43.360006 80.52,42.16 C80.52,41.4133296 80.7066648,40.640004 81.08,39.84 C81.4533352,39.039996 82.0133296,38.3133366 82.76,37.66 C83.5066704,37.0066634 84.4199946,36.4666688 85.5,36.04 C86.5800054,35.6133312 87.8266596,35.4 89.24,35.4 C90.040004,35.4 90.8266628,35.5133322 91.6,35.74 C92.3733372,35.9666678 93.0733302,36.3066644 93.7,36.76 C94.3266698,37.2133356 94.8333314,37.7866632 95.22,38.48 C95.6066686,39.1733368 95.8,39.9999952 95.8,40.96 C95.8,42.160006 95.533336,43.2199954 95,44.14 C94.466664,45.0600046 93.7733376,45.8733298 92.92,46.58 C92.0666624,47.2866702 91.0933388,47.8999974 90,48.42 C88.9066612,48.9400026 87.793339,49.4133312 86.66,49.84 C85.526661,50.2666688 84.4200054,50.6666648 83.34,51.04 C82.2599946,51.4133352 81.3066708,51.799998 80.48,52.2 L78.64,53.08 C78.0266636,53.3733348 77.453336,53.6666652 76.92,53.96 L77,54.04 C78.1200056,53.6133312 79.2933272,53.4 80.52,53.4 C81.2666704,53.4 81.9799966,53.4799992 82.66,53.64 C83.3400034,53.8000008 83.9933302,53.9733324 84.62,54.16 C85.2466698,54.3466676 85.8466638,54.5199992 86.42,54.68 C86.9933362,54.8400008 87.5599972,54.92 88.12,54.92 C88.8133368,54.92 89.4466638,54.7466684 90.02,54.4 C90.5933362,54.0533316 91.1266642,53.613336 91.62,53.08 C92.1133358,52.546664 92.5533314,51.9733364 92.94,51.36 C93.3266686,50.7466636 93.6666652,50.1866692 93.96,49.68 L94.16,49.88 Z" id="02"></path>
                </g>
            </g>
        </g>
    </g>
</svg>