<?xml version="1.0" encoding="UTF-8"?>
<svg width="44px" height="23px" viewBox="0 0 44 23" version="1.1" xmlns="http://www.w3.org/2000/svg" xmlns:xlink="http://www.w3.org/1999/xlink">
    <!-- Generator: Sketch 43.1 (39012) - http://www.bohemiancoding.com/sketch -->
    <title>03</title>
    <desc>Created with Sketch.</desc>
    <defs></defs>
    <g id="Page-1" stroke="none" stroke-width="1" fill="none" fill-rule="evenodd">
        <g id="婚礼专题-copy" transform="translate(-280.000000, -2032.000000)" fill="#EA528C">
            <g id="鞋款1-copy-2" transform="translate(15.000000, 1997.000000)">
                <g id="数字" transform="translate(199.000000, 0.000000)">
                    <path d="M88.1,41.16 C88.1,42.3333392 87.8600024,43.553327 87.38,44.82 C86.8999976,46.086673 86.2533374,47.3266606 85.44,48.54 C84.6266626,49.7533394 83.6733388,50.8999946 82.58,51.98 C81.4866612,53.0600054 80.3333394,54.0066626 79.12,54.82 C77.9066606,55.6333374 76.666673,56.2799976 75.4,56.76 C74.133327,57.2400024 72.900006,57.48 71.7,57.48 C69.966658,57.48 68.6400046,56.946672 67.72,55.88 C66.7999954,54.813328 66.34,53.4400084 66.34,51.76 C66.34,50.5066604 66.5799976,49.2266732 67.06,47.92 C67.5400024,46.6133268 68.1866626,45.3533394 69,44.14 C69.8133374,42.9266606 70.7666612,41.786672 71.86,40.72 C72.9533388,39.653328 74.1066606,38.7266706 75.32,37.94 C76.5333394,37.1533294 77.7799936,36.5333356 79.06,36.08 C80.3400064,35.6266644 81.5666608,35.4 82.74,35.4 C84.473342,35.4 85.7999954,35.9399946 86.72,37.02 C87.6400046,38.1000054 88.1,39.4799916 88.1,41.16 Z M84.26,41.24 C84.26,40.6533304 84.2200004,40.0533364 84.14,39.44 C84.0599996,38.8266636 83.9000012,38.2733358 83.66,37.78 C83.4199988,37.2866642 83.100002,36.8866682 82.7,36.58 C82.299998,36.2733318 81.7800032,36.12 81.14,36.12 C80.1533284,36.1466668 79.2000046,36.4133308 78.28,36.92 C77.3599954,37.4266692 76.4933374,38.0866626 75.68,38.9 C74.8666626,39.7133374 74.1200034,40.6399948 73.44,41.68 C72.7599966,42.7200052 72.1800024,43.7999944 71.7,44.92 C71.2199976,46.0400056 70.846668,47.1599944 70.58,48.28 C70.313332,49.4000056 70.18,50.4399952 70.18,51.4 C70.18,51.9866696 70.2399994,52.5866636 70.36,53.2 C70.4800006,53.8133364 70.6799986,54.3666642 70.96,54.86 C71.2400014,55.3533358 71.6199976,55.7533318 72.1,56.06 C72.5800024,56.3666682 73.1666632,56.52 73.86,56.52 C74.8200048,56.52 75.7466622,56.2600026 76.64,55.74 C77.5333378,55.2199974 78.3666628,54.5400042 79.14,53.7 C79.9133372,52.8599958 80.6133302,51.9000054 81.24,50.82 C81.8666698,49.7399946 82.4066644,48.633339 82.86,47.5 C83.3133356,46.366661 83.6599988,45.2533388 83.9,44.16 C84.1400012,43.0666612 84.26,42.0933376 84.26,41.24 Z M95.9,45.88 C96.9400052,45.8266664 98.059994,45.7200008 99.26,45.56 C100.460006,45.3999992 101.566662,45.1000022 102.58,44.66 C103.593338,44.2199978 104.439997,43.600004 105.12,42.8 C105.800003,41.999996 106.14,40.93334 106.14,39.6 C106.14,38.5866616 105.813337,37.7533366 105.16,37.1 C104.506663,36.4466634 103.673338,36.12 102.66,36.12 C101.673328,36.12 100.873336,36.4599966 100.26,37.14 C99.6466636,37.8200034 99.34,38.6399952 99.34,39.6 C99.34,40.2133364 99.539998,40.719998 99.94,41.12 C100.340002,41.520002 100.806664,41.72 101.34,41.72 C101.686668,41.72 101.979999,41.6666672 102.22,41.56 C102.460001,41.4533328 102.659999,41.333334 102.82,41.2 C102.553332,41.9733372 102.10667,42.5866644 101.48,43.04 C100.85333,43.4933356 100.140004,43.72 99.34,43.72 C98.4333288,43.72 97.7400024,43.4333362 97.26,42.86 C96.7799976,42.2866638 96.54,41.5733376 96.54,40.72 C96.54,40.1599972 96.6866652,39.5666698 96.98,38.94 C97.2733348,38.3133302 97.7333302,37.7400026 98.36,37.22 C98.9866698,36.6999974 99.766662,36.2666684 100.7,35.92 C101.633338,35.5733316 102.739994,35.4 104.02,35.4 C104.740004,35.4 105.439997,35.4733326 106.12,35.62 C106.800003,35.7666674 107.406664,36.006665 107.94,36.34 C108.473336,36.673335 108.906665,37.0999974 109.24,37.62 C109.573335,38.1400026 109.74,38.7733296 109.74,39.52 C109.74,40.6933392 109.40667,41.6533296 108.74,42.4 C108.07333,43.1466704 107.246672,43.7466644 106.26,44.2 C105.273328,44.6533356 104.226672,44.9933322 103.12,45.22 C102.013328,45.4466678 101.020004,45.6399992 100.14,45.8 L100.14,45.88 C100.80667,45.88 101.479997,45.9399994 102.16,46.06 C102.840003,46.1800006 103.453331,46.3933318 104,46.7 C104.546669,47.0066682 104.993332,47.4199974 105.34,47.94 C105.686668,48.4600026 105.86,49.119996 105.86,49.92 C105.86,51.386674 105.480004,52.6066618 104.72,53.58 C103.959996,54.5533382 103.026672,55.3266638 101.92,55.9 C100.813328,56.4733362 99.6333396,56.8799988 98.38,57.12 C97.1266604,57.3600012 95.9933384,57.48 94.98,57.48 C93.8599944,57.48 92.8066716,57.380001 91.82,57.18 C90.8333284,56.979999 89.9800036,56.6600022 89.26,56.22 C88.5399964,55.7799978 87.9733354,55.2133368 87.56,54.52 C87.1466646,53.8266632 86.94,53.0000048 86.94,52.04 C86.94,50.8933276 87.3199962,49.9333372 88.08,49.16 C88.8400038,48.3866628 89.7933276,48 90.94,48 C91.6600036,48 92.2933306,48.1599984 92.84,48.48 C93.3866694,48.8000016 93.9133308,49.1999976 94.42,49.68 L94.26,49.96 C94.0999992,49.9066664 93.920001,49.8600002 93.72,49.82 C93.519999,49.7799998 93.3000012,49.76 93.06,49.76 C92.126662,49.76 91.4333356,50.0999966 90.98,50.78 C90.5266644,51.4600034 90.3,52.2133292 90.3,53.04 C90.3,54.2933396 90.7599954,55.2666632 91.68,55.96 C92.6000046,56.6533368 93.6999936,57 94.98,57 C96.046672,57 97.013329,56.7933354 97.88,56.38 C98.746671,55.9666646 99.4866636,55.4200034 100.1,54.74 C100.713336,54.0599966 101.186665,53.286671 101.52,52.42 C101.853335,51.553329 102.02,50.6800044 102.02,49.8 C102.02,48.46666 101.626671,47.533336 100.84,47 C100.053329,46.466664 99.0066732,46.2 97.7,46.2 C97.3266648,46.2 96.9866682,46.2199998 96.68,46.26 C96.3733318,46.3000002 96.0733348,46.3466664 95.78,46.4 L95.9,45.88 Z" id="03"></path>
                </g>
            </g>
        </g>
    </g>
</svg>