<?xml version="1.0" encoding="UTF-8"?>
<svg width="46px" height="26px" viewBox="0 0 46 26" version="1.1" xmlns="http://www.w3.org/2000/svg" xmlns:xlink="http://www.w3.org/1999/xlink">
    <!-- Generator: Sketch 43.1 (39012) - http://www.bohemiancoding.com/sketch -->
    <title>04</title>
    <desc>Created with Sketch.</desc>
    <defs></defs>
    <g id="Page-1" stroke="none" stroke-width="1" fill="none" fill-rule="evenodd">
        <g id="婚礼专题-copy" transform="translate(-51.000000, -2466.000000)" fill="#EA528C">
            <g id="鞋款1-copy-3" transform="translate(-2.000000, 2434.000000)">
                <g id="数字">
                    <path d="M75.6,41.16 C75.6,42.3333392 75.3600024,43.553327 74.88,44.82 C74.3999976,46.086673 73.7533374,47.3266606 72.94,48.54 C72.1266626,49.7533394 71.1733388,50.8999946 70.08,51.98 C68.9866612,53.0600054 67.8333394,54.0066626 66.62,54.82 C65.4066606,55.6333374 64.166673,56.2799976 62.9,56.76 C61.633327,57.2400024 60.400006,57.48 59.2,57.48 C57.466658,57.48 56.1400046,56.946672 55.22,55.88 C54.2999954,54.813328 53.84,53.4400084 53.84,51.76 C53.84,50.5066604 54.0799976,49.2266732 54.56,47.92 C55.0400024,46.6133268 55.6866626,45.3533394 56.5,44.14 C57.3133374,42.9266606 58.2666612,41.786672 59.36,40.72 C60.4533388,39.653328 61.6066606,38.7266706 62.82,37.94 C64.0333394,37.1533294 65.2799936,36.5333356 66.56,36.08 C67.8400064,35.6266644 69.0666608,35.4 70.24,35.4 C71.973342,35.4 73.2999954,35.9399946 74.22,37.02 C75.1400046,38.1000054 75.6,39.4799916 75.6,41.16 Z M71.76,41.24 C71.76,40.6533304 71.7200004,40.0533364 71.64,39.44 C71.5599996,38.8266636 71.4000012,38.2733358 71.16,37.78 C70.9199988,37.2866642 70.600002,36.8866682 70.2,36.58 C69.799998,36.2733318 69.2800032,36.12 68.64,36.12 C67.6533284,36.1466668 66.7000046,36.4133308 65.78,36.92 C64.8599954,37.4266692 63.9933374,38.0866626 63.18,38.9 C62.3666626,39.7133374 61.6200034,40.6399948 60.94,41.68 C60.2599966,42.7200052 59.6800024,43.7999944 59.2,44.92 C58.7199976,46.0400056 58.346668,47.1599944 58.08,48.28 C57.813332,49.4000056 57.68,50.4399952 57.68,51.4 C57.68,51.9866696 57.7399994,52.5866636 57.86,53.2 C57.9800006,53.8133364 58.1799986,54.3666642 58.46,54.86 C58.7400014,55.3533358 59.1199976,55.7533318 59.6,56.06 C60.0800024,56.3666682 60.6666632,56.52 61.36,56.52 C62.3200048,56.52 63.2466622,56.2600026 64.14,55.74 C65.0333378,55.2199974 65.8666628,54.5400042 66.64,53.7 C67.4133372,52.8599958 68.1133302,51.9000054 68.74,50.82 C69.3666698,49.7399946 69.9066644,48.633339 70.36,47.5 C70.8133356,46.366661 71.1599988,45.2533388 71.4,44.16 C71.6400012,43.0666612 71.76,42.0933376 71.76,41.24 Z M81.08,57 L86.04,49.56 L74.68,49.56 L95,32.28 L97.12,32.28 L76.32,48.76 L76.32,48.84 L86.44,48.84 L94,36.52 L98.44,36 C96.973326,38.0800104 95.5666734,40.1999892 94.22,42.36 C92.8733266,44.5200108 91.5066736,46.6799892 90.12,48.84 L94.88,48.84 L94.56,49.56 L89.72,49.56 C89.0266632,50.760006 88.313337,51.9466608 87.58,53.12 C86.846663,54.2933392 86.14667,55.5066604 85.48,56.76 L81.08,57 Z" id="04"></path>
                </g>
            </g>
        </g>
    </g>
</svg>