<?xml version="1.0" encoding="UTF-8"?>
<svg width="61px" height="64px" viewBox="0 0 61 64" version="1.1" xmlns="http://www.w3.org/2000/svg" xmlns:xlink="http://www.w3.org/1999/xlink">
    <!-- Generator: Sketch 43.1 (39012) - http://www.bohemiancoding.com/sketch -->
    <title>设计婚鞋icon</title>
    <desc>Created with Sketch.</desc>
    <defs></defs>
    <g id="Page-1" stroke="none" stroke-width="1" fill="none" fill-rule="evenodd">
        <g id="婚礼专题-copy" transform="translate(-292.000000, -3295.000000)">
            <g id="纯手工打造" transform="translate(287.000000, 3295.000000)">
                <g id="设计婚鞋icon" transform="translate(5.000000, 0.000000)">
                    <path d="M34.3650315,4.53575438 C33.0521768,4.35601705 31.7116705,4.26315789 30.3494898,4.26315789 C14.1402142,4.26315789 1,17.4118479 1,33.6315789 C1,49.85131 14.1402142,63 30.3494898,63 C46.5587654,63 59.6989796,49.85131 59.6989796,33.6315789 C59.6989796,29.8424108 58.9818413,26.2208473 57.6759692,22.8953757" id="Oval" stroke="#EA528C" stroke-width="1.09107143" stroke-linecap="round"></path>
                    <g id="手工匹配" transform="translate(13.000000, 20.000000)" fill-rule="nonzero">
                        <path d="M28.3942502,12.5 C27.7181721,12.5 27.0420941,12.75 26.5913753,13 C26.1406566,11.5 25.0138598,10.5 23.4363443,10.5 C22.7602662,10.5 22.0841881,10.75 21.6334694,11 C21.1827507,9.5 20.0559539,8.5 18.4784383,8.5 C17.8023602,8.5 17.3516415,8.75 16.9009228,9 L16.9009228,5.5 C16.9009228,3.5 15.5487666,2 13.5205324,2 C11.4922981,2 10.140142,3.5 10.140142,5.5 L10.140142,19.25 L8.11190772,17 C6.75975155,15.5 4.28079858,15.75 3.15400178,17 C2.02720497,18.25 1.35112689,20.5 2.92864241,22.25 L12.6190949,32.25 C12.8444543,32.5 13.0698137,32.75 13.295173,32.75 C15.0980479,34.25 17.1262822,35 21.40811,35 C31.0985626,35 32,29.5 32,22.75 L32,15.75 C31.5492813,14 30.1971251,12.5 28.3942502,12.5 L28.3942502,12.5 Z" id="Shape" fill="#EA528C"></path>
                        <path d="M26.3942502,10.5 C25.7181721,10.5 25.0420941,10.75 24.5913753,11 C24.1406566,9.5 23.0138598,8.5 21.4363443,8.5 C20.7602662,8.5 20.0841881,8.75 19.6334694,9 C19.1827507,7.5 18.0559539,6.5 16.4784383,6.5 C15.8023602,6.5 15.3516415,6.75 14.9009228,7 L14.9009228,3.5 C14.9009228,1.5 13.5487666,-3.19744231e-14 11.5205324,-3.19744231e-14 C9.49229814,-3.19744231e-14 8.14014197,1.5 8.14014197,3.5 L8.14014197,17.25 L6.11190772,15 C4.75975155,13.5 2.28079858,13.75 1.15400178,15 C0.0272049705,16.25 -0.648873113,18.5 0.928642415,20.25 L10.6190949,30.25 C10.8444543,30.5 11.0698137,30.75 11.295173,30.75 C13.0980479,32.25 15.1262822,33 19.40811,33 C29.0985626,33 30,27.5 30,20.75 L30,13.75 C29.5492813,12 28.1971251,10.5 26.3942502,10.5 L26.3942502,10.5 Z" id="Shape" stroke="#131313" stroke-width="1.5"></path>
                    </g>
                    <g id="手工绘-(1)" transform="translate(37.523810, 1.000000)" fill-rule="nonzero">
                        <polygon id="Shape" fill="#EA528C" points="13.1672972 7.21004687 15.7088675 3.9281031 10.4540604 0 7.91249012 3.28194378 6.46380638 2.1532961 3.74093816 5.66881198 5.1896219 6.79745965 2.41633021 10.3783303 7.67113726 14.3064334 10.444429 10.7255628 18.9937593 17.5207492 21.7166275 14.0052333"></polygon>
                        <polygon id="Shape" stroke="#131313" stroke-width="0.94" points="11.2942813 7.21004687 13.8358516 3.9281031 8.58104455 0 6.03947425 3.28194378 4.5907905 2.1532961 1.86792228 5.66881198 3.31660603 6.79745965 0.543314337 10.3783303 5.79812139 14.3064334 8.57141308 10.7255628 17.1207434 17.5207492 19.8436116 14.0052333"></polygon>
                    </g>
                </g>
            </g>
        </g>
    </g>
</svg>