<?xml version="1.0" encoding="UTF-8"?>
<svg width="61px" height="63px" viewBox="0 0 61 63" version="1.1" xmlns="http://www.w3.org/2000/svg" xmlns:xlink="http://www.w3.org/1999/xlink">
    <!-- Generator: Sketch 43.1 (39012) - http://www.bohemiancoding.com/sketch -->
    <title>设计婚鞋icon</title>
    <desc>Created with Sketch.</desc>
    <defs>
        <path d="M3.87626984,7.4702431 C4.61726515,6.10576078 2.76260607,5.38271606 3.96634656,4.02293442 C5.17008706,2.66315277 6.73854358,4.36630086 7.68331644,3.14864455 C8.6280893,1.93098823 5.71423777,1.03040222 8.04837232,0.886580031 C10.3825069,0.742757841 9.96617553,3.66135122 9.96617553,3.66135122 C9.96617553,3.66135122 13.3389559,4.66315044 12.8774987,4.73896886 C12.4160416,4.81478728 15.9466579,1.26379228 16.8482235,3.80018061 C17.749789,6.33656894 14.6412574,4.17775244 14.4589427,5.93269631 C14.276628,7.68764018 14.6120893,7.80496304 13.2914172,7.44999158 C11.9707451,7.09502012 10.8320497,7.8843118 10.7998426,9.12158158 C10.7676355,10.3588514 10.7445413,11.3998547 9.78800362,12.1973354 C8.83146597,12.9948162 6.14130466,9.02429163 6.14130466,9.02429163 C6.14130466,9.02429163 3.14660316,11.7150373 1.35081358,9.93972667 C-0.444976001,8.164416 3.13527453,8.83472542 3.87626984,7.4702431 Z" id="path-1"></path>
        <rect id="path-2" x="0.872294372" y="4.42435192" width="6.97835498" height="1"></rect>
    </defs>
    <g id="Page-1" stroke="none" stroke-width="1" fill="none" fill-rule="evenodd">
        <g id="婚礼专题-copy" transform="translate(-28.000000, -3296.000000)">
            <g id="亲手设计婚鞋" transform="translate(18.000000, 3295.000000)">
                <g id="设计婚鞋icon" transform="translate(10.000000, 0.000000)">
                    <g id="中跟鞋" transform="translate(7.542208, 24.893166)">
                        <path d="M2.22957036,13.4910775 C2.22957036,13.4910775 5.03490292,14.2567131 6.46114442,14.6790794 C7.88738592,15.1014457 10.6927185,15.9973491 10.6927185,15.9973491 L10.6927185,23.1482375 C10.6927185,23.1482375 6.10703105,23.1114717 4.31823331,22.9398059 C2.57506457,22.9398059 2.69954213,21.8563112 2.69954213,21.8563112 L2.22957036,13.4910775 Z M4.31823331,1.57841882 C4.31823331,1.57841882 4.41835574,1.36057719 4.94459919,1.47263084 C10.2615003,2.35274018 11.0396154,2.67170695 18.2819253,8.92674891 C21.5974979,11.317297 24.7644798,12.531549 27.2559835,13.2170614 C29.8278812,13.9246934 31.6800055,14.0689134 32.2328016,14.3620069 C33.3211141,14.9390322 38.8334542,16.2134422 40.7170665,16.8097017 C44.5920591,18.0383577 43.3483566,19.9829039 43.3483566,20.2450424 C43.3483566,20.5071809 42.5517462,21.379276 39.8734167,22.1506831 C37.1950873,22.9220902 29.0926712,24.0086755 26.0295804,23.7284685 C22.9664896,23.4482615 20.6973878,21.7125227 20.3210732,21.379276 C16.0445714,17.9067784 12.6673511,16.7699219 11.5034553,16.2134422 C10.3395594,15.6569625 3.70279755,13.9048041 3.39069919,13.7849816 C2.22957036,13.6234237 1.31689076,12.7916529 1.27946318,10.5045343 C1.27946318,5.92869435 4.31823331,1.57841882 4.31823331,1.57841882 Z" id="Combined-Shape" fill="#EA528C"></path>
                        <path d="M1.00830163,20.583449 C0.996604065,20.8206239 1.05472539,21.0986299 1.2405264,21.3680886 C1.56134281,21.8333539 2.16228816,22.0948193 3.05580915,22.0948193 C3.64054483,22.1529005 4.62652771,22.2002553 5.87918477,22.2369928 C6.6555065,22.2597605 7.48679857,22.2770544 8.31802324,22.2896233 C8.60889887,22.2940216 8.87901345,22.2975156 9.12146602,22.3001976 C9.37098054,22.3027889 9.37098054,22.3027889 9.42686397,22.3032372 L9.85816548,22.3066952 L9.85816548,21.8753798 L9.85816548,15.5522966 L9.85816548,15.2350337 L9.55458275,15.1428749 C9.39941458,15.0957704 9.12769844,15.0133827 8.77778139,14.9074501 C8.19458237,14.7308946 7.61009422,14.5543372 7.06273147,14.3895367 C7.04708174,14.3848249 7.04708174,14.3848249 7.03143122,14.3801134 C6.33433165,14.1702589 5.75103534,13.9956268 5.31883421,13.867635 C4.88489824,13.7391294 4.29458448,13.5629359 3.58701601,13.3509146 C3.57592484,13.3475911 3.57592484,13.3475911 3.5648339,13.3442675 C3.01452075,13.1793561 2.42623571,13.002655 1.83885955,12.8259525 C1.48643204,12.7199305 1.2126164,12.6374659 1.05634056,12.5903613 L1.05634056,12.5903613 L0.464949371,12.4121044 L0.505930891,13.0284156 L1.00830163,20.583449 Z M2.69280669,0.0781415537 C2.59069808,0.225745152 2.42382065,0.483784378 2.21318832,0.838186092 C1.84963473,1.44988711 1.48644112,2.13390299 1.14737858,2.87458534 C0.17431384,5.00024595 -0.410832133,7.15962209 -0.410832133,9.23167664 C-0.373558315,11.5128997 0.513688739,12.7194656 2.06930966,12.9359125 C2.08455138,12.9536587 5.24507916,13.8300804 6.14821613,14.0879495 C6.37599254,14.1530836 6.45512597,14.1757853 6.60288225,14.2183936 C8.42878266,14.7449255 9.64943452,15.1319928 10.0564686,15.3266032 C10.2630216,15.4253599 11.416027,15.9207588 11.3370809,15.8862584 C12.019653,16.1845511 12.6305705,16.4712699 13.2861616,16.8101008 C15.1032458,17.7492292 16.9173381,18.9188479 18.7889377,20.4385772 C19.1522606,20.7608415 19.8744486,21.2537282 20.7103494,21.6817508 C21.9565219,22.3198529 23.3098107,22.7519527 24.728178,22.8817029 C27.6067379,23.1450292 35.6942157,22.1631742 38.7294133,21.2889826 C41.0974138,20.6069558 42.5138035,19.6858953 42.5138035,18.9721847 C42.5138035,19.0154304 42.5597821,18.8721764 42.5915291,18.7640212 C42.8291449,17.9545163 42.7323667,17.1947729 42.0341671,16.4682086 C41.5243913,15.9377228 40.7215619,15.4896859 39.5839637,15.1289841 C39.1878824,15.0036041 38.6293706,14.8463879 37.8315078,14.632935 C37.348542,14.5037268 35.3421958,13.9766658 35.5437063,14.0298166 C35.3202654,13.9708291 35.3202654,13.9708291 35.0975389,13.911764 C32.8716006,13.3206522 31.6058969,12.9418113 31.1708064,12.7111255 C31.0219039,12.6321771 30.8279857,12.5682305 30.5604695,12.5027699 C30.7317071,12.5446713 27.4826202,11.9101329 26.1070658,11.5316628 C23.0404893,10.6879248 20.1272419,9.36710238 17.2697382,7.30682475 C10.1773678,1.17910995 9.300103,0.696018178 3.75204993,-0.222353855 C3.39781326,-0.298239736 3.10201941,-0.261690383 2.88805629,-0.120404258 C2.7990987,-0.0616629462 2.73502791,0.00777345839 2.69280669,0.0781415537 Z" id="Combined-Shape" stroke="#131313" stroke-width="0.855742297"></path>
                        <path d="M3.0944018,0.410911974 C3.0944018,0.410911974 8.12863002,2.39960936 13.3596079,7.92448114 C15.178268,9.82254475 19.911328,16.6570892 28.9122973,16.0777324 C30.5521206,15.8257938 33.2533432,14.3496346 31.4403628,12.7840892" id="Path-7" stroke="#131313" stroke-width="0.855742297" stroke-linecap="round"></path>
                        <g id="荷叶边" transform="translate(22.648682, 11.312945) rotate(9.000000) translate(-22.648682, -11.312945) translate(13.648682, 4.812945)">
                            <g id="Path-8">
                                <use fill="#FFFFFF" fill-rule="evenodd" xlink:href="#path-1"></use>
                                <path stroke="#131313" stroke-width="0.855742297" d="M6.05548759,9.64504524 C6.08857838,9.69076905 6.12384223,9.73915141 6.1611506,9.78993659 C6.44895249,10.1817005 6.75475557,10.5736003 7.06629575,10.9406247 C7.32971132,11.2509536 7.58598657,11.5299414 7.83201823,11.7701998 C8.73285516,12.6498981 9.46985292,13.019651 10.0619943,12.5259733 C10.9881027,11.7538619 11.1786791,11.0102593 11.2266363,9.16855092 C11.2271024,9.15064146 11.2271024,9.15064146 11.2275688,9.13271563 C11.2525435,8.17328891 12.1274629,7.58019991 13.1803554,7.86319733 C14.4300903,8.19910225 14.7521767,8.04949328 14.814604,6.94791508 C14.8522235,6.28409004 14.8515743,6.29407422 14.8845235,5.97690834 C14.9187843,5.64711735 15.0809573,5.5758645 15.726707,5.58273647 C15.7939695,5.58359809 15.7939695,5.58359809 15.8628182,5.58478274 C16.5503722,5.59664154 16.8100401,5.56771509 17.0991584,5.33637757 C17.510485,5.00725537 17.5350605,4.45495068 17.2513831,3.65687653 C16.7420593,2.22398807 15.5087816,2.15567258 14.1319865,2.97972677 C13.6746178,3.25347598 13.2182287,3.61774109 12.8726143,3.96634419 C12.8198543,4.01956038 12.7708958,4.07125284 12.7263099,4.12088048 C12.4858188,4.023695 12.1474052,3.90387037 11.7292988,3.7655185 C11.3824291,3.65073894 11.0006975,3.5298176 10.6118295,3.41012796 C10.5433263,3.38904337 10.479072,3.36936518 10.4197779,3.35128345 C10.4352977,2.97003714 10.4075357,2.56412978 10.3112722,2.16989718 C10.0411603,1.06369544 9.29184288,0.381278584 8.02205812,0.459518815 C7.17137766,0.511935127 6.75337108,0.657784139 6.695221,1.13737497 C6.67017431,1.34394673 6.74066685,1.51210971 6.87715615,1.70706473 C6.93815489,1.79419251 7.24769473,2.17704703 7.16353816,2.07096362 C7.47593777,2.46475839 7.52589747,2.65355119 7.34526711,2.88635392 C7.08979972,3.21560923 6.8489663,3.24562816 6.03567536,3.11725646 C5.74819589,3.07188005 5.6031926,3.0525735 5.42560053,3.04117432 C4.70911244,2.99518478 4.1363409,3.18539025 3.64597274,3.73932495 C3.00909908,4.45875668 2.99261166,5.05642553 3.35118141,5.90552807 C3.3807917,5.97510065 3.3807917,5.97510065 3.40981597,6.04235102 C3.67165705,6.64953022 3.70405146,6.8907957 3.50026574,7.26605044 L3.50026574,7.26605044 C3.35187803,7.53929429 2.98525154,7.73664851 2.31194511,7.92944869 C2.18478557,7.96586061 1.66787226,8.10393473 1.76751423,8.0769394 C1.08081959,8.26298102 0.768444078,8.39610694 0.561064111,8.70085914 C0.253055258,9.15348905 0.456815236,9.65758418 1.05000295,10.2440073 C1.62121619,10.8087065 2.333097,11.032289 3.12551578,10.9606474 C3.83914432,10.8961292 4.57885225,10.6003937 5.31699311,10.1502982 C5.58149214,9.98901485 5.82928238,9.81753649 6.05548759,9.64504524 Z"></path>
                            </g>
                            <path d="M4.13802332,8.308501 C4.02921,8.1904996 4.01788523,7.99442195 4.12690059,7.85996934 C4.12690059,7.85996934 5.60932313,5.79270493 8.27175637,5.02535425 C10.9341896,4.25800357 11.6299854,4.5090804 11.6299854,4.5090804 C11.7930499,4.53322634 12.0268232,4.63243201 12.1605639,4.7372718 L12.94156,5.34949738 C13.6859297,5.93301139 13.5306156,6.44803221 12.5855034,6.52589454 C12.5855034,6.52589454 10.9892925,6.52447978 9.42085919,7.12313197 C6.95886898,8.06284414 5.8372275,9.72331996 5.8372275,9.72331996 C5.73854207,9.85260447 5.56619918,9.85727044 5.46151777,9.74374985 L4.13802332,8.308501 Z" id="Rectangle-5" stroke="#131313" stroke-width="0.855742297" fill="#FFFFFF" transform="translate(8.732178, 7.145178) rotate(-25.000000) translate(-8.732178, -7.145178) "></path>
                            <path d="M5.11646634,9.04594225 C5.00765302,8.92794085 4.99632825,8.7318632 5.10534361,8.59741059 C5.10534361,8.59741059 6.58776616,6.53014618 9.25019939,5.7627955 C11.9126326,4.99544482 12.6084284,5.24652165 12.6084284,5.24652165 C12.771493,5.27066759 13.0052662,5.36987326 13.1390069,5.47471305 L13.920003,6.08693863 C14.6643727,6.67045264 14.5090586,7.18547346 13.5639464,7.26333578 C13.5639464,7.26333578 11.9677355,7.26192103 10.3993022,7.86057322 C7.93731201,8.80028538 6.81567053,10.4607612 6.81567053,10.4607612 C6.71698509,10.5900457 6.54464221,10.5947117 6.4399608,10.4811911 L5.11646634,9.04594225 Z" id="Rectangle-5" fill="#EA528C" style="mix-blend-mode: multiply;" transform="translate(9.710621, 7.882619) rotate(-25.000000) translate(-9.710621, -7.882619) "></path>
                        </g>
                    </g>
                    <g id="铅笔" transform="translate(46.212962, 16.181009) rotate(-315.000000) translate(-46.212962, -16.181009) translate(41.712962, -1.818991)">
                        <path d="M2.40884057,0.275407056 L6.76514927,0.275407056 C7.73151056,0.275407056 8.51490118,1.05743804 8.51490118,2.03047105 L8.51490118,26.4058077 L2.40884057,26.4058077 L2.40884057,0.275407056 Z" id="Rectangle-7" fill="#EA528C"></path>
                        <path d="M8.28651515,26.6342706 L0.436428571,26.6342706 L0.436428571,2.6953625 C0.436428571,1.96385805 1.01836561,1.37672708 1.7442529,1.37672708 L6.97869083,1.37672708 C7.70180613,1.37672708 8.28651515,1.96419467 8.28651515,2.6953625 L8.28651515,26.6342706 Z" id="Rectangle-4" stroke="#131313" stroke-width="0.872857143"></path>
                        <g id="Rectangle-6">
                            <use fill="#D8D8D8" fill-rule="evenodd" xlink:href="#path-2"></use>
                            <rect stroke="#131313" stroke-width="0.872857143" x="1.30872294" y="4.8607805" width="6.10549784" height="1"></rect>
                        </g>
                        <polygon id="Triangle" fill="#EA528C" transform="translate(5.768430, 30.564088) scale(1, -1) translate(-5.768430, -30.564088) " points="8.25572582 32.9803424 3.28113494 32.9803424 5.70094257 28.1478344"></polygon>
                        <polygon id="Triangle" stroke="#131313" stroke-width="0.872857143" transform="translate(4.361472, 32.296779) scale(1, -1) translate(-4.361472, -32.296779) " points="4.36147186 28.8127258 7.85064935 35.7808327 0.872294372 35.7808327"></polygon>
                    </g>
                    <path d="M38.7860677,5.40463611 C36.140065,4.62500344 33.3389337,4.20659859 30.4399351,4.20659859 C14.1807079,4.20659859 1,17.3679498 1,33.6032993 C1,49.8386488 14.1807079,63 30.4399351,63 L30.4399351,63 C46.6991622,63 59.8798701,49.8386488 59.8798701,33.6032993 C59.8798701,28.7267923 58.6907297,24.1276162 56.5862007,20.0791206" id="Oval" stroke="#EA528C" stroke-width="1.09107143" stroke-linecap="round"></path>
                </g>
            </g>
        </g>
    </g>
</svg>