<?xml version="1.0" encoding="UTF-8"?>
<svg width="64px" height="62px" viewBox="0 0 64 62" version="1.1" xmlns="http://www.w3.org/2000/svg" xmlns:xlink="http://www.w3.org/1999/xlink">
    <!-- Generator: Sketch 43.1 (39012) - http://www.bohemiancoding.com/sketch -->
    <title>Group 4</title>
    <desc>Created with Sketch.</desc>
    <defs></defs>
    <g id="Page-1" stroke="none" stroke-width="1" fill="none" fill-rule="evenodd">
        <g id="婚礼专题-copy" transform="translate(-163.000000, -3297.000000)">
            <g id="刻上爱情印记" transform="translate(153.000000, 3297.000000)">
                <g id="Group-4" transform="translate(10.000000, 0.000000)">
                    <g id="设计婚鞋icon" transform="translate(1.000000, 1.876923)" stroke="#EA528C" stroke-width="1.09107143" stroke-linecap="round">
                        <path d="M33.5000784,0.716860326 C32.1819099,0.5373014 30.8359778,0.444534413 29.4682836,0.444534413 C13.1934,0.444534413 0,13.5801736 0,29.7838057 C0,45.9874378 13.1934,59.1230769 29.4682836,59.1230769 C45.7431672,59.1230769 58.9365672,45.9874378 58.9365672,29.7838057 C58.9365672,25.9983985 58.2165262,22.3804296 56.9053685,19.0582587" id="Oval"></path>
                    </g>
                    <g id="Group" transform="translate(13.223881, 20.646154)" fill-rule="nonzero">
                        <g id="男女" transform="translate(2.000000, 2.039011)" fill="#EA528C">
                            <path d="M7.3157499,0 C3.27442548,0.00122638344 -0.000826225551,3.24303691 1.56344492e-07,7.24105401 C0.00082653824,11.2390711 3.27741813,14.4795563 7.31874271,14.4791476 C11.3600673,14.4787389 14.6359892,11.2375912 14.6359893,7.23957398 C14.6359893,5.31951958 13.8649886,3.47810561 12.4925983,2.12042213 C11.1202081,0.76273864 9.25884754,1.17569424e-16 7.31799468,0 L7.3157499,0 Z" id="Shape"></path>
                            <polygon id="Shape" points="6.42924597 13.8431127 8.20674338 13.8431127 8.20674338 26.7882937 6.42924597 26.7882937"></polygon>
                            <polygon id="Shape" points="21.7081599 1.75844945 23.4856573 1.75844945 23.4856573 13.2070778 21.7081599 13.2070778 21.7081599 1.75844945"></polygon>
                            <path d="M22.5946638,12.7206981 C18.5533394,12.7219245 15.2780877,15.963735 15.2789141,19.9617521 C15.2797405,23.9597692 18.5563321,27.2002544 22.5976567,27.1998457 C26.6389812,27.1994371 29.9149031,23.9582893 29.9149033,19.9602721 C29.9149033,15.9619658 26.6385255,12.7206981 22.5969086,12.7206981 L22.5946638,12.7206981 Z" id="Shape"></path>
                            <polygon id="Shape" points="22.4095244 0.411551999 23.6747528 1.66322197 17.9056297 7.37052216 16.6404013 6.11885219 22.4095244 0.411551999"></polygon>
                            <polygon id="Shape" points="21.329969 1.43873907 22.5951974 0.18706909 28.3643204 5.89436927 27.0990921 7.14603925 21.329969 1.43873907"></polygon>
                            <polygon id="Shape" points="0.264733657 18.6320814 13.9930648 18.6320814 13.9930648 20.3157032 0.264733657 20.3157032 0.264733657 18.6320814"></polygon>
                        </g>
                        <g id="男女" fill="#333333">
                            <path d="M7.54529656,0 C3.3771673,0.00126486374 -0.000852150073,3.34479385 1.61250124e-07,7.46825694 C0.000852472573,11.59172 3.38025385,14.933882 7.54838328,14.9334606 C11.7165127,14.9330391 15.0952234,11.5901936 15.0952236,7.46673047 C15.0952236,5.48643043 14.300031,3.58723831 12.8845792,2.18695472 C11.4691275,0.786671131 9.54936288,1.21258406e-16 7.54761178,0 L7.54529656,0 Z M7.54529656,13.1698467 C4.36143372,13.1698467 1.78040292,10.6164746 1.78040292,7.46673047 C1.78040292,4.31698637 4.36143372,1.76361427 7.54529656,1.76361427 C10.7291594,1.76361427 13.3101902,4.31698637 13.3101902,7.46673047 C13.3101902,8.97929093 12.7028192,10.4299009 11.6216919,11.4994426 C10.5405647,12.5689844 9.07424142,13.1698467 7.54529656,13.1698467 Z" id="Shape"></path>
                            <polygon id="Shape" points="6.63097675 14.2774687 8.4642468 14.2774687 8.4642468 27.6288314 6.63097675 27.6288314"></polygon>
                            <polygon id="Shape" points="22.389298 1.81362441 24.222568 1.81362441 24.222568 13.6214769 22.389298 13.6214769 22.389298 1.81362441"></polygon>
                            <path d="M23.3036178,13.1198361 C19.1354885,13.121101 15.7574691,16.46463 15.7583214,20.5880931 C15.7591737,24.7115562 19.1385751,28.0537182 23.3067045,28.0532967 C27.4748339,28.0528752 30.8535446,24.7100298 30.8535448,20.5865666 C30.8535448,16.4628052 27.4743639,13.1198361 23.305933,13.1198361 L23.3036178,13.1198361 Z M23.3036178,26.5645318 C19.9663158,26.5645318 17.2608979,23.8881056 17.2608979,20.5865666 C17.2608979,17.2850276 19.9663158,14.6086014 23.3036178,14.6086014 C26.6409198,14.6086014 29.3463376,17.2850276 29.3463376,20.5865666 C29.3463376,23.8881056 26.6409198,26.5645318 23.3036178,26.5645318 Z" id="Shape"></path>
                            <polygon id="Shape" points="23.1126692 0.424465287 24.4175968 1.71540897 18.4674556 7.60178741 17.1625281 6.31084373 23.1126692 0.424465287"></polygon>
                            <polygon id="Shape" points="21.9992405 1.48388246 23.304168 0.192938767 29.2543092 6.0793172 27.9493817 7.37026089 21.9992405 1.48388246"></polygon>
                            <polygon id="Shape" points="0.273040219 19.2167012 14.4321259 19.2167012 14.4321259 20.9531501 0.273040219 20.9531501 0.273040219 19.2167012"></polygon>
                        </g>
                    </g>
                    <g id="蜜月-01" transform="translate(34.850746, 0.000000)" fill-rule="nonzero">
                        <path d="M3.50617593,4.27518025 C-2.45705213,8.63399223 4.80207925,16.843449 15.6776674,17.7714489 C15.6776674,17.7714489 14.6293484,15.1812493 18.3808156,11.2660587 C21.6186552,7.87822305 19.4761641,3.01354423 16.9735427,2.09634259 C14.1379892,1.038033 11.3903324,1.73997331 9.84939371,4.76066844 C9.8493657,4.76066844 6.4766558,2.10586886 3.50617593,4.27518025 Z" id="Shape" fill="#EA528C"></path>
                        <path d="M2.56587742,3.33671871 C-3.39735063,7.69553069 3.86178074,15.9049874 14.7373689,16.8329873 C14.7373689,16.8329873 13.6890499,14.2427878 17.4405171,10.3275971 C20.6783567,6.93976151 18.5358656,2.07508269 16.0332442,1.15788105 C13.1976907,0.0995714569 10.4500339,0.801511767 8.9090952,3.8222069 C8.90906719,3.8222069 5.5363573,1.16740732 2.56587742,3.33671871 Z" id="Shape" stroke="#131313" stroke-width="0.94"></path>
                        <path d="M27.340299,11.3123187 C28.8850371,12.1591858 29.1234389,14.6493977 28.1335294,16.254812 C27.2809472,17.6399345 24.2078817,18.8538009 22.7004902,19.0128442 C22.7004902,19.0128442 23.0586399,18.0816872 21.0557218,16.1800586 C19.3505573,14.5733522 19.9855992,11.5067699 21.2743811,10.7224742 C22.5214154,9.95032981 23.7903553,10.2698315 24.6627546,11.9254506 C24.6627795,11.9253891 25.7724617,10.4532696 27.340299,11.3123187 Z" id="Shape" fill="#EA528C"></path>
                        <path d="M26.4000005,10.3738572 C27.9447386,11.2207243 28.1831404,13.7109361 27.1932309,15.3163505 C26.3406487,16.701473 23.2675831,17.9153394 21.7601917,18.0743826 C21.7601917,18.0743826 22.1183414,17.1432257 20.1154233,15.2415971 C18.4102588,13.6348907 19.0453007,10.5683084 20.3340826,9.78401268 C21.5811168,9.01186827 22.8500568,9.33136994 23.7224561,10.9869891 C23.722481,10.9869275 24.8321632,9.51480807 26.4000005,10.3738572 Z" id="Shape" stroke="#131313" stroke-width="0.94"></path>
                    </g>
                </g>
            </g>
        </g>
    </g>
</svg>