<?xml version="1.0" encoding="UTF-8"?>
<svg width="100px" height="22px" viewBox="0 0 100 22" version="1.1" xmlns="http://www.w3.org/2000/svg" xmlns:xlink="http://www.w3.org/1999/xlink">
    <!-- Generator: Sketch 43.1 (39012) - http://www.bohemiancoding.com/sketch -->
    <title>logo1</title>
    <desc>Created with Sketch.</desc>
    <defs>
        <polygon id="path-1" points="9.7828155 0.020176595 0.00863119711 0.020176595 0.00863119711 7.97300833 9.7828155 7.97300833"></polygon>
    </defs>
    <g id="Page-1" stroke="none" stroke-width="1" fill="none" fill-rule="evenodd">
        <g id="婚礼专题-copy" transform="translate(-138.000000, -3583.000000)">
            <g id="logo1" transform="translate(138.000000, 3583.000000)">
                <g id="Group-3" transform="translate(0.990099, 0.000000)">
                    <g id="Fill-1-Clipped">
                        <mask id="mask-2" fill="white">
                            <use xlink:href="#path-1"></use>
                        </mask>
                        <g id="path-1"></g>
                        <path d="M9.7828155,7.97300833 L6.36475063,5.19216019 L6.36505845,5.19180201 L0.00863119711,0.0201467479 L0.00863119711,1.39448327 L4.42617883,4.98866311 C4.14624979,5.30498197 3.97670402,5.71800523 3.97670402,6.169949 C3.97670402,6.4377963 4.0370362,6.69167516 4.1438488,6.92018406 L0.00863119711,6.92018406 L0.00863119711,7.0001741 L0.00863119711,7.97300833 L5.86799507,7.97300833 L9.7828155,7.97300833 Z" id="Fill-1" fill="#F5334A" fill-rule="nonzero" mask="url(#mask-2)"></path>
                    </g>
                </g>
                <polygon id="Fill-4" fill="#F5334A" fill-rule="nonzero" points="17.7360752 20.0208864 17.7329473 16.1318104 21.4149993 16.1431132 21.4149993 15.1753571 17.6205323 15.1639995 17.6237241 12 15.371276 12 15.368148 15.1639995 11.1881124 15.1753571 12.5300698 16.1431132 15.2557331 16.1318104 15.258861 20.0208864 9.9009901 20.0321891 11.2430113 21 22.7722772 21 22.7722772 20.0321891"></polygon>
                <path d="M4.15113516,11.0665399 L4.14689517,11.0665399 L4.14689517,13.331911 L4.12605864,13.331911 L2.90057943,13.331911 L2.90057943,10.0453598 L4.12605864,10.0453598 L4.15113516,10.0453598 L4.15113516,11.0665399 Z M6.28839464,11.0665399 L6.28839464,10.0453598 L6.31244148,10.0453598 L7.53901096,10.0453598 L7.53901096,13.331911 L6.31244148,13.331911 L6.28839464,13.331911 L6.28839464,11.0665399 Z M9.61769797,16.1746331 L6.28839464,16.1746331 L6.28839464,14.3641142 L6.32092147,14.3641142 L9.52278269,14.3641142 L9.52199527,9 L0.917049982,9 C0.917049982,9 0.915899126,14.0202045 0.915899126,14.3408234 L0.915899126,14.3641142 L4.12357521,14.3641142 L4.14689517,14.3641142 L4.14689517,16.1746331 L0,16.1746331 L0,17.2199929 L4.14689517,17.2199929 L4.15113516,22 L6.28839464,22 L6.28839464,17.2199929 L10.8910891,17.2199929 L9.61769797,16.1746331 Z" id="Fill-6" fill="#F5334A" fill-rule="nonzero"></path>
                <path d="M14.4904109,5.64495327 L14.4904109,8.97804349 L10.5732704,8.98385889 L11.8654273,10 L20.4149929,9.9994818 L20.4149929,8.97666162 L16.8744474,8.97804349 L16.8744474,5.64495327 L20.7920792,5.64495327 L20.7920792,4.62933037 L16.7663222,4.62933037 L16.7663222,1 L14.5985975,1 L14.5985975,4.62933037 C13.7541155,4.62933037 10.1760949,4.63514577 9.9009901,4.63514577 L11.1921026,5.65076867 C12.208356,5.65076867 13.7098825,5.64495327 14.4904109,5.64495327" id="Fill-8" fill="#F5334A" fill-rule="nonzero"></path>
                <g id="Group-2" transform="translate(26.732673, 9.000000)" fill-rule="nonzero" fill="#F5334A">
                    <path d="M4.86402833,1.40180371 L3.89637924,1.91695818 C3.71540763,1.63486165 3.54307127,1.4508977 3.37918531,1.36501092 C3.20845272,1.26687834 2.98837546,1.21783977 2.71876849,1.21783977 C2.38766558,1.21783977 2.11281576,1.30228586 1.8944039,1.47101184 C1.67593042,1.63674561 1.56669358,1.84536738 1.56669358,2.09698796 C1.56669358,2.44374891 1.85344781,2.72296407 2.42689465,2.93468884 L3.21536096,3.22465371 C3.85708855,3.45793329 4.32641816,3.74252331 4.62341141,4.07853456 C4.92034305,4.41454583 5.06880877,4.82652533 5.06880877,5.31430684 C5.06880877,5.96798837 4.82646465,6.50807771 4.3417766,6.93463026 C3.85363433,7.36423041 3.24774341,7.57894737 2.52416546,7.57894737 C1.83808937,7.57894737 1.27142734,7.39570376 0.824364591,7.02916114 C0.384025033,6.66284015 0.109236836,6.14851685 0,5.48619122 L1.20832782,5.2470381 C1.26291533,5.66405999 1.35852074,5.95230712 1.49502043,6.11172407 C1.74075695,6.41836759 2.09918434,6.57168934 2.57024096,6.57168934 C2.94223815,6.57168934 3.25125925,6.45981489 3.49699577,6.23617678 C3.7427323,6.01253868 3.86560056,5.7291123 3.86560056,5.38584222 C3.86560056,5.24803549 3.84425891,5.12158798 3.80151401,5.00672134 C3.75889253,4.89174387 3.69233898,4.78602001 3.60191479,4.68954976 C3.51142899,4.5930241 3.39460555,4.50259362 3.25125925,4.41836917 C3.10785132,4.33414472 2.93718035,4.25368819 2.73924653,4.17705502 L1.97637769,3.89207713 C0.894310733,3.4814829 0.353307968,2.88088493 0.353307968,2.09039406 C0.353307968,1.5572865 0.58029346,1.11139555 1.03420283,0.752887504 C1.48823562,0.39138727 2.05317045,0.210526316 2.72900751,0.210526316 C3.64034208,0.210526316 4.35201562,0.607655719 4.86402833,1.40180371" id="Fill-10"></path>
                    <polygon id="Fill-12" points="9.94080936 3.01065247 13.3296309 3.01065247 13.3296309 0.210526316 14.5152251 0.210526316 14.5152251 7.36842105 13.3296309 7.36842105 13.3296309 4.02594044 9.94080936 4.02594044 9.94080936 7.36842105 8.75521514 7.36842105 8.75521514 0.210526316 9.94080936 0.210526316"></polygon>
                    <path d="M19.6396515,3.87635669 C19.6396515,4.66118681 19.9343439,5.30646079 20.523605,5.81228948 C21.1093989,6.31811818 21.786077,6.57106025 22.5535154,6.57106025 C23.3860833,6.57106025 24.0883303,6.31351621 24.6605659,5.79848357 C25.2326158,5.27740737 25.5187027,4.64277892 25.5187027,3.89476456 C25.5187027,3.13760172 25.2360829,2.50297327 24.670843,1.99099011 C24.1088845,1.47595747 23.4133856,1.21841343 22.5843467,1.21841343 C21.7586509,1.21841343 21.0614805,1.47595747 20.4927737,1.99099011 C19.9240668,2.49992376 19.6396515,3.12839776 19.6396515,3.87635669 M18.4320319,3.86482403 C18.4320319,2.86458839 18.8413199,2.00546139 19.6602677,1.28749845 C20.4756246,0.569480068 21.4554767,0.210526316 22.5997624,0.210526316 C23.7303038,0.210526316 24.699879,0.57258501 25.5084877,1.29670238 C26.3203774,2.02081977 26.7264462,2.89070319 26.7264462,3.90624178 C26.7264462,4.92799024 26.3187059,5.79482417 25.503349,6.50657721 C24.6844633,7.2215461 23.6960675,7.57894737 22.5380999,7.57894737 C21.5136724,7.57894737 20.593811,7.26141137 19.7784542,6.62628391 C18.8807567,5.92367937 18.4320319,5.00317425 18.4320319,3.86482403" id="Fill-14"></path>
                    <polygon id="Fill-16" points="34.7904602 1.22581431 31.6100656 1.22581431 31.6100656 2.94575536 34.697986 2.94575536 34.697986 3.96104333 31.6100656 3.96104333 31.6100656 6.35318892 34.7904602 6.35318892 34.7904602 7.36842105 30.4128526 7.36842105 30.4128526 0.210526316 34.7904602 0.210526316"></polygon>
                    <polygon id="Fill-18" points="39.8793491 0.210526316 39.8793491 6.35313308 42.1632729 6.35313308 42.1632729 7.36842105 38.707267 7.36842105 38.707267 0.210526316"></polygon>
                    <path d="M72.0738735,1.84699567 C71.8934489,1.56328668 71.7215135,1.37827121 71.5581903,1.2918935 C71.3878542,1.1932 71.1683674,1.14388112 70.8994838,1.14388112 C70.569208,1.14388112 70.2950954,1.2288099 70.0773312,1.39850031 C69.8594437,1.56518142 69.7505616,1.77499566 69.7505616,2.0280545 C69.7505616,2.37679752 70.036485,2.65760866 70.6083933,2.87054365 L71.3947439,3.16216595 C72.0347497,3.39677894 72.5028201,3.68299567 72.7990165,4.02092755 C73.0951514,4.35885945 73.2432188,4.77319382 73.2432188,5.26376346 C73.2432188,5.92118142 73.0015251,6.46435789 72.5180758,6.8933486 C72.0312433,7.32540433 71.4270395,7.5413486 70.7054029,7.5413486 C70.0211676,7.5413486 69.4560876,7.35705759 69.0101627,6.98841981 C68.5710046,6.62000495 68.2969537,6.10274179 68.1880102,5.43663033 L69.3930343,5.19611021 C69.4474754,5.61551579 69.5428857,5.90541053 69.6790192,6.0657387 C69.9240964,6.37413499 70.2816237,6.52833312 70.7512933,6.52833312 C71.1224155,6.52833312 71.4305459,6.4158192 71.6756231,6.19090279 C71.9207003,5.96598637 72.0432389,5.68093994 72.0432389,5.33570773 C72.0432389,5.19711331 72.021893,5.06994303 71.9793859,4.95441981 C71.9368173,4.83878514 71.8704421,4.73245697 71.7803222,4.6354353 C71.6900177,4.5383579 71.5735076,4.44741052 71.4305459,4.36270465 C71.2875227,4.27799877 71.1173097,4.19708235 70.9199069,4.12001115 L70.1590235,3.83340434 C69.0799212,3.42046317 68.54037,2.81643219 68.54037,2.0214229 C68.54037,1.48526812 68.7667465,1.03682848 69.2194996,0.676271206 C69.6721911,0.312704648 70.2356716,0.130809899 70.9096954,0.130809899 C71.8185848,0.130809899 72.5282874,0.530209281 73.0389263,1.32889659 L72.0738735,1.84699567 Z M64.718015,1.28264273 L61.5571715,1.28264273 L61.5571715,2.99882849 L64.6261111,2.99882849 L64.6261111,4.01189969 L61.5571715,4.01189969 L61.5571715,6.39882229 L64.718015,6.39882229 L64.718015,7.41183778 L60.3674646,7.41183778 L60.3674646,0.269571512 L64.718015,0.269571512 L64.718015,1.28264273 Z M51.3929712,0.269588238 L53.5732599,5.21919814 L55.7843678,0.269588238 L57.0864632,0.269588238 L53.5477925,7.9484551 L50.0908755,0.269588238 L51.3929712,0.269588238 Z M45.6097774,7.41188236 L45.6097774,0.269616097 L46.7994843,0.269616097 L46.7994843,7.41188236 L45.6097774,7.41188236 Z" id="Fill-24"></path>
                </g>
            </g>
        </g>
    </g>
</svg>