<?xml version="1.0" encoding="UTF-8" standalone="no"?>
<svg width="18px" height="13px" viewBox="0 0 18 13" version="1.1" xmlns="http://www.w3.org/2000/svg" xmlns:xlink="http://www.w3.org/1999/xlink">
    <!-- Generator: Sketch 41.2 (35397) - http://www.bohemiancoding.com/sketch -->
    <title>view</title>
    <desc>Created with Sketch.</desc>
    <defs></defs>
    <g id="社交分享" stroke="none" stroke-width="1" fill="none" fill-rule="evenodd">
        <g id="10-4分享主编" transform="translate(-198.000000, -608.000000)">
            <g id="Group-3" transform="translate(0.000000, 128.000000)">
                <g id="post-copy-7" transform="translate(0.000000, 471.000000)">
                    <g id="view" transform="translate(198.000000, 7.000000)">
                        <g id="icon_viewAll" transform="translate(0.000000, 2.700000)" fill="#9B9B9B">
                            <path d="M9,0.212341198 C5.18348925,0.212341198 1.85997457,2.39887967 0.204545455,5.62040608 C0.204545455,5.62040608 0.0666084477,5.9064955 0.0319602273,5.99200318 C0.0114552614,6.04260727 0,6.09955208 0,6.15789474 C0,6.21554643 0.0119127273,6.27366507 0.0319602273,6.3237863 C0.0663753477,6.40982907 0.204545455,6.68211207 0.204545455,6.68211207 C1.85895695,9.90655244 5.18155711,12.1034483 9,12.1034483 C12.8184429,12.1034483 16.141043,9.90655563 17.7954545,6.68211207 C17.7954545,6.68211207 17.9336246,6.40982695 17.9680398,6.3237863 C17.9880873,6.27367377 18,6.21554537 18,6.15789474 C18,6.09954338 17.9885446,6.04260408 17.9680398,5.99200318 C17.9333916,5.90649338 17.7954545,5.62040608 17.7954545,5.62040608 C16.1400254,2.39888009 12.8165107,0.212341198 9,0.212341198 L9,0.212341198 Z M9,1.06170599 C12.5627592,1.06170599 15.6257438,3.13845387 17.1178977,6.15125907 C15.6265505,9.16663149 12.564425,11.2540835 9,11.2540835 C5.43557495,11.2540835 2.37344952,9.16663149 0.882102273,6.15125907 C2.37425625,3.1384475 5.43724077,1.06170599 9,1.06170599 L9,1.06170599 Z M9,2.76043557 C7.19736955,2.76043557 5.72727273,4.28655087 5.72727273,6.15789474 C5.72727273,8.02921525 7.19736566,9.5553539 9,9.5553539 C10.8026343,9.5553539 12.2727273,8.02921525 12.2727273,6.15789474 C12.2727273,4.28654662 10.8026305,2.76043557 9,2.76043557 L9,2.76043557 Z M9,3.60980036 C10.3604535,3.60980036 11.4545455,4.74557733 11.4545455,6.15789474 C11.4545455,7.57017604 10.3604496,8.70598911 9,8.70598911 C7.63955039,8.70598911 6.54545455,7.57017604 6.54545455,6.15789474 C6.54545455,4.74558158 7.6395465,3.60980036 9,3.60980036 L9,3.60980036 Z" id="Shape"></path>
                        </g>
                        <rect id="Rectangle-2" fill="#FFFFFF" opacity="0" x="0" y="0" width="18" height="18"></rect>
                    </g>
                </g>
            </g>
        </g>
    </g>
</svg>