<?xml version="1.0" encoding="UTF-8"?>
<svg width="81px" height="6px" viewBox="0 0 81 6" version="1.1" xmlns="http://www.w3.org/2000/svg" xmlns:xlink="http://www.w3.org/1999/xlink">
    <!-- Generator: Sketch 44.1 (41455) - http://www.bohemiancoding.com/sketch -->
    <title>装饰01@2x</title>
    <desc>Created with Sketch.</desc>
    <defs></defs>
    <g id="Page-1" stroke="none" stroke-width="1" fill="none" fill-rule="evenodd">
        <g id="星空系列" transform="translate(-173.000000, -328.000000)" fill="#FFED00">
            <g id="序" transform="translate(133.000000, 328.000000)">
                <path d="M116.392677,2.79648269 L114.392677,0.796482685 L112.392677,2.79648269 L110.392677,0.796482685 L108.392677,2.79648269 L106.392677,0.796482685 L104.392677,2.79648269 L102.392677,0.796482685 L100.392677,2.79648269 L98.3926768,0.796482685 L96.3926768,2.79648269 L94.3926768,0.796482685 L92.3926768,2.79648269 L90.3926768,0.796482685 L88.3926768,2.79648269 L86.3926768,0.796482685 L84.3926768,2.79648269 L82.3926768,0.796482685 L80.3926768,2.79648269 L78.3926768,0.796482685 L76.3926768,2.79648269 L74.3926768,0.796482685 L72.3926768,2.79648269 L70.3926768,0.796482685 L68.3926768,2.79648269 L66.3926768,0.796482685 L64.3926768,2.79648269 L62.3926768,0.796482685 L60.3926768,2.79648269 L58.3926768,0.796482685 L56.3926768,2.79648269 L54.3926768,0.796482685 L52.3926768,2.79648269 L50.3926768,0.796482685 L48.3926768,2.79648269 L46.3926768,0.796482685 L44.3926768,2.79648269 L42.3926768,0.796482685 L40.2713564,2.91780303 L42.5570707,5.20351731 L44.5570707,3.20351731 L46.5570707,5.20351731 L48.5570707,3.20351731 L50.5570707,5.20351731 L52.5570707,3.20351731 L54.5570707,5.20351731 L56.5570707,3.20351731 L58.5570707,5.20351731 L60.5570707,3.20351731 L62.5570707,5.20351731 L64.5570707,3.20351731 L66.5570707,5.20351731 L68.5570707,3.20351731 L70.5570707,5.20351731 L72.5570707,3.20351731 L74.5570707,5.20351731 L76.5570707,3.20351731 L78.5570707,5.20351731 L80.5570707,3.20351731 L82.5570707,5.20351731 L84.5570707,3.20351731 L86.5570707,5.20351731 L88.5570707,3.20351731 L90.5570707,5.20351731 L92.5570707,3.20351731 L94.5570707,5.20351731 L96.5570707,3.20351731 L98.5570707,5.20351731 L100.557071,3.20351731 L102.557071,5.20351731 L104.557071,3.20351731 L106.557071,5.20351731 L108.557071,3.20351731 L110.557071,5.20351731 L112.557071,3.20351731 L114.557071,5.20351731 L116.557071,3.20351731 L118.557071,5.20351731 L120.678391,3.08219697 L118.392677,0.796482685 L116.392677,2.79648269 Z" id="装饰01"></path>
            </g>
        </g>
    </g>
</svg>