<?xml version="1.0" encoding="UTF-8"?>
<svg width="66px" height="18px" viewBox="0 0 66 18" version="1.1" xmlns="http://www.w3.org/2000/svg" xmlns:xlink="http://www.w3.org/1999/xlink">
    <!-- Generator: Sketch 44.1 (41455) - http://www.bohemiancoding.com/sketch -->
    <title>装饰03</title>
    <desc>Created with Sketch.</desc>
    <defs></defs>
    <g id="Page-1" stroke="none" stroke-width="1" fill="none" fill-rule="evenodd">
        <g id="星空系列" transform="translate(-134.000000, -384.000000)" fill="#B7E5FF">
            <g id="序" transform="translate(133.000000, 328.000000)">
                <path d="M50.2471013,62.1806846 C49.6513773,58.9071899 47.8753346,56.5654297 44.1953125,56.5654297 C40.3916218,56.5654297 36.2578598,58.3691951 34.8261024,61.5508861 C33.8343703,58.5962935 31.1364406,57 27.4536133,57 C22.9915289,57 19.759069,57.7689163 19.2345108,62.9140914 C18.3758104,59.3764607 15.3921719,57 11.4536133,57 C6.75919291,57 1,59.0965953 1,63.7910156 C1,68.485436 4.68204447,73.1411133 9.37646484,73.1411133 C13.488246,73.1411133 18.152805,70.5510165 19.2473329,66.7536192 C19.6854755,70.7917569 21.6751172,73.0517578 26.3412376,73.0517578 C31.8812013,73.0517578 34.015561,71.1060529 34.8052249,68.3533638 C35.5472621,71.115218 37.2052194,73.1411133 40.3764648,73.1411133 C44.6383327,73.1411133 49.4940696,70.35848 50.3527188,66.3330271 C51.3798011,70.0317975 54.540073,73.1411133 58.3764648,73.1411133 C63.0708852,73.1411133 66.0966797,69.764977 66.0966797,65.0705566 C66.0966797,60.3761363 65.1480337,57 60.4536133,57 C56.3347063,57 51.3960957,58.6140412 50.2471013,62.1806846 Z" id="装饰03"></path>
            </g>
        </g>
    </g>
</svg>