<?xml version="1.0" encoding="UTF-8"?>
<svg width="210px" height="12px" viewBox="0 0 210 12" version="1.1" xmlns="http://www.w3.org/2000/svg" xmlns:xlink="http://www.w3.org/1999/xlink">
    <!-- Generator: Sketch 44.1 (41455) - http://www.bohemiancoding.com/sketch -->
    <title>logo</title>
    <desc>Created with Sketch.</desc>
    <defs></defs>
    <g id="Page-1" stroke="none" stroke-width="1" fill="none" fill-rule="evenodd">
        <g id="星空系列" transform="translate(-83.000000, -3010.000000)" fill="#C7C7C7">
            <g id="logo" transform="translate(83.000000, 3010.000000)">
                <rect id="Rectangle-3" x="0" y="6" width="50" height="1"></rect>
                <rect id="Rectangle-3-Copy" x="160" y="6" width="50" height="1"></rect>
                <g transform="translate(60.000000, 0.000000)" fill-rule="nonzero">
                    <path d="M88.5336036,2.50060112 C88.3119158,2.10522817 88.1006587,1.84739315 87.8999835,1.72701837 C87.6906914,1.58948046 87.4210079,1.52075035 87.0906305,1.52075035 C86.6848205,1.52075035 86.3480183,1.63910593 86.0804514,1.87558415 C85.8127329,2.10786865 85.6789495,2.40026289 85.6789495,2.7529222 C85.6789495,3.23892569 86.0302636,3.63026023 86.7329675,3.92700349 L87.6991568,4.33340432 C88.4855321,4.66035776 89.0606504,5.05922546 89.424587,5.53016268 C89.7884481,6.00109992 89.9703785,6.5785106 89.9703785,7.26216171 C89.9703785,8.17833033 89.6734094,8.93529359 89.0793951,9.53312914 C88.4812238,10.1352361 87.7388384,10.436173 86.8521633,10.436173 C86.0114431,10.436173 85.3171291,10.1793476 84.769221,9.66561907 C84.2296273,9.15220118 83.8929009,8.43135037 83.7590419,7.5030666 L85.2396555,7.16788107 C85.3065472,7.75235892 85.4237779,8.15635223 85.5910452,8.37978337 C85.8921716,8.80956019 86.3314656,9.02444858 86.9085489,9.02444858 C87.3645468,9.02444858 87.7431467,8.86765074 88.0442731,8.55421031 C88.3453996,8.24076989 88.4959628,7.84353311 88.4959628,7.36242225 C88.4959628,7.16927897 88.4697351,6.99205622 88.4175066,6.83106465 C88.3652026,6.66991776 88.2836474,6.52174028 88.172917,6.38653222 C88.0619599,6.25124649 87.9188038,6.12450348 87.7431467,6.00645853 C87.5674141,5.88841359 87.3582732,5.77564958 87.1157244,5.66824421 L86.1808266,5.26883291 C84.8549333,4.69336377 84.1919865,3.85159451 84.1919865,2.74368051 C84.1919865,1.99650257 84.4701354,1.37156326 85.0264333,0.869095606 C85.5826555,0.362434252 86.2750043,0.108948231 87.1031775,0.108948231 C88.2199302,0.108948231 89.0919421,0.665545716 89.7193643,1.77858537 L88.5336036,2.50060112 Z M79.4954576,1.71412662 L75.6117281,1.71412662 L75.6117281,4.10577948 L79.3825352,4.10577948 L79.3825352,5.51758158 L75.6117281,5.51758158 L75.6117281,8.84396408 L79.4954576,8.84396408 L79.4954576,10.2556885 L74.1499347,10.2556885 L74.1499347,0.302324506 L79.4954576,0.302324506 L79.4954576,1.71412662 Z M63.1229713,0.302347815 L65.8018929,7.20005609 L68.5186819,0.302347815 L70.1185671,0.302347815 L65.7706011,11.003511 L61.523086,0.302347815 L63.1229713,0.302347815 Z M56.017159,10.2557507 L56.017159,0.302386639 L57.4789523,0.302386639 L57.4789523,10.2557507 L56.017159,10.2557507 Z" id="Fill-24"></path>
                    <path d="M6.00166449,1.77858537 L4.81590374,2.50060112 C4.59414047,2.10522817 4.38295886,1.84739315 4.18213239,1.72701837 C3.97291605,1.58948046 3.70323257,1.52075035 3.37285519,1.52075035 C2.96712047,1.52075035 2.63031849,1.63910593 2.36267579,1.87558415 C2.09495758,2.10786865 1.96109836,2.40026289 1.96109836,2.7529222 C1.96109836,3.23892569 2.31248805,3.63026023 3.01519192,3.92700349 L3.98138143,4.33340432 C4.76775678,4.66035776 5.34287501,5.05922546 5.70681164,5.53016268 C6.07067275,6.00109992 6.25260319,6.5785106 6.25260319,7.26216171 C6.25260319,8.17833033 5.95563382,8.93529359 5.3616953,9.53312914 C4.76352397,10.1352361 4.02106301,10.436173 3.13438792,10.436173 C2.29366777,10.436173 1.59927803,10.1793476 1.05144569,9.66561907 C0.511851974,9.15220118 0.175125506,8.43135037 0.0412662857,7.5030666 L1.52195564,7.16788107 C1.58884738,7.75235892 1.7060026,8.15635223 1.87326982,8.37978337 C2.17439626,8.80956019 2.61361449,9.02444858 3.19084901,9.02444858 C3.64669574,9.02444858 4.02537132,8.86765074 4.32649777,8.55421031 C4.62762421,8.24076989 4.77818743,7.84353311 4.77818743,7.36242225 C4.77818743,7.16927897 4.7520353,6.99205622 4.69965553,6.83106465 C4.64742701,6.66991776 4.56587205,6.52174028 4.45506592,6.38653222 C4.34418429,6.25124649 4.20102842,6.12450348 4.02537132,6.00645853 C3.84963873,5.88841359 3.6404979,5.77564958 3.39794906,5.66824421 L2.46312678,5.26883291 C1.13715795,4.69336377 0.474211169,3.85159451 0.474211169,2.74368051 C0.474211169,1.99650257 0.752360026,1.37156326 1.30858223,0.869095606 C1.86495569,0.362434252 2.55722891,0.108948231 3.38540213,0.108948231 C4.50215486,0.108948231 5.37424223,0.665545716 6.00166449,1.77858537" id="Fill-10"></path>
                    <polygon id="Fill-12" points="12.3043598 4.19602174 16.4828665 4.19602174 16.4828665 0.302324506 17.9447356 0.302324506 17.9447356 10.2556885 16.4828665 10.2556885 16.4828665 5.60782383 12.3043598 5.60782383 12.3043598 10.2556885 10.8424908 10.2556885 10.8424908 0.302324506 12.3043598 0.302324506"></polygon>
                    <path d="M24.0841618,5.25005444 C24.0841618,6.34934805 24.4439413,7.25316856 25.1633494,7.96167124 C25.8785245,8.67017395 26.7046569,9.02446412 27.6415955,9.02446412 C28.6580483,9.02446412 29.5153969,8.66372807 30.2140192,7.94233363 C30.9124148,7.2124741 31.2616882,6.32356454 31.2616882,5.27583793 C31.2616882,4.21529724 30.9166476,3.32638768 30.2265662,2.60926458 C29.5404908,1.88787013 28.6913808,1.52713409 27.6792363,1.52713409 C26.6711734,1.52713409 25.8200226,1.88787013 25.1257086,2.60926458 C24.4313944,3.32211631 24.0841618,4.20240548 24.0841618,5.25005444 M22.6098215,5.23390091 C22.6098215,3.83289371 23.1095069,2.62953416 24.1093314,1.62389988 C25.1047718,0.618187958 26.3010387,0.115409642 27.6980568,0.115409642 C29.078295,0.115409642 30.2620152,0.622536979 31.249217,1.63679163 C32.2404246,2.6510463 32.7361797,3.86947212 32.7361797,5.29191381 C32.7361797,6.72305352 32.2383838,7.93720798 31.2429434,8.9341442 C30.2431946,9.93558477 29.0364971,10.4361886 27.6227752,10.4361886 C26.3720878,10.4361886 25.2490615,9.99142315 24.253621,9.10181463 C23.1576538,8.11769252 22.6098215,6.82836204 22.6098215,5.23390091" id="Fill-14"></path>
                    <polygon id="Fill-16" points="42.7468264 1.71412662 38.8631726 1.71412662 38.8631726 4.10577948 42.633904 4.10577948 42.633904 5.51758158 38.8631726 5.51758158 38.8631726 8.84396408 42.7468264 8.84396408 42.7468264 10.2556885 37.401228 10.2556885 37.401228 0.302324506 42.7468264 0.302324506"></polygon>
                    <polygon id="Fill-18" points="48.9552609 0.302347815 48.9552609 8.84390971 51.8037171 8.84390971 51.8037171 10.2557118 47.4934675 10.2557118 47.4934675 0.302347815"></polygon>
                </g>
            </g>
        </g>
    </g>
</svg>